<?xml version="1.0" encoding="UTF-8"?>
<svg width="52px" height="52px" viewBox="0 0 52 52" version="1.1" xmlns="http://www.w3.org/2000/svg" xmlns:xlink="http://www.w3.org/1999/xlink">
    <title>停車預約</title>
    <g id="Page-1" stroke="none" stroke-width="1" fill="none" fill-rule="evenodd">
        <g id="Artboard" transform="translate(-825.000000, -2732.000000)">
            <g id="停車預約" transform="translate(826.000000, 2733.000000)">
                <path d="M49.4075809,13.0643371 C49.4075809,20.2804504 43.59719,26.1286741 36.4277586,26.1286741 C29.2605156,26.1286741 23.4479363,20.2804504 23.4479363,13.0643371 C23.4479363,5.84822373 29.2605156,0 36.4277586,0 C43.59719,0 49.4075809,5.84822373 49.4075809,13.0643371 Z" id="Stroke-1" stroke="#060101" stroke-width="2" stroke-linejoin="round"></path>
                <path d="M36.7218891,12.5856858 C37.7767322,12.5856858 38.398258,11.9909512 38.398258,10.9446588 C38.398258,9.89616374 37.8095592,9.34988898 36.7218891,9.34988898 L34.4743292,9.34988898 L34.4743292,12.5856858 L36.7218891,12.5856858 Z M31.3491925,19.4075122 C31.4389198,18.737885 31.4695584,18.0528389 31.4695584,17.1585342 L31.4695584,8.94018291 C31.4695584,8.12077078 31.4389198,7.43572461 31.3491925,6.72204307 C32.0582571,6.75288116 32.6009979,6.76609748 33.5683022,6.76609748 L36.8728936,6.76609748 C39.8623452,6.76609748 41.5080755,8.21108233 41.5080755,10.8543473 C41.5080755,13.5570857 39.7857487,15.1672746 36.8575743,15.1672746 L34.4743292,15.1672746 L34.4743292,17.1122771 C34.4743292,18.0087845 34.5180987,18.7533041 34.5925067,19.4075122 L31.3491925,19.4075122 Z" id="Fill-3" fill="#00A0F1"></path>
                <path d="M18.0023635,10.9680077 L17.3895916,10.9680077 C14.330109,10.9680077 11.6601742,13.0517816 10.8963978,16.0320628 L8.38184444,25.8429813 L2.69400797,30.1581113 C0.997942837,31.4445002 0,33.4577871 0,35.5944262 L0,36.1296874 C0,39.8897318 3.02884405,42.9382974 6.76456428,42.9382974 L43.2354357,42.9382974 C46.971156,42.9382974 50,39.8897318 50,36.1296874 L50,36.1296874 C50,34.0040618 49.010811,31.9995859 47.3300652,30.7109942 L44.2333786,28.3408666" id="Stroke-5" stroke="#060101" stroke-width="2" stroke-linecap="round" stroke-linejoin="round"></path>
                <line x1="8.3811879" y1="25.8542151" x2="23.840548" y2="25.8542151" id="Stroke-7" stroke="#060101" stroke-width="2" stroke-linecap="round" stroke-linejoin="round"></line>
                <line x1="0.953516873" y1="32.4775763" x2="12.7843918" y2="32.4775763" id="Stroke-9" stroke="#060101" stroke-width="2" stroke-linecap="round" stroke-linejoin="round"></line>
                <line x1="48.9101414" y1="32.9344206" x2="36.427102" y2="32.9344206" id="Stroke-11" stroke="#060101" stroke-width="2" stroke-linecap="round" stroke-linejoin="round"></line>
                <path d="M4.11520112,42.9380771 L4.11520112,46.1364277 C4.11520112,48.0021322 5.61868079,49.5154014 7.47450431,49.5154014 L7.47450431,49.5154014 C9.32813936,49.5154014 10.831619,48.0021322 10.831619,46.1364277 L10.831619,42.9380771" id="Stroke-13" stroke="#060101" stroke-width="2" stroke-linejoin="round"></path>
                <path d="M38.3973826,42.9380771 L38.3973826,46.3765243 C38.3973826,48.3787975 40.0080973,50 41.9974176,50 L41.9974176,50 C43.9845494,50 45.5952641,48.3787975 45.5952641,46.3765243 L45.5952641,42.9380771" id="Stroke-15" stroke="#060101" stroke-width="2" stroke-linejoin="round"></path>
            </g>
        </g>
    </g>
</svg>