<?xml version="1.0" encoding="UTF-8"?>
<svg width="52px" height="52px" viewBox="0 0 52 52" version="1.1" xmlns="http://www.w3.org/2000/svg" xmlns:xlink="http://www.w3.org/1999/xlink">
    <title>公告通知</title>
    <g id="Page-1" stroke="none" stroke-width="1" fill="none" fill-rule="evenodd" stroke-linejoin="round">
        <g id="Artboard" transform="translate(-1053.000000, -2732.000000)" stroke-width="2">
            <g id="公告通知" transform="translate(1054.000000, 2733.000000)">
                <path d="M23.9132514,30.4361342 L23.9132514,45.6536579 C23.9132514,48.0558527 21.9675823,50.0015218 19.5653875,50.0015218 L4.34786389,50.0015218 C1.94566909,50.0015218 -2.27373675e-13,48.0558527 -2.27373675e-13,45.6536579 L-2.27373675e-13,13.0446786 C-2.27373675e-13,10.6424838 1.94566909,8.69681475 4.34786389,8.69681475 L10.8696597,8.69681475" id="Stroke-1" stroke="#000000" stroke-linecap="round"></path>
                <line x1="10.8696597" y1="17.3925425" x2="-2.27373675e-13" y2="17.3925425" id="Stroke-3" stroke="#000000" stroke-linecap="round"></line>
                <line x1="23.9132514" y1="41.305794" x2="-2.27373675e-13" y2="41.305794" id="Stroke-5" stroke="#000000" stroke-linecap="round"></line>
                <line x1="8.69572779" y1="13.0446786" x2="10.8696597" y2="13.0446786" id="Stroke-7" stroke="#000000" stroke-linecap="round"></line>
                <path d="M13.0435917,45.6536579 C13.0435917,46.2536631 12.5566309,46.7406238 11.9566257,46.7406238 C11.3566205,46.7406238 10.8696597,46.2536631 10.8696597,45.6536579 C10.8696597,45.0536526 11.3566205,44.5666919 11.9566257,44.5666919 C12.5566309,44.5666919 13.0435917,45.0536526 13.0435917,45.6536579 Z" id="Stroke-9" stroke="#000000"></path>
                <path d="M27,7 L27,20.0747333 C27,24.2776 29.3235,28.1186 33,30" id="Stroke-1" stroke="#00A0F1" stroke-linecap="round"></path>
                <path d="M50,13.375 C50,14.824 48.992,16 47.75,16 L47,16 L47,9 L47.75,9 C48.992,9 50,10.176 50,11.625 L50,13.375 Z" id="Stroke-3" stroke="#00A0F1" stroke-linecap="round"></path>
                <path d="M22.7142857,6.5 L21.2857143,6.5 C18.92,6.5 17,8.682375 17,11.375 L17,14.625 C17,17.316 18.92,19.5 21.2857143,19.5 L22.7142857,19.5 C35.4671429,19.5 40.7,22.741875 47,26 L47,0 C40.7142857,3.25 35.4742857,6.5 22.7142857,6.5 Z" id="Stroke-5" stroke="#00A0F1" stroke-linecap="round"></path>
            </g>
        </g>
    </g>
</svg>