<?xml version="1.0" encoding="UTF-8"?>
<svg width="50px" height="50px" viewBox="0 0 50 50" version="1.1" xmlns="http://www.w3.org/2000/svg" xmlns:xlink="http://www.w3.org/1999/xlink">
    <title>問卷調查</title>
    <g id="Page-1" stroke="none" stroke-width="1" fill="none" fill-rule="evenodd">
        <g id="Artboard" transform="translate(-611.000000, -2733.000000)">
            <g id="問卷調查" transform="translate(611.000000, 2733.000000)">
                <path d="M12.2332315,31.142052 C12.7709479,30.8860487 13.4166395,31.1015181 13.6779395,31.6327249 C13.9392394,32.1617983 13.7168105,32.8018065 13.1812536,33.0599432 C10.4365244,34.3847601 8.73267601,37.0685278 8.73267601,40.0616328 C8.73267601,44.3646212 12.3088141,47.865466 16.7055637,47.865466 C18.4029336,47.865466 20.0247209,47.3491927 21.3938462,46.3742469 C21.873256,46.0307759 22.5513402,46.1374439 22.8990203,46.6153167 C23.2488599,47.0931895 23.1408847,47.7609313 22.6549964,48.1065358 C20.9165959,49.3438849 18.8585889,49.9988267 16.7055637,49.9988267 C11.1189276,49.9988267 6.57317231,45.5401029 6.57317231,40.0616328 C6.57317231,36.2450506 8.74347353,32.8274069 12.2332315,31.142052 Z M36.3918153,31.644245 C36.6660723,31.117305 37.3182424,30.9125023 37.8473208,31.1813058 C41.1859136,32.8709274 43.4296379,36.4400398 43.4296379,40.0624861 C43.4296379,45.5409563 38.8817231,49.9975466 33.2972465,49.9975466 C27.7106105,49.9975466 23.1626957,45.5409563 23.1626957,40.0624861 C23.1626957,39.4715452 23.6464245,38.9958058 24.2424475,38.9958058 C24.8406301,38.9958058 25.3221994,39.4715452 25.3221994,40.0624861 C25.3221994,44.3654745 28.8983375,47.864186 33.2972465,47.864186 C37.6939961,47.864186 41.2701342,44.3654745 41.2701342,40.0624861 C41.2701342,37.2208498 39.4993412,34.4154805 36.8604277,33.0799968 C36.3313492,32.8111933 36.1197179,32.1669184 36.3918153,31.644245 Z M16.7219759,40.5655326 C18.2919351,40.5655326 19.7344836,41.4060767 20.4859908,42.7607607 C20.7732048,43.2770339 20.581009,43.9255756 20.0605686,44.2093125 C19.8942868,44.2989137 19.7172075,44.3415809 19.5401282,44.3415809 C19.1600556,44.3415809 18.7886209,44.141045 18.5921061,43.7869071 C17.8621939,42.4706236 15.6681381,42.4343565 14.8950358,43.7186396 C14.5862267,44.2263794 13.9167806,44.3885148 13.4136162,44.0898444 C12.9018139,43.7869071 12.7333726,43.1340988 13.0378626,42.626359 C13.8066459,41.354876 15.2168018,40.5655326 16.7219759,40.5655326 Z M36.8122707,42.1971268 C37.4082937,42.1971268 37.8920226,42.6749996 37.8920226,43.2638071 C37.8920226,43.8526146 37.4082937,44.3304874 36.8122707,44.3304874 L36.8122707,44.3304874 L30.2214654,44.3304874 C29.6254424,44.3304874 29.1417136,43.8526146 29.1417136,43.2638071 C29.1417136,42.6749996 29.6254424,42.1971268 30.2214654,42.1971268 L30.2214654,42.1971268 Z M19.6770408,36.6096419 C20.3594439,36.6096419 20.9144364,37.1536489 20.9144364,37.8235241 C20.9144364,38.4933994 20.3594439,39.0374063 19.6770408,39.0374063 C18.9924781,39.0374063 18.4374856,38.4933994 18.4374856,37.8235241 C18.4374856,37.1536489 18.9924781,36.6096419 19.6770408,36.6096419 Z M36.2678598,36.6096419 C36.950263,36.6096419 37.5052555,37.1536489 37.5052555,37.8235241 C37.5052555,38.4933994 36.950263,39.0374063 36.2678598,39.0374063 C35.5832972,39.0374063 35.0283047,38.4933994 35.0283047,37.8235241 C35.0283047,37.1536489 35.5832972,36.6096419 36.2678598,36.6096419 Z M13.8085895,36.6092153 C14.4931521,36.6092153 15.0481446,37.1532222 15.0481446,37.8230975 C15.0481446,38.4929727 14.4931521,39.0369797 13.8085895,39.0369797 C13.1240268,39.0369797 12.5711938,38.4929727 12.5711938,37.8230975 C12.5711938,37.1532222 13.1240268,36.6092153 13.8085895,36.6092153 Z M30.3987607,36.6090019 C31.0833234,36.6090019 31.6383158,37.1530089 31.6383158,37.8228841 C31.6383158,38.4948927 31.0833234,39.0367663 30.3987607,39.0367663 C29.7163575,39.0367663 29.1613651,38.4948927 29.1613651,37.8228841 C29.1613651,37.1530089 29.7163575,36.6090019 30.3987607,36.6090019 Z M25.1053852,16.0082049 C30.6920213,16.0082049 35.2377766,20.4647953 35.2377766,25.9432654 C35.2377766,31.4238689 30.6920213,35.8804593 25.1053852,35.8804593 C19.5187491,35.8804593 14.9729939,31.4238689 14.9729939,25.9432654 C14.9729939,20.4647953 19.5187491,16.0082049 25.1053852,16.0082049 Z M25.1053852,18.1415655 C20.7086357,18.1415655 17.1324976,21.640277 17.1324976,25.9432654 C17.1324976,30.2462538 20.7086357,33.7470986 25.1053852,33.7470986 C29.5021347,33.7470986 33.0782729,30.2462538 33.0782729,25.9432654 C33.0782729,21.640277 29.5021347,18.1415655 25.1053852,18.1415655 Z M27.5575017,26.8350102 C27.8468752,26.3166035 28.5076833,26.1310011 29.0238047,26.4126047 C29.5464046,26.6963417 29.7386004,27.3448833 29.4513864,27.8611566 C28.5854254,29.4206433 26.9247671,30.389189 25.1172625,30.389189 C23.3853405,30.389189 21.7592342,29.4803773 20.8738377,28.0168919 C20.5671882,27.5112855 20.7356295,26.8563438 21.2452723,26.5534066 C21.7592342,26.2526027 22.4200424,26.4147381 22.7288514,26.9224779 C23.2233777,27.7459551 24.1411668,28.2558283 25.1172625,28.2558283 C26.1365482,28.2558283 27.0716133,27.7118214 27.5575017,26.8350102 Z M22.2077631,22.4921279 C22.8923258,22.4921279 23.4473183,23.0361349 23.4473183,23.7060101 C23.4473183,24.3758853 22.8923258,24.9198923 22.2077631,24.9198923 C21.52536,24.9198923 20.9703675,24.3758853 20.9703675,23.7060101 C20.9703675,23.0361349 21.52536,22.4921279 22.2077631,22.4921279 Z M28.0768623,22.4921279 C28.7592655,22.4921279 29.3142579,23.0361349 29.3142579,23.7060101 C29.3142579,24.3758853 28.7592655,24.9198923 28.0768623,24.9198923 C27.3922996,24.9198923 26.8373072,24.3758853 26.8373072,23.7060101 C26.8373072,23.0361349 27.3922996,22.4921279 28.0768623,22.4921279 Z" id="Combined-Shape" fill="#040000"></path>
                <path d="M42.9761421,7.6507646 C42.7191612,7.89610107 42.602548,8.25023894 42.6608546,8.59797672 L43.0236512,10.6694699 L41.1168094,9.68599065 C40.9591657,9.6070563 40.7864054,9.56438909 40.6158046,9.56438909 C40.4452038,9.56438909 40.2724435,9.6070563 40.1169592,9.68599065 L38.207958,10.6694699 L38.5707546,8.59797672 C38.6290612,8.25023894 38.5146075,7.89610107 38.255467,7.6507646 L36.7286979,6.19154592 L38.8493306,5.89074207 C39.1991702,5.84167477 39.5058197,5.62407199 39.661304,5.31046797 L40.6158046,3.41391036 L41.5746242,5.31046797 C41.732268,5.62407199 42.0345985,5.84167477 42.3865976,5.89074207 L44.5029112,6.19154592 L42.9761421,7.6507646 Z M47.8652585,5.11846552 C47.7378478,4.73019388 47.3988057,4.44859028 46.9906595,4.39098954 L43.2547181,3.85978274 L41.5811027,0.542406943 C41.2204656,-0.180802314 40.0133031,-0.180802314 39.6505064,0.542406943 L37.9812101,3.85978274 L34.2409497,4.39098954 C33.834963,4.44859028 33.4937614,4.73019388 33.3685102,5.11846552 C33.2410995,5.50673715 33.3490746,5.93127592 33.6449266,6.21287952 L36.3443063,8.79211254 L35.7072527,12.4316258 C35.6381486,12.8305642 35.8044303,13.2337694 36.1348344,13.4727058 C36.463079,13.7116422 36.9014582,13.7457759 37.2707334,13.5580402 L40.6158046,11.8342848 L43.9608758,13.5580402 C44.1185196,13.6391079 44.2891204,13.6796418 44.4597212,13.6796418 C44.6864691,13.6796418 44.9110574,13.6092409 45.0967748,13.4727058 C45.4293383,13.2337694 45.5956201,12.8305642 45.526516,12.4316258 L44.8894624,8.79211254 L47.588842,6.21287952 C47.8825345,5.93127592 47.9905097,5.50673715 47.8652585,5.11846552 L47.8652585,5.11846552 Z" id="Fill-5" fill="#00A0F1"></path>
                <path d="M27.6603387,7.6507646 C27.4033577,7.89610107 27.2867445,8.25023894 27.3450511,8.59797672 L27.7078478,10.6694699 L25.801006,9.68599065 C25.6433622,9.6070563 25.4706019,9.56438909 25.3000011,9.56438909 C25.1294003,9.56438909 24.9566401,9.6070563 24.8011558,9.68599065 L22.8921545,10.6694699 L23.2549511,8.59797672 C23.3132577,8.25023894 23.198804,7.89610107 22.9396636,7.6507646 L21.4128945,6.19154592 L23.5335271,5.89074207 C23.8833667,5.84167477 24.1900162,5.62407199 24.3455005,5.31046797 L25.3000011,3.41391036 L26.2588208,5.31046797 C26.4164646,5.62407199 26.7187951,5.84167477 27.0707942,5.89074207 L29.1871078,6.19154592 L27.6603387,7.6507646 Z M32.5494551,5.11846552 C32.4220443,4.73019388 32.0830023,4.44859028 31.6748561,4.39098954 L27.9389147,3.85978274 L26.2652993,0.542406943 C25.9046622,-0.180802314 24.6974996,-0.180802314 24.334703,0.542406943 L22.6654066,3.85978274 L18.9251462,4.39098954 C18.5191595,4.44859028 18.1779579,4.73019388 18.0527067,5.11846552 C17.925296,5.50673715 18.0332712,5.93127592 18.3291232,6.21287952 L21.0285028,8.79211254 L20.3914492,12.4316258 C20.3223451,12.8305642 20.4886269,13.2337694 20.819031,13.4727058 C21.1472755,13.7116422 21.5856548,13.7457759 21.9549299,13.5580402 L25.3000011,11.8342848 L28.6450724,13.5580402 C28.8027161,13.6391079 28.9733169,13.6796418 29.1439177,13.6796418 C29.3706656,13.6796418 29.595254,13.6092409 29.7809713,13.4727058 C30.1135349,13.2337694 30.2798167,12.8305642 30.2107126,12.4316258 L29.573659,8.79211254 L32.2730386,6.21287952 C32.5667311,5.93127592 32.6747063,5.50673715 32.5494551,5.11846552 L32.5494551,5.11846552 Z" id="Fill-5" fill="#00A0F1"></path>
                <path d="M11.6603387,7.6507646 C11.4033577,7.89610107 11.2867445,8.25023894 11.3450511,8.59797672 L11.7078478,10.6694699 L9.801006,9.68599065 C9.64336223,9.6070563 9.47060193,9.56438909 9.30000114,9.56438909 C9.12940035,9.56438909 8.95664005,9.6070563 8.80115579,9.68599065 L6.89215451,10.6694699 L7.25495114,8.59797672 C7.31325774,8.25023894 7.19880404,7.89610107 6.9396636,7.6507646 L5.41289448,6.19154592 L7.53352711,5.89074207 C7.88336671,5.84167477 8.19001624,5.62407199 8.3455005,5.31046797 L9.30000114,3.41391036 L10.2588208,5.31046797 C10.4164646,5.62407199 10.7187951,5.84167477 11.0707942,5.89074207 L13.1871078,6.19154592 L11.6603387,7.6507646 Z M16.5494551,5.11846552 C16.4220443,4.73019388 16.0830023,4.44859028 15.6748561,4.39098954 L11.9389147,3.85978274 L10.2652993,0.542406943 C9.90466218,-0.180802314 8.69749961,-0.180802314 8.33470299,0.542406943 L6.66540663,3.85978274 L2.92514622,4.39098954 C2.51915952,4.44859028 2.17795794,4.73019388 2.05270672,5.11846552 C1.925296,5.50673715 2.03327119,5.93127592 2.3291232,6.21287952 L5.02850282,8.79211254 L4.39144923,12.4316258 C4.32234511,12.8305642 4.4886269,13.2337694 4.81903096,13.4727058 C5.14727553,13.7116422 5.58565478,13.7457759 5.95492991,13.5580402 L9.30000114,11.8342848 L12.6450724,13.5580402 C12.8027161,13.6391079 12.9733169,13.6796418 13.1439177,13.6796418 C13.3706656,13.6796418 13.595254,13.6092409 13.7809713,13.4727058 C14.1135349,13.2337694 14.2798167,12.8305642 14.2107126,12.4316258 L13.573659,8.79211254 L16.2730386,6.21287952 C16.5667311,5.93127592 16.6747063,5.50673715 16.5494551,5.11846552 L16.5494551,5.11846552 Z" id="Fill-5" fill="#00A0F1"></path>
                <rect id="Rectangle" x="0" y="0" width="50" height="50"></rect>
            </g>
        </g>
    </g>
</svg>