<?xml version="1.0" encoding="UTF-8"?>
<svg width="52px" height="52px" viewBox="0 0 52 52" version="1.1" xmlns="http://www.w3.org/2000/svg" xmlns:xlink="http://www.w3.org/1999/xlink">
    <title>智慧巡檢</title>
    <g id="Page-1" stroke="none" stroke-width="1" fill="none" fill-rule="evenodd" stroke-linejoin="round">
        <g id="Artboard" transform="translate(-1608.000000, -2729.000000)" stroke-width="2">
            <g id="智慧巡檢" transform="translate(1609.000000, 2730.000000)">
                <path d="M10.0739504,32 L4.51191028,32 C2.02005104,32 -3.05164745e-16,34.020051 0,36.5119103 C3.05164745e-16,39.0037695 2.02005104,41.0238206 4.51191028,41.0238206 L45.5119103,41.0238206 C47.9906138,41.0238206 50,43.0332068 50,45.5119103 C50,47.9906138 47.9906138,50 45.5119103,50 L8.81503218,50 L8.81503218,50" id="Path-31" stroke="#00A0F1" stroke-linecap="round"></path>
                <path d="M26,-1.52766688e-13 C33.7319865,-1.52766688e-13 40,6.20175761 40,13.8520133 C40,19.2419662 33.0506198,27.0381297 28.9441679,31.1744463 L28.555973,31.5631063 C27.0413223,33.0704167 26,34 26,34 C26,34 24.9586777,33.0704167 23.444027,31.5631063 L23.0558321,31.1744463 C18.9493802,27.0381297 12,19.2419662 12,13.8520133 C12,6.20175761 18.2680135,-1.52766688e-13 26,-1.52766688e-13 Z M26,7.91543618 C22.6862915,7.91543618 20,10.5733323 20,13.8520133 C20,17.1306943 22.6862915,19.7885905 26,19.7885905 C29.3137085,19.7885905 32,17.1306943 32,13.8520133 C32,10.5733323 29.3137085,7.91543618 26,7.91543618 Z" id="Combined-Shape" stroke="#000000"></path>
            </g>
        </g>
    </g>
</svg>