<?xml version="1.0" encoding="UTF-8"?>
<svg width="52px" height="52px" viewBox="0 0 52 52" version="1.1" xmlns="http://www.w3.org/2000/svg" xmlns:xlink="http://www.w3.org/1999/xlink">
    <title>活動管理</title>
    <g id="Page-1" stroke="none" stroke-width="1" fill="none" fill-rule="evenodd" stroke-linecap="round" stroke-linejoin="round">
        <g id="Artboard" transform="translate(-1472.000000, -2734.000000)" stroke-width="2">
            <g id="活動管理" transform="translate(1473.000000, 2735.000000)">
                <path d="M21.9136817,12.61815 L21.9136817,4.24145072 C21.9136817,2.52008992 23.3085987,1.12397338 25.0284805,1.12397338 L46.0804527,1.12397338 C47.8003345,1.12397338 49.1952515,2.52008992 49.1952515,4.24145072 L49.1952515,21.731627 C49.1952515,23.4529878 47.8003345,24.8491044 46.0804527,24.8491044 L25.0284805,24.8491044 C23.3085987,24.8491044 21.9136817,23.4529878 21.9136817,21.731627 L21.9136817,18.4570589" id="Stroke-5" stroke="#00A0F1"></path>
                <line x1="26.9871119" y1="7.02793118" x2="43.3679913" y2="7.02793118" id="Stroke-7" stroke="#00A0F1"></line>
                <line x1="33.8633232" y1="12.61815" x2="43.3690967" y2="12.61815" id="Stroke-9" stroke="#00A0F1"></line>
                <line x1="33.8633232" y1="18.4566164" x2="43.3690967" y2="18.4566164" id="Stroke-11" stroke="#00A0F1"></line>
                <path d="M10.4010847,12.61815 L10.4010847,12.61815 C6.91931883,12.61815 4.09853582,9.79272869 4.09853582,6.31018125 L4.09853582,6.31018125 C4.09853582,2.82542127 6.91931883,0 10.4010847,0 L10.4010847,0 C13.8828506,0 16.7036336,2.82542127 16.7036336,6.31018125 L16.7036336,6.31018125 C16.7036336,9.79272869 13.8828506,12.61815 10.4010847,12.61815 Z" id="Stroke-1" stroke="#000000"></path>
                <path d="M10.4010847,16.5971927 L7.18459623,14.6036888 C4.90984253,13.1942969 1.91883985,13.988601 0.638876403,16.3405374 L0.638876403,16.3405374 C0.221064499,17.1105034 0,17.9756089 0,18.8517771 L0,28.7529206 C0,30.1578873 0.433286419,31.5296658 1.2379612,32.6801897 L2.99542396,35.1958546 L2.99542396,47.2409551 C2.99542396,48.7653993 4.22896387,50 5.75209827,50 L5.75209827,50 C7.27302203,50 8.50656193,48.7653993 8.50656193,47.2409551 L8.50656193,36.7844626 L12.2956074,36.7844626 L12.2956074,47.2409551 C12.2956074,48.7653993 13.5291474,50 15.0500711,50 L15.2556611,50 C16.7765848,50 18.0101248,48.7653993 18.0101248,47.2409551 L18.0101248,18.4557314 L28.1967769,18.4557314 C29.8061264,18.4557314 31.1126176,17.1503292 31.1126176,15.5373832 L31.1126176,15.5373832 C31.1126176,13.9244371 29.8061264,12.619035 28.1967769,12.619035 L17.7271622,12.619035 L10.4010847,16.5971927 Z" id="Stroke-3" stroke="#000000"></path>
                <path d="M29.5454545,38.6363636 L29.5454545,38.6363636 C27.0343434,38.6363636 25,36.6020202 25,34.0909091 L25,34.0909091 C25,31.5818182 27.0343434,29.5454545 29.5454545,29.5454545 L29.5454545,29.5454545 C32.0565657,29.5454545 34.0909091,31.5818182 34.0909091,34.0909091 L34.0909091,34.0909091 C34.0909091,36.6020202 32.0565657,38.6363636 29.5454545,38.6363636 Z" id="Stroke-13" stroke="#000000"></path>
                <path d="M43.1818182,38.6363636 L43.1818182,38.6363636 C40.6707071,38.6363636 38.6363636,36.6020202 38.6363636,34.0909091 L38.6363636,34.0909091 C38.6363636,31.5818182 40.6707071,29.5454545 43.1818182,29.5454545 L43.1818182,29.5454545 C45.6929293,29.5454545 47.7272727,31.5818182 47.7272727,34.0909091 L47.7272727,34.0909091 C47.7272727,36.6020202 45.6929293,38.6363636 43.1818182,38.6363636 Z" id="Stroke-15" stroke="#000000"></path>
                <path d="M47.9990311,50 L38.3646052,50 C37.2586667,50 36.3636364,48.9628427 36.3636364,47.6858684 L36.3636364,46.5236783 C36.3636364,42.1680277 39.4156013,38.6363636 43.1818182,38.6363636 L43.1818182,38.6363636 C46.9480351,38.6363636 50,42.1680277 50,46.5236783 L50,47.6858684 C50,48.9628427 49.1049696,50 47.9990311,50 Z" id="Stroke-17" stroke="#000000"></path>
                <path d="M36.3636364,49.0795438 C35.9874356,49.6391976 35.3902626,50 34.7163885,50 L24.7890719,50 C23.6513386,50 22.7272727,48.964743 22.7272727,47.6855344 L22.7272727,46.5231766 C22.7272727,44.9282659 23.1491289,43.446106 23.8723109,42.2058476" id="Stroke-19" stroke="#000000"></path>
                <path d="M25.4771905,40.2640746 C26.6624055,39.2431677 28.1434676,38.6363636 29.752365,38.6363636 L29.7541912,38.6363636 C32.754666,38.6363636 35.3168487,40.7478778 36.3230943,43.7224478" id="Stroke-21" stroke="#000000"></path>
            </g>
        </g>
    </g>
</svg>