<?xml version="1.0" encoding="UTF-8"?>
<svg width="52px" height="52px" viewBox="0 0 52 52" version="1.1" xmlns="http://www.w3.org/2000/svg" xmlns:xlink="http://www.w3.org/1999/xlink">
    <title>物業維修</title>
    <g id="Page-1" stroke="none" stroke-width="1" fill="none" fill-rule="evenodd">
        <g id="Artboard" transform="translate(-1736.000000, -2729.000000)">
            <g id="物業維修" transform="translate(1737.000000, 2730.000000)">
                <path d="M25.0913043,42.6118205 L4.34782609,42.6118205 C1.95,42.6118205 0,40.4930661 0,37.8771738 L0,4.73464672 C0,2.11875441 1.95,0 4.34782609,0 L45.6521739,0 C48.0565217,0 50,2.11875441 50,4.73464672 L50,22.5937342" id="Stroke-27" stroke="#000000" stroke-width="2" stroke-linecap="round" stroke-linejoin="round"></path>
                <line x1="0" y1="11.8366168" x2="50" y2="11.8366168" id="Stroke-29" stroke="#000000" stroke-width="2" stroke-linecap="round" stroke-linejoin="round"></line>
                <path d="M8.69565217,5.91830841 C8.69565217,6.57168965 8.20869565,7.10197009 7.60869565,7.10197009 C7.00869565,7.10197009 6.52173913,6.57168965 6.52173913,5.91830841 C6.52173913,5.26492716 7.00869565,4.73464672 7.60869565,4.73464672 C8.20869565,4.73464672 8.69565217,5.26492716 8.69565217,5.91830841" id="Fill-31" fill="#000000"></path>
                <path d="M15.2173913,5.91830841 C15.2173913,6.57168965 14.7304348,7.10197009 14.1304348,7.10197009 C13.5304348,7.10197009 13.0434783,6.57168965 13.0434783,5.91830841 C13.0434783,5.26492716 13.5304348,4.73464672 14.1304348,4.73464672 C14.7304348,4.73464672 15.2173913,5.26492716 15.2173913,5.91830841" id="Fill-33" fill="#000000"></path>
                <path d="M21.7391304,5.91830841 C21.7391304,6.57168965 21.2521739,7.10197009 20.6521739,7.10197009 C20.0521739,7.10197009 19.5652174,6.57168965 19.5652174,5.91830841 C19.5652174,5.26492716 20.0521739,4.73464672 20.6521739,4.73464672 C21.2521739,4.73464672 21.7391304,5.26492716 21.7391304,5.91830841" id="Fill-35" fill="#000000"></path>
                <line x1="39.1304348" y1="18.9385869" x2="17.3913043" y2="18.9385869" id="Stroke-37" stroke="#000000" stroke-width="2" stroke-linecap="round" stroke-linejoin="round"></line>
                <line x1="8.69565217" y1="18.9385869" x2="10.8695652" y2="18.9385869" id="Stroke-39" stroke="#000000" stroke-width="2" stroke-linecap="round" stroke-linejoin="round"></line>
                <line x1="22.3913043" y1="26.040557" x2="17.3913043" y2="26.040557" id="Stroke-41" stroke="#000000" stroke-width="2" stroke-linecap="round" stroke-linejoin="round"></line>
                <line x1="8.69565217" y1="26.040557" x2="10.8695652" y2="26.040557" id="Stroke-43" stroke="#000000" stroke-width="2" stroke-linecap="round" stroke-linejoin="round"></line>
                <line x1="22.3913043" y1="33.1425271" x2="17.3913043" y2="33.1425271" id="Stroke-45" stroke="#000000" stroke-width="2" stroke-linecap="round" stroke-linejoin="round"></line>
                <line x1="8.69565217" y1="33.1425271" x2="10.8695652" y2="33.1425271" id="Stroke-47" stroke="#000000" stroke-width="2" stroke-linecap="round" stroke-linejoin="round"></line>
                <g id="Group-8" transform="translate(26.000000, 27.000000)" stroke="#00A0F1" stroke-linejoin="round" stroke-width="2">
                    <path d="M3.52369668,22.5664649 C2.94549763,23.1445117 2.00947867,23.1445117 1.43364929,22.5664649 C0.855450237,21.990787 0.855450237,21.0550145 1.43364929,20.4769676 L7.90995261,14 L10,16.0918663 L3.52369668,22.5664649 Z" id="Stroke-23"></path>
                    <line x1="20" y1="4" x2="9" y2="15" id="Stroke-27"></line>
                    <polygon id="Stroke-29" points="21.453505 5 19 2.49269006 22.5121602 0 24 1.52046784"></polygon>
                    <path d="M12,9.76216479 L8.06597314,5.83396928 C8.71491082,4.30507623 8.416955,2.47090915 7.16958063,1.22710672 C5.92473131,-0.0166957157 4.16982202,-0.314400963 2.63711708,0.331468048 L4.60160546,2.544074 L4.60160546,4.64314829 L2.50076442,4.64314829 L0.33174704,2.63489933 C-0.314665589,4.16379238 -0.0167097682,5.95506972 1.22813955,7.20139508 C2.47551392,8.44772044 4.31122479,8.72524228 5.83887963,8.07685034 L9.77290649,12" id="Stroke-31"></path>
                    <path d="M12,14.0413858 L15.9359925,17.6496856 C15.2871471,19.0522704 15.5850606,20.7325948 16.8322577,21.875956 C18.0769301,23.0170027 19.9098554,23.2877988 21.4423426,22.6952877 L19.3039297,20.6654744 L19.3039297,18.7398134 L21.4044722,18.7398134 L23.6665949,20.6539019 C24.3154404,19.2513171 24.0175269,17.5709928 22.7703298,16.4299461 C21.5256574,15.2865848 19.692732,15.0134743 18.1627696,15.6082998 L14.2293017,12" id="Stroke-33"></path>
                </g>
            </g>
        </g>
    </g>
</svg>