<?xml version="1.0" encoding="UTF-8"?>
<svg width="52px" height="52px" viewBox="0 0 52 52" version="1.1" xmlns="http://www.w3.org/2000/svg" xmlns:xlink="http://www.w3.org/1999/xlink">
    <title>產權管理</title>
    <g id="Page-1" stroke="none" stroke-width="1" fill="none" fill-rule="evenodd">
        <g id="Artboard" transform="translate(-752.000000, -2736.000000)">
            <g id="產權管理" transform="translate(753.000000, 2737.000000)">
                <path d="M21.9712403,40.817625 L3.80718078,40.817625 C1.70561699,40.817625 0,38.7858143 0,36.2823333 L0,4.53529167 C0,2.02954302 1.70561699,0 3.80718078,0 L39.9753982,0 C42.0788656,0 43.782579,2.02954302 43.782579,4.53529167 L43.782579,21.6424118" id="Stroke-1" stroke="#000000" stroke-width="2" stroke-linecap="round" stroke-linejoin="round"></path>
                <line x1="0" y1="10.4123034" x2="43.782579" y2="10.4123034" id="Stroke-3" stroke="#000000" stroke-width="2" stroke-linecap="round" stroke-linejoin="round"></line>
                <path d="M8.13610069,5.20615171 C8.13610069,5.78091086 7.68047905,6.24738205 7.11908811,6.24738205 C6.55769716,6.24738205 6.10207552,5.78091086 6.10207552,5.20615171 C6.10207552,4.63139256 6.55769716,4.16492137 7.11908811,4.16492137 C7.68047905,4.16492137 8.13610069,4.63139256 8.13610069,5.20615171" id="Fill-5" fill="#000000"></path>
                <path d="M14.2381762,5.20615171 C14.2381762,5.78091086 13.7825546,6.24738205 13.2211636,6.24738205 C12.6597727,6.24738205 12.204151,5.78091086 12.204151,5.20615171 C12.204151,4.63139256 12.6597727,4.16492137 13.2211636,4.16492137 C13.7825546,4.16492137 14.2381762,4.63139256 14.2381762,5.20615171" id="Fill-7" fill="#000000"></path>
                <path d="M20.3402517,5.20615171 C20.3402517,5.78091086 19.8846301,6.24738205 19.3232391,6.24738205 C18.7618482,6.24738205 18.3062266,5.78091086 18.3062266,5.20615171 C18.3062266,4.63139256 18.7618482,4.16492137 19.3232391,4.16492137 C19.8846301,4.16492137 20.3402517,4.63139256 20.3402517,5.20615171" id="Fill-9" fill="#000000"></path>
                <line x1="36.6124531" y1="18.8263521" x2="16.2722014" y2="18.8263521" id="Stroke-11" stroke="#000000" stroke-width="2" stroke-linecap="round" stroke-linejoin="round"></line>
                <line x1="8.13610069" y1="18.8263521" x2="10.1701259" y2="18.8263521" id="Stroke-13" stroke="#000000" stroke-width="2" stroke-linecap="round" stroke-linejoin="round"></line>
                <line x1="24.4083021" y1="25.0737342" x2="16.2722014" y2="25.0737342" id="Stroke-15" stroke="#000000" stroke-width="2" stroke-linecap="round" stroke-linejoin="round"></line>
                <line x1="8.13610069" y1="25.0737342" x2="10.1701259" y2="25.0737342" id="Stroke-17" stroke="#000000" stroke-width="2" stroke-linecap="round" stroke-linejoin="round"></line>
                <line x1="24.4083021" y1="31.3211162" x2="16.2722014" y2="31.3211162" id="Stroke-19" stroke="#000000" stroke-width="2" stroke-linecap="round" stroke-linejoin="round"></line>
                <line x1="8.13610069" y1="31.3211162" x2="10.1701259" y2="31.3211162" id="Stroke-21" stroke="#000000" stroke-width="2" stroke-linecap="round" stroke-linejoin="round"></line>
                <path d="M35.7577557,29.7209979 C34.7407432,30.1083356 33.6952542,30.6893421 32.8531678,31.4265332 L30.6259102,30.1145829 L27.5728384,35.5248158 L29.7878919,36.8388485 C29.6902586,37.392783 29.6272039,37.9612948 29.6272039,38.5464662 C29.6272039,39.1337202 29.6882246,39.7022319 29.7858578,40.2561665 L27.5687704,41.5681167 L30.6198082,46.9783495 L32.8531678,45.6663993 C33.6952542,46.4077553 34.7407432,46.9866794 35.7577557,47.3740171 L35.7577557,50 L41.8598313,50 L41.8598313,47.3740171 C42.8768438,46.9866794 43.8938564,46.4077553 44.7379769,45.6663993 L46.9509963,46.9783495 L50,41.5681167 L47.7768105,40.2561665 C47.8785117,39.7022319 47.9334304,39.1337202 47.9334304,38.5464662 C47.9334304,37.9612948 47.8764777,37.392783 47.7747765,36.8388485 L49.9959319,35.5248158 L46.9448942,30.1145829 L44.7379769,31.4265332 C43.8938564,30.6893421 42.8768438,30.1083356 41.8598313,29.7209979 L41.8598313,27.0929325 L35.7577557,27.0929325 L35.7577557,29.7209979 Z" id="Stroke-23" stroke="#00A0F1" stroke-width="2" stroke-linejoin="round"></path>
                <path d="M42.8489777,38.547091 C42.8489777,40.84821 41.0285252,42.7120123 38.7809274,42.7120123 C36.5333295,42.7120123 34.712877,40.84821 34.712877,38.547091 C34.712877,36.2459719 36.5333295,34.3821696 38.7809274,34.3821696 C41.0285252,34.3821696 42.8489777,36.2459719 42.8489777,38.547091 Z" id="Stroke-25" stroke="#00A0F1" stroke-width="2" stroke-linejoin="round"></path>
            </g>
        </g>
    </g>
</svg>