<?xml version="1.0" encoding="UTF-8"?>
<svg width="52px" height="52px" viewBox="0 0 52 52" version="1.1" xmlns="http://www.w3.org/2000/svg" xmlns:xlink="http://www.w3.org/1999/xlink">
    <title>簽呈系統</title>
    <g id="Page-1" stroke="none" stroke-width="1" fill="none" fill-rule="evenodd" stroke-linecap="round" stroke-linejoin="round">
        <g id="Artboard" transform="translate(-1408.000000, -2734.000000)" stroke-width="2">
            <g id="簽呈系統" transform="translate(1409.000000, 2735.000000)">
                <line x1="7.53870581" y1="17.0309261" x2="34.8938672" y2="17.0309261" id="Stroke-1" stroke="#000000"></line>
                <line x1="7.53870581" y1="21.5918988" x2="34.8938672" y2="21.5918988" id="Stroke-2" stroke="#000000"></line>
                <line x1="7.53870581" y1="26.1530891" x2="34.8938672" y2="26.1530891" id="Stroke-3" stroke="#000000"></line>
                <path d="M5.15394352,40.3650868 L8.40444457,38.6450332 C9.14826112,38.2509449 10.0353818,38.8649388 9.87388032,39.6640017 L9.09821842,43.5243246 C8.8912236,44.5476477 10.1081712,45.2792148 10.9839185,44.6586891 L13.3200029,42.9974221 C14.0729181,42.4639877 15.1351882,42.612043 15.6970313,43.3305464 L16.3862558,44.2145233 C16.9117042,44.8851265 17.9375796,44.9482678 18.544916,44.3451603 L19.6208341,43.2826462 C20.3692,42.5423699 21.5406542,42.36601 22.4891909,42.8515441 L26.5904179,44.9439132" id="Stroke-4" stroke="#000000"></path>
                <path d="M13.1091411,0 L13.1091411,9.07491596 C13.1091411,10.8102106 11.6397054,12.2167355 9.82906935,12.2167355 L0.000227466834,12.2167355" id="Stroke-8" stroke="#000000"></path>
                <path d="M41.7697347,32.2224835 L41.7697347,45.6889795 C41.7697347,48.0687499 39.7543785,50 37.2658914,50 L4.50156864,50 C2.01535615,50 0,48.0687499 0,45.6889795 L0,12.2023654 L13.1089136,0.00087091324 L37.2658914,0.00087091324 C39.7543785,0.00087091324 41.7697347,1.92994374 41.7697347,4.30971417 L41.7697347,20.0536483" id="Stroke-12" stroke="#000000"></path>
                <path d="M36.222501,41.7328561 L30.5904222,44.9443486 L30.8201637,38.8261831 L43.2535008,17.5105816 C44.0883041,16.0779293 45.9808282,15.5662678 47.4775599,16.3718625 L47.4775599,16.3718625 C48.965193,17.1731027 49.4974654,18.9758931 48.6649368,20.4020136 L36.222501,41.7328561 Z" id="Stroke-6" stroke="#00A0F1"></path>
                <path d="M47.4716458,22.4471356 L47.4716458,22.4471356 C49.8168289,23.6315776 50.6903015,26.4272091 49.4096632,28.6480378 L46.2228529,34.1739823" id="Stroke-10" stroke="#00A0F1"></path>
            </g>
        </g>
    </g>
</svg>