<?xml version="1.0" encoding="UTF-8"?>
<svg width="52px" height="52px" viewBox="0 0 52 52" version="1.1" xmlns="http://www.w3.org/2000/svg" xmlns:xlink="http://www.w3.org/1999/xlink">
    <title>線上數據</title>
    <g id="Page-1" stroke="none" stroke-width="1" fill="none" fill-rule="evenodd" stroke-linejoin="round">
        <g id="Artboard" transform="translate(-1131.000000, -2732.000000)" stroke-width="2">
            <g id="線上數據" transform="translate(1132.000000, 2733.000000)">
                <path d="M43.4782609,13.973913 C43.4782609,9.63043478 39.7673913,6.05869565 35.1565217,6.22608696 C33.3521739,2.54782609 29.4869565,0 25,0 C19.0130435,0 14.1347826,4.5173913 13.7869565,10.2152174 C10.0369565,9.46086957 6.52173913,12.2195652 6.52173913,15.9152174 C6.52173913,21.8282609 12.9478261,21.7392068 12.9478261,21.7392068 L36.2478261,21.7392068 C36.2478261,21.7392068 43.4782609,20.826087 43.4782609,13.973913 Z" id="Stroke-1" stroke="#00A0F1"></path>
                <polygon id="Stroke-3" stroke="#000000" points="0 39.131087 50 39.131087 50 28.2615217 0 28.2615217"></polygon>
                <polygon id="Stroke-5" stroke="#000000" points="0 50.0006522 50 50.0006522 50 39.131087 0 39.131087"></polygon>
                <path d="M9.7826087,33.6963043 C9.7826087,34.8941304 8.81086957,35.8702174 7.60869565,35.8702174 C6.40652174,35.8702174 5.43478261,34.8941304 5.43478261,33.6963043 C5.43478261,32.4941304 6.40652174,31.5223913 7.60869565,31.5223913 C8.81086957,31.5223913 9.7826087,32.4941304 9.7826087,33.6963043 Z" id="Stroke-6" stroke="#000000"></path>
                <path d="M43.4782609,33.6963043 C43.4782609,34.2941304 42.9891304,34.7832609 42.3913043,34.7832609 C41.7913043,34.7832609 41.3043478,34.2941304 41.3043478,33.6963043 C41.3043478,33.0941304 41.7913043,32.6093478 42.3913043,32.6093478 C42.9891304,32.6093478 43.4782609,33.0941304 43.4782609,33.6963043 Z" id="Stroke-7" stroke="#000000"></path>
                <path d="M36.9565217,33.6963043 C36.9565217,34.2941304 36.4673913,34.7832609 35.8695652,34.7832609 C35.2695652,34.7832609 34.7826087,34.2941304 34.7826087,33.6963043 C34.7826087,33.0941304 35.2695652,32.6093478 35.8695652,32.6093478 C36.4673913,32.6093478 36.9565217,33.0941304 36.9565217,33.6963043 Z" id="Stroke-8" stroke="#000000"></path>
                <path d="M9.7826087,44.5658696 C9.7826087,45.7636957 8.81086957,46.7397826 7.60869565,46.7397826 C6.40652174,46.7397826 5.43478261,45.7636957 5.43478261,44.5658696 C5.43478261,43.3636957 6.40652174,42.3919565 7.60869565,42.3919565 C8.81086957,42.3919565 9.7826087,43.3636957 9.7826087,44.5658696 Z" id="Stroke-9" stroke="#000000"></path>
                <path d="M43.4782609,44.5658696 C43.4782609,45.1636957 42.9891304,45.6528261 42.3913043,45.6528261 C41.7913043,45.6528261 41.3043478,45.1636957 41.3043478,44.5658696 C41.3043478,43.9636957 41.7913043,43.478913 42.3913043,43.478913 C42.9891304,43.478913 43.4782609,43.9636957 43.4782609,44.5658696 Z" id="Stroke-10" stroke="#000000"></path>
                <path d="M36.9565217,44.5658696 C36.9565217,45.1636957 36.4673913,45.6528261 35.8695652,45.6528261 C35.2695652,45.6528261 34.7826087,45.1636957 34.7826087,44.5658696 C34.7826087,43.9636957 35.2695652,43.478913 35.8695652,43.478913 C36.4673913,43.478913 36.9565217,43.9636957 36.9565217,44.5658696 Z" id="Stroke-11" stroke="#000000"></path>
            </g>
        </g>
    </g>
</svg>