<?xml version="1.0" encoding="UTF-8"?>
<svg width="52px" height="51px" viewBox="0 0 52 51" version="1.1" xmlns="http://www.w3.org/2000/svg" xmlns:xlink="http://www.w3.org/1999/xlink">
    <title>線上繳費</title>
    <g id="Page-1" stroke="none" stroke-width="1" fill="none" fill-rule="evenodd" stroke-linecap="round" stroke-linejoin="round">
        <g id="Artboard" transform="translate(-1264.000000, -2732.000000)" stroke-width="2">
            <g id="線上繳費" transform="translate(1265.000000, 2733.000000)">
                <path d="M5.93594477,10 L2.1733023,10 C0.977283673,10 0,10.976 0,12.166 L0,40.334 C0,41.524 0.977283673,42.5 2.1733023,42.5 L47.8266977,42.5 C49.0247231,42.5 50,41.524 50,40.334 L50,12.166 C50,10.976 49.0247231,10 47.8266977,10 L44.0640552,10" id="Stroke-1" stroke="#000000"></path>
                <line x1="14.1300771" y1="49" x2="35.8691202" y2="49" id="Stroke-3" stroke="#000000"></line>
                <line x1="21.7390432" y1="42.5" x2="21.7390432" y2="49" id="Stroke-5" stroke="#000000"></line>
                <line x1="28.2609568" y1="42.5" x2="28.2609568" y2="49" id="Stroke-7" stroke="#000000"></line>
                <path d="M40.0505699,15 C40.0505699,23.284 33.3139348,30 25,30 C16.6880719,30 9.94943009,23.284 9.94943009,15 C9.94943009,6.716 16.6880719,0 25,0 C33.3139348,0 40.0505699,6.716 40.0505699,15 Z" id="Stroke-9" stroke="#000000"></path>
                <line x1="25" y1="21" x2="25" y2="23" id="Stroke-11" stroke="#00A0F1"></line>
                <line x1="25" y1="7" x2="25" y2="9" id="Stroke-13" stroke="#00A0F1"></line>
                <path d="M21.989886,18 C21.989886,19.656 23.3384171,21 25,21 C26.6615829,21 28.010114,19.656 28.010114,18 C28.010114,16.342 26.6615829,15 25,15 C23.3384171,15 21.989886,13.656 21.989886,12 C21.989886,10.342 23.3384171,9 25,9 C26.6615829,9 28.010114,10.342 28.010114,12" id="Stroke-15" stroke="#00A0F1"></path>
                <line x1="9.94943009" y1="30" x2="40.0505699" y2="30" id="Stroke-17" stroke="#000000"></line>
            </g>
        </g>
    </g>
</svg>