<?xml version="1.0" encoding="UTF-8"?>
<svg width="52px" height="52px" viewBox="0 0 52 52" version="1.1" xmlns="http://www.w3.org/2000/svg" xmlns:xlink="http://www.w3.org/1999/xlink">
    <title>群組訊息</title>
    <g id="Page-1" stroke="none" stroke-width="1" fill="none" fill-rule="evenodd">
        <g id="Artboard" transform="translate(-1336.000000, -2734.000000)">
            <g id="群組訊息" transform="translate(1337.000000, 2735.000000)">
                <path d="M30.4347826,0 L8.69565217,0 C3.89347826,0 0,4.26428571 0,9.52380952 L0,19.047619 C0,24.3095238 3.89347826,28.5714286 8.69565217,28.5714286 L10.8695652,28.5714286 L10.8695652,38.0952381 L20.6521739,28.5714286 L30.4347826,28.5714286 C35.2369565,28.5714286 39.1304348,24.3095238 39.1304348,19.047619 L39.1304348,9.52380952 C39.1304348,4.26428571 35.2369565,0 30.4347826,0 Z" id="Stroke-1" stroke="#000000" stroke-width="2" stroke-linecap="round" stroke-linejoin="round"></path>
                <rect id="Rectangle" fill="#00A0F1" x="7" y="12" width="5" height="5" rx="2.5"></rect>
                <rect id="Rectangle" fill="#00A0F1" x="17" y="12" width="5" height="5" rx="2.5"></rect>
                <rect id="Rectangle" fill="#00A0F1" x="27" y="12" width="5" height="5" rx="2.5"></rect>
                <path d="M23.9130435,36.9047619 C23.9130435,40.1928571 26.3456522,42.8571429 29.3478261,42.8571429 L34.7826087,42.8571429 L41.3043478,50 L41.3043478,42.8571429 L44.5652174,42.8571429 C47.5673913,42.8571429 50,40.1928571 50,36.9047619 L50,32.1428571 C50,28.8547619 47.5673913,26.1904762 44.5652174,26.1904762" id="Stroke-3" stroke="#000000" stroke-width="2" stroke-linecap="round" stroke-linejoin="round"></path>
            </g>
        </g>
    </g>
</svg>