<?xml version="1.0" encoding="UTF-8"?>
<svg width="52px" height="52px" viewBox="0 0 52 52" version="1.1" xmlns="http://www.w3.org/2000/svg" xmlns:xlink="http://www.w3.org/1999/xlink">
    <title>考勤系統</title>
    <g id="Page-1" stroke="none" stroke-width="1" fill="none" fill-rule="evenodd">
        <g id="Artboard" transform="translate(-1544.000000, -2734.000000)">
            <g id="考勤系統" transform="translate(1545.000000, 2735.000000)">
                <path d="M11,0 L39,0 C39.5522847,-1.01453063e-16 40,0.44771525 40,1 L40,8 L40,8 L10,8 L10,1 C10,0.44771525 10.4477153,1.01453063e-16 11,0 Z" id="Rectangle" stroke="#000000" stroke-width="2"></path>
                <path d="M5.4016625,8 L44.5022999,8 C45.5394897,8 46.4045752,8.79289127 46.4947301,9.82615541 L49.8103265,47.8261554 C49.9063383,48.9265442 49.0921298,49.8964185 47.9917409,49.9924302 C47.93393,49.9974743 47.8759269,50 47.8178964,50 L2.17691231,50 C1.07234281,50 0.176912308,49.1045695 0.176912308,48 C0.176912308,47.9435522 0.179302071,47.8871298 0.184075177,47.8308842 L3.40882537,9.83088416 C3.49668203,8.79559367 4.36265086,8 5.4016625,8 Z" id="Rectangle" stroke="#000000" stroke-width="2"></path>
                <circle id="Oval" stroke="#000000" stroke-width="2" cx="25" cy="29" r="15"></circle>
                <polygon id="Path" fill="#00A0F1" fill-rule="nonzero" points="25.3352872 22 22 22 22 32 32 32 32 28.6666667 25.3352872 28.6666667"></polygon>
            </g>
        </g>
    </g>
</svg>