<?xml version="1.0" encoding="UTF-8"?>
<svg width="52px" height="52px" viewBox="0 0 52 52" version="1.1" xmlns="http://www.w3.org/2000/svg" xmlns:xlink="http://www.w3.org/1999/xlink">
    <title>訪客管理</title>
    <g id="Page-1" stroke="none" stroke-width="1" fill="none" fill-rule="evenodd">
        <g id="Artboard" transform="translate(-1672.000000, -2729.000000)">
            <g id="訪客管理" transform="translate(1673.000000, 2730.000000)">
                <path d="M0,32.2222222 L31.1111111,32.2222222 L31.1111111,45 C31.1111111,47.7614237 28.8725349,50 26.1111111,50 L5,50 C2.23857625,50 6.76316947e-16,47.7614237 0,45 L0,32.2222222 L0,32.2222222 Z" id="Rectangle" stroke="#040000" stroke-width="2" stroke-linejoin="round"></path>
                <path d="M46.6666667,20.5555556 C46.6666667,23.3173471 44.4278327,25.5555556 41.6666667,25.5555556 C38.9055006,25.5555556 36.6666667,23.3173471 36.6666667,20.5555556 C36.6666667,17.7943895 38.9055006,15.5555556 41.6666667,15.5555556 C44.4278327,15.5555556 46.6666667,17.7943895 46.6666667,20.5555556 Z" id="Stroke-14" stroke="#040000" stroke-width="2" stroke-linecap="round" stroke-linejoin="round"></path>
                <path d="M36.6666667,35.5555556 L33.3333333,35.5555556 L33.3333333,30.8918066 C33.3333333,27.9447561 35.7627267,25.5555556 38.7599814,25.5555556 L44.5733519,25.5555556 C47.5699798,25.5555556 50,27.9447561 50,30.8918066 L50,35.5555556 L46.6666667,35.5555556" id="Stroke-15" stroke="#040000" stroke-width="2" stroke-linecap="round" stroke-linejoin="round"></path>
                <polyline id="Stroke-16" stroke="#040000" stroke-width="2" stroke-linecap="round" stroke-linejoin="round" points="46.6666667 30 46.6666667 50 36.6666667 50 36.6666667 30"></polyline>
                <line x1="41.5303752" y1="38.331449" x2="41.5303752" y2="50" id="Stroke-17" stroke="#040000" stroke-width="2" stroke-linecap="round" stroke-linejoin="round"></line>
                <polyline id="Stroke-18" stroke="#040000" stroke-width="2" stroke-linecap="round" stroke-linejoin="round" points="38.8888889 25.5555556 41.7260384 31.1111111 44.4444444 25.5555556"></polyline>
                <path d="M15.8888889,13.3333333 C15.8888889,16.4019906 13.4012956,18.8888889 10.3333333,18.8888889 C7.26537109,18.8888889 4.77777778,16.4019906 4.77777778,13.3333333 C4.77777778,10.2653711 7.26537109,7.77777778 10.3333333,7.77777778 C13.4012956,7.77777778 15.8888889,10.2653711 15.8888889,13.3333333 Z" id="Stroke-19" stroke="#040000" stroke-width="2" stroke-linecap="round" stroke-linejoin="round"></path>
                <path d="M1.44444444,32.2222222 L1.44444444,25.0787012 C1.44444444,21.6599345 3.95415695,18.8888889 7.05050505,18.8888889 L13.0560736,18.8888889 C16.1517742,18.8888889 18.6621342,21.6599345 18.6621342,25.0787012 L18.6621342,27.7525171 L23.6666667,27.7525171 L23.6666667,32.2222222 L1.44444444,32.2222222 Z" id="Stroke-20" stroke="#040000" stroke-width="2" stroke-linecap="round" stroke-linejoin="round"></path>
                <polyline id="Stroke-21" stroke="#040000" stroke-width="2" stroke-linecap="round" stroke-linejoin="round" points="14.7777778 27.7777778 14.7777778 32.2222222 5.88888889 32.2222222 5.88888889 27.7777778"></polyline>
                <path d="M11.4444444,23.3333333 C11.4444444,23.9474436 10.9468894,24.4444444 10.3336903,24.4444444 C9.71977728,24.4444444 9.22222222,23.9474436 9.22222222,23.3333333 C9.22222222,22.7199372 9.71977728,22.2222222 10.3336903,22.2222222 C10.9468894,22.2222222 11.4444444,22.7199372 11.4444444,23.3333333" id="Fill-22" fill="#040000"></path>
                <path d="M11.4444444,27.7777778 C11.4444444,28.391888 10.9468894,28.8888889 10.3336903,28.8888889 C9.71977728,28.8888889 9.22222222,28.391888 9.22222222,27.7777778 C9.22222222,27.1636675 9.71977728,26.6666667 10.3336903,26.6666667 C10.9468894,26.6666667 11.4444444,27.1636675 11.4444444,27.7777778" id="Fill-23" fill="#040000"></path>
                <path d="M24.2222222,0 L34,0 C36.209139,-4.05812251e-16 38,1.790861 38,4 L38,11.5555556 C38,13.7646946 36.209139,15.5555556 34,15.5555556 L19.618034,15.5555556 C19.0657492,15.5555556 18.618034,15.1078403 18.618034,14.5555556 C18.618034,14.4003105 18.6541791,14.2471974 18.7236068,14.108342 L20.2222222,11.1111111 L20.2222222,11.1111111 L20.2222222,4 C20.2222222,1.790861 22.0130832,4.05812251e-16 24.2222222,0 Z" id="Rectangle" stroke="#00A0F1" stroke-width="2" stroke-linejoin="round"></path>
                <line x1="23.5555556" y1="4.44444444" x2="34.6666667" y2="4.44444444" id="Stroke-25" stroke="#00A0F1" stroke-width="2" stroke-linecap="round" stroke-linejoin="round"></line>
                <line x1="23.5555556" y1="11.1111111" x2="34.6666667" y2="11.1111111" id="Stroke-25" stroke="#00A0F1" stroke-width="2" stroke-linecap="round" stroke-linejoin="round"></line>
                <line x1="23.5555556" y1="7.77777778" x2="25.7777778" y2="7.77777778" id="Stroke-26" stroke="#00A0F1" stroke-width="2" stroke-linecap="round" stroke-linejoin="round"></line>
                <line x1="28" y1="7.77777778" x2="34.6666667" y2="7.77777778" id="Stroke-27" stroke="#00A0F1" stroke-width="2" stroke-linecap="round" stroke-linejoin="round"></line>
            </g>
        </g>
    </g>
</svg>