<?xml version="1.0" encoding="UTF-8"?>
<svg width="52px" height="52px" viewBox="0 0 52 52" version="1.1" xmlns="http://www.w3.org/2000/svg" xmlns:xlink="http://www.w3.org/1999/xlink">
    <title>詢價系統</title>
    <g id="Page-1" stroke="none" stroke-width="1" fill="none" fill-rule="evenodd" stroke-linecap="round" stroke-linejoin="round">
        <g id="Artboard" transform="translate(-679.000000, -2736.000000)" stroke-width="2">
            <g id="詢價系統" transform="translate(680.000000, 2737.000000)">
                <path d="M16.0309243,32.0820914 C16.0309243,35.8578703 13.0219334,38.9185902 9.30996876,38.9185902 C5.59800408,38.9185902 2.58901324,35.8578703 2.58901324,32.0820914 C2.58901324,28.3063126 5.59800408,25.2455927 9.30996876,25.2455927 C13.0219334,25.2455927 16.0309243,28.3063126 16.0309243,32.0820914 Z" id="Stroke-1" stroke="#040000"></path>
                <path d="M0,50 C0,50 1.54391451,43.0365282 8.99248081,43.0365282 C10.5051885,43.0365282 11.8010913,43.3238883 12.9048259,43.7816597" id="Stroke-3" stroke="#040000"></path>
                <path d="M36.2443787,43.9101365 C37.3628955,43.3771836 38.7228542,43.0363611 40.3718863,43.0363611 C47.8204526,43.0363611 50,49.9998329 50,49.9998329" id="Stroke-5" stroke="#040000"></path>
                <path d="M37.210475,21.3565405 L29.5188243,21.3565405 L29.5943775,28.2481723 L20.4590025,21.3565405 L16.2263773,21.3565405 C13.8792987,21.3565405 11.9773275,19.5588687 11.9773275,17.3418517 L11.9773275,4.01468878 C11.9773275,1.79600102 13.8792987,0 16.2263773,0 L37.210475,0 C39.5575535,0 41.4595248,1.79600102 41.4595248,4.01468878 L41.4595248,17.3418517 C41.4595248,19.5588687 39.5575535,21.3565405 37.210475,21.3565405 Z" id="Stroke-7" stroke="#040000"></path>
                <path d="M29.6490715,6.08702335 L25.7088046,6.08702335 C24.7052601,6.08702335 23.8446099,6.82380144 23.6737939,7.83123271 C23.5029778,8.83866398 24.0729122,9.82604686 25.0206129,10.1668694 L28.8081308,11.5284888 C29.6425017,11.8292145 30.1582348,12.6829415 30.04162,13.5767653 C29.9184353,14.5240514 29.1234836,15.2324276 28.1839952,15.2324276 L23.3781507,15.2324276" id="Stroke-9" stroke="#00A0F1"></path>
                <line x1="26.9280043" y1="3.75155375" x2="26.9280043" y2="6.08719042" id="Stroke-11" stroke="#00A0F1"></line>
                <line x1="26.9280043" y1="17.6791657" x2="26.9280043" y2="15.2332629" id="Stroke-13" stroke="#00A0F1"></line>
                <polyline id="Stroke-15" stroke="#040000" points="4.7683964 50 30.0688849 50 35.5481389 36.0730563 18.3137826 36.0730563 13.2714235 49.6541654"></polyline>
                <path d="M25.8743648,43.036194 C25.8743648,43.801374 25.2650113,44.4212032 24.5127636,44.4212032 C23.7588734,44.4212032 23.1495199,43.801374 23.1495199,43.036194 C23.1495199,42.271014 23.7588734,41.6511849 24.5127636,41.6511849 C25.2650113,41.6511849 25.8743648,42.271014 25.8743648,43.036194 Z" id="Stroke-17" stroke="#040000"></path>
                <path d="M34.7377481,32.8953875 C34.7377481,29.1196087 37.7467389,26.0588888 41.4587036,26.0588888 C45.1706683,26.0588888 48.1796591,29.1196087 48.1796591,32.8953875 C48.1796591,36.6711664 45.1706683,39.7318863 41.4587036,39.7318863 C40.2055049,39.7318863 39.0311444,39.3827103 38.0275999,38.774576" id="Stroke-19" stroke="#040000"></path>
            </g>
        </g>
    </g>
</svg>