<?xml version="1.0" encoding="UTF-8"?>
<svg width="52px" height="51px" viewBox="0 0 52 51" version="1.1" xmlns="http://www.w3.org/2000/svg" xmlns:xlink="http://www.w3.org/1999/xlink">
    <title>資產管理</title>
    <g id="Page-1" stroke="none" stroke-width="1" fill="none" fill-rule="evenodd" stroke-linejoin="round">
        <g id="Artboard" transform="translate(-903.000000, -2732.000000)" stroke-width="2">
            <g id="資產管理" transform="translate(904.000000, 2733.000000)">
                <line x1="9.7826087" y1="48.9361702" x2="22.826087" y2="48.9361702" id="Stroke-1" stroke="#000000" stroke-linecap="round"></line>
                <line x1="16.3043478" y1="44.6808511" x2="16.3043478" y2="48.887234" id="Stroke-3" stroke="#000000" stroke-linecap="round"></line>
                <line x1="0" y1="40.4255319" x2="32.6086957" y2="40.4255319" id="Stroke-5" stroke="#000000"></line>
                <path d="M17.3913043,21.2765957 L17.3913043,16.4893617 C17.3913043,12.0808511 21.0391304,8.5106383 25.5434783,8.5106383 L29.3478261,8.5106383" id="Stroke-7" stroke="#00A0F1" stroke-linecap="round"></path>
                <polyline id="Stroke-9" stroke="#00A0F1" stroke-linecap="round" points="21.7391304 17.0212766 17.3913043 21.2765957 13.0434783 17.0212766"></polyline>
                <path d="M26.0869565,23.4042553 L29.3478261,23.4042553 C31.1478261,23.4042553 32.6086957,24.8297872 32.6086957,26.5957447 L32.6086957,41.4893617 C32.6086957,43.2489362 31.1478261,44.6808511 29.3478261,44.6808511 L3.26086957,44.6808511 C1.45652174,44.6808511 0,43.2489362 0,41.4893617 L0,26.5957447 C0,24.8297872 1.45652174,23.4042553 3.26086957,23.4042553 L6.52173913,23.4042553" id="Stroke-11" stroke="#000000" stroke-linecap="round"></path>
                <polyline id="Stroke-13" stroke="#00A0F1" stroke-linecap="round" points="26.0869565 5.31914894 29.3478261 8.5106383 26.0869565 11.7021277"></polyline>
                <path d="M25,17.0212766 L44.0456522,17.0212766 C44.0456522,17.0212766 50,16.306383 50,10.9425532 C50,7.54042553 46.9434783,4.74468085 43.1456522,4.87446809 C41.6608696,1.99148936 38.4782609,0 34.7826087,0 C32.8652174,0 31.0869565,0.531914894 29.6130435,1.45106383" id="Stroke-15" stroke="#000000"></path>
            </g>
        </g>
    </g>
</svg>