<?xml version="1.0" encoding="UTF-8"?>
<svg width="52px" height="51px" viewBox="0 0 52 51" version="1.1" xmlns="http://www.w3.org/2000/svg" xmlns:xlink="http://www.w3.org/1999/xlink">
    <title>電子交屋</title>
    <g id="Page-1" stroke="none" stroke-width="1" fill="none" fill-rule="evenodd" stroke-linejoin="round">
        <g id="Artboard" transform="translate(-466.000000, -2732.000000)" stroke-width="2">
            <g id="電子交屋" transform="translate(467.000000, 2733.000000)">
                <line x1="18.1818182" y1="48.9361702" x2="31.8181818" y2="48.9361702" id="Stroke-1" stroke="#000000" stroke-linecap="round"></line>
                <line x1="25" y1="44.6808511" x2="25" y2="48.9361702" id="Stroke-3" stroke="#000000" stroke-linecap="round"></line>
                <line x1="6.81818182" y1="40.4255319" x2="43.1818182" y2="40.4255319" id="Stroke-6" stroke="#000000"></line>
                <path d="M43.1818182,26.5957447 L43.1818182,41.4893617 C43.1818182,43.2510638 41.6522727,44.6808511 39.7727273,44.6808511 L10.2272727,44.6808511 C8.34090909,44.6808511 6.81818182,43.2510638 6.81818182,41.4893617 L6.81818182,26.5957447" id="Stroke-7" stroke="#000000" stroke-linecap="round"></path>
                <polyline id="Stroke-9" stroke="#00A0F1" stroke-linecap="round" points="6.81818182 22.3404255 6.81818182 17.0212766 12.5 17.0212766"></polyline>
                <path d="M9.09090909,3.19148936 C9.09090909,4.95319149 7.56363636,6.38297872 5.68181818,6.38297872 C3.8,6.38297872 2.27272727,4.95319149 2.27272727,3.19148936 C2.27272727,1.42978723 3.8,0 5.68181818,0 C7.56363636,0 9.09090909,1.42978723 9.09090909,3.19148936 Z" id="Stroke-11" stroke="#000000" stroke-linecap="round"></path>
                <path d="M11.3636364,12.7659574 L0,12.7659574 C0,9.24042553 2.54318182,6.38297872 5.68181818,6.38297872 C8.82045455,6.38297872 11.3636364,9.24042553 11.3636364,12.7659574 Z" id="Stroke-13" stroke="#000000" stroke-linecap="round"></path>
                <path d="M47.7272727,3.19148936 C47.7272727,4.95319149 46.2,6.38297872 44.3181818,6.38297872 C42.4363636,6.38297872 40.9090909,4.95319149 40.9090909,3.19148936 C40.9090909,1.42978723 42.4363636,0 44.3181818,0 C46.2,0 47.7272727,1.42978723 47.7272727,3.19148936 Z" id="Stroke-15" stroke="#000000" stroke-linecap="round"></path>
                <path d="M50,12.7659574 L38.6363636,12.7659574 C38.6363636,9.24042553 41.1795455,6.38297872 44.3181818,6.38297872 C47.4568182,6.38297872 50,9.24042553 50,12.7659574 Z" id="Stroke-17" stroke="#000000" stroke-linecap="round"></path>
                <path d="M28.4090909,3.19148936 C28.4090909,4.95319149 26.8818182,6.38297872 25,6.38297872 C23.1181818,6.38297872 21.5909091,4.95319149 21.5909091,3.19148936 C21.5909091,1.42978723 23.1181818,0 25,0 C26.8818182,0 28.4090909,1.42978723 28.4090909,3.19148936 Z" id="Stroke-19" stroke="#000000" stroke-linecap="round"></path>
                <path d="M30.6818182,12.7659574 L19.3181818,12.7659574 C19.3181818,9.24042553 21.8613636,6.38297872 25,6.38297872 C28.1386364,6.38297872 30.6818182,9.24042553 30.6818182,12.7659574 Z" id="Stroke-21" stroke="#000000" stroke-linecap="round"></path>
                <line x1="6.81818182" y1="17.0212766" x2="18.1113636" y2="27.6361702" id="Stroke-23" stroke="#00A0F1" stroke-linecap="round"></line>
                <polyline id="Stroke-25" stroke="#00A0F1" stroke-linecap="round" points="43.1818182 22.3404255 43.1818182 17.0212766 37.5 17.0212766"></polyline>
                <line x1="43.1818182" y1="17.0212766" x2="31.8886364" y2="27.6361702" id="Stroke-27" stroke="#00A0F1" stroke-linecap="round"></line>
                <line x1="25" y1="27.626383" x2="25.0363636" y2="17.0880851" id="Stroke-29" stroke="#00A0F1" stroke-linecap="round"></line>
                <polyline id="Stroke-31" stroke="#00A0F1" stroke-linecap="round" points="20.49 20.1795745 25.0354545 17.0880851 29.5809091 20.213617"></polyline>
            </g>
        </g>
    </g>
</svg>