<?xml version="1.0" encoding="UTF-8"?>
<svg width="52px" height="52px" viewBox="0 0 52 52" version="1.1" xmlns="http://www.w3.org/2000/svg" xmlns:xlink="http://www.w3.org/1999/xlink">
    <title>點餐系統</title>
    <g id="Page-1" stroke="none" stroke-width="1" fill="none" fill-rule="evenodd">
        <g id="Artboard" transform="translate(-542.000000, -2732.000000)">
            <g id="點餐系統" transform="translate(543.000000, 2733.000000)">
                <polygon id="Stroke-1" stroke="#000000" stroke-width="2" stroke-linejoin="round" points="0 50 9.09090909 50 9.09090909 32.6086957 0 32.6086957"></polygon>
                <path d="M9.09090909,47.826087 L47.7272727,47.826087 C47.7272727,44.5652174 39.7727273,41.3043478 30.6818182,41.3043478 L14.7727273,41.3043478" id="Stroke-3" stroke="#000000" stroke-width="2" stroke-linecap="round" stroke-linejoin="round"></path>
                <path d="M9.09090909,34.7826087 L17.0454545,34.7826087 C22.3909091,34.7826087 25,40.2173913 26.1363636,41.3043478" id="Stroke-4" stroke="#000000" stroke-width="2" stroke-linejoin="round"></path>
                <path d="M4.54545455,44.5652174 C3.91818182,44.5652174 3.40909091,45.0521739 3.40909091,45.6521739 C3.40909091,46.2521739 3.91818182,46.7391304 4.54545455,46.7391304 C5.17272727,46.7391304 5.68181818,46.2521739 5.68181818,45.6521739 C5.68181818,45.0521739 5.17272727,44.5652174 4.54545455,44.5652174" id="Fill-5" fill="#000000"></path>
                <path d="M4.54545455,22.826087 L4.54545455,4.34782609 C4.54545455,1.95652174 6.59090909,0 9.09090909,0 L45.4545455,0 C47.9545455,0 50,1.95652174 50,4.34782609 L50,30.4347826 C50,32.826087 47.9545455,34.7826087 45.4545455,34.7826087 L38.6363636,34.7826087" id="Stroke-6" stroke="#000000" stroke-width="2" stroke-linecap="round" stroke-linejoin="round"></path>
                <line x1="4.54545455" y1="8.69565217" x2="50" y2="8.69565217" id="Stroke-7" stroke="#000000" stroke-width="2" stroke-linecap="round" stroke-linejoin="round"></line>
                <path d="M11.3636364,3.26086957 C10.7363636,3.26086957 10.2272727,3.74782609 10.2272727,4.34782609 C10.2272727,4.94782609 10.7363636,5.43478261 11.3636364,5.43478261 C11.9909091,5.43478261 12.5,4.94782609 12.5,4.34782609 C12.5,3.74782609 11.9909091,3.26086957 11.3636364,3.26086957" id="Fill-8" fill="#000000"></path>
                <path d="M15.9090909,3.26086957 C15.2818182,3.26086957 14.7727273,3.74782609 14.7727273,4.34782609 C14.7727273,4.94782609 15.2818182,5.43478261 15.9090909,5.43478261 C16.5363636,5.43478261 17.0454545,4.94782609 17.0454545,4.34782609 C17.0454545,3.74782609 16.5363636,3.26086957 15.9090909,3.26086957" id="Fill-9" fill="#000000"></path>
                <path d="M20.4545455,3.26086957 C19.8272727,3.26086957 19.3181818,3.74782609 19.3181818,4.34782609 C19.3181818,4.94782609 19.8272727,5.43478261 20.4545455,5.43478261 C21.0818182,5.43478261 21.5909091,4.94782609 21.5909091,4.34782609 C21.5909091,3.74782609 21.0818182,3.26086957 20.4545455,3.26086957" id="Fill-10" fill="#000000"></path>
                <path d="M15.9090909,17.4169565 L19.7204545,21.0626087 C20.9818182,22.2691304 23.0295455,22.2691304 24.2931818,21.0626087 C25.5545455,19.856087 25.5545455,17.8973913 24.2931818,16.6886957 L20.4818182,13.0430435" id="Stroke-11" stroke="#00A0F1" stroke-width="2" stroke-linecap="round" stroke-linejoin="round"></path>
                <line x1="18.1945455" y1="15.23" x2="34.2286364" y2="30.5669565" id="Stroke-12" stroke="#00A0F1" stroke-width="2" stroke-linecap="round" stroke-linejoin="round"></line>
                <line x1="29.8763636" y1="21.0628261" x2="19.8513636" y2="30.6519565" id="Stroke-13" stroke="#00A0F1" stroke-width="2" stroke-linecap="round" stroke-linejoin="round"></line>
                <path d="M31.4004545,15.23 C32.6618182,14.0234783 34.7095455,14.0234783 35.9731818,15.23 C37.2345455,16.4386957 37.2345455,18.3973913 35.9731818,19.603913 L34.4481818,21.0626087 C33.1845455,22.2691304 31.1390909,22.2691304 29.8754545,21.0626087 C28.6140909,19.856087 28.6140909,17.8973913 29.8754545,16.6886957 L31.4004545,15.23 Z" id="Stroke-14" stroke="#00A0F1" stroke-width="2" stroke-linecap="round" stroke-linejoin="round"></path>
            </g>
        </g>
    </g>
</svg>