<?xml version="1.0" encoding="UTF-8"?>
<svg width="1600px" height="1600px" viewBox="0 0 1600 1600" version="1.1" xmlns="http://www.w3.org/2000/svg" xmlns:xlink="http://www.w3.org/1999/xlink">
    <title>ihome4</title>
    <defs>
        <linearGradient x1="95.923238%" y1="3.07352067%" x2="4.58454774%" y2="96.9048908%" id="linearGradient-1">
            <stop stop-color="#42E695" offset="0%"></stop>
            <stop stop-color="#3BB2B8" offset="100%"></stop>
        </linearGradient>
    </defs>
    <g id="Page-1" stroke="none" stroke-width="1" fill="none" fill-rule="evenodd">
        <g id="ihome4">
            <rect id="Rectangle" x="0" y="0" width="1600" height="1600"></rect>
            <g id="ihome-1" transform="translate(147.000000, 193.000000)">
                <g id="Group-35" transform="translate(46.344684, 0.000000)" stroke="#F2F2F2" stroke-dasharray="20.20540990488986" stroke-linecap="round" stroke-width="6.73513685">
                    <path d="M606.827658,1213.9696 C941.96932,1213.9696 1213.65532,942.21325 1213.65532,606.984801 C1213.65532,271.756352 941.96932,0 606.827658,0 C271.685997,0 0,271.756352 0,606.984801 C0,942.21325 271.685997,1213.9696 606.827658,1213.9696 Z" id="Oval"></path>
                    <path d="M606.827658,1109.23497 C884.140954,1109.23497 1108.9478,884.369909 1108.9478,606.984801 C1108.9478,329.599692 884.140954,104.734632 606.827658,104.734632 C329.514362,104.734632 104.707517,329.599692 104.707517,606.984801 C104.707517,884.369909 329.514362,1109.23497 606.827658,1109.23497 Z" id="Oval"></path>
                    <path d="M606.827658,1002.12 C824.998308,1002.12 1001.86057,825.211948 1001.86057,606.984801 C1001.86057,388.757654 824.998308,211.849597 606.827658,211.849597 C388.657008,211.849597 211.794751,388.757654 211.794751,606.984801 C211.794751,825.211948 388.657008,1002.12 606.827658,1002.12 Z" id="Oval"></path>
                </g>
                <g id="Group-32" transform="translate(0.000000, 78.742566)">
                    <g id="Group-27" transform="translate(135.879985, 0.000000)">
                        <g id="Group-30">
                            <rect id="Rectangle" fill="url(#linearGradient-1)" x="0" y="0" width="154.409073" height="154.456794" rx="77.2045367"></rect>
                            <g id="Group-19" transform="translate(29.337724, 29.346791)" stroke="#FFFFFF" stroke-linecap="round" stroke-linejoin="round" stroke-width="3.08913587">
                                <path d="M11.4570466,19.3070992 L4.19471992,19.3070992 C1.88626833,19.3070992 0,21.1914721 0,23.4890169 L0,77.873254 C0,80.1707988 1.88626833,82.0551716 4.19471992,82.0551716 L92.3109509,82.0551716 C94.6232757,82.0551716 96.5056708,80.1707988 96.5056708,77.873254 L96.5056708,23.4890169 C96.5056708,21.1914721 94.6232757,19.3070992 92.3109509,19.3070992 L85.0486242,19.3070992" id="Stroke-1"></path>
                                <line x1="27.2726513" y1="94.6047861" x2="69.2314702" y2="94.6047861" id="Stroke-3"></line>
                                <line x1="41.9588189" y1="82.0551716" x2="41.9588189" y2="94.6047861" id="Stroke-5"></line>
                                <line x1="54.5468519" y1="82.0551716" x2="54.5468519" y2="94.6047861" id="Stroke-7"></line>
                                <path d="M77.3021423,28.9606488 C77.3021423,44.9546498 64.2996726,57.9212976 48.2528354,57.9212976 C32.2098715,57.9212976 19.2035285,44.9546498 19.2035285,28.9606488 C19.2035285,12.9666478 32.2098715,0 48.2528354,0 C64.2996726,0 77.3021423,12.9666478 77.3021423,28.9606488 Z" id="Stroke-9"></path>
                                <line x1="48.2528354" y1="40.5449083" x2="48.2528354" y2="44.4063282" id="Stroke-11"></line>
                                <line x1="48.2528354" y1="13.5149694" x2="48.2528354" y2="17.3763893" id="Stroke-13"></line>
                                <path d="M42.442974,34.7527786 C42.442974,37.9500342 45.0457919,40.5449083 48.2528354,40.5449083 C51.4598789,40.5449083 54.0626968,37.9500342 54.0626968,34.7527786 C54.0626968,31.5516615 51.4598789,28.9606488 48.2528354,28.9606488 C45.0457919,28.9606488 42.442974,26.3657747 42.442974,23.1685191 C42.442974,19.967402 45.0457919,17.3763893 48.2528354,17.3763893 C51.4598789,17.3763893 54.0626968,19.967402 54.0626968,23.1685191" id="Stroke-15"></path>
                                <line x1="19.2035285" y1="57.9212976" x2="77.3021423" y2="57.9212976" id="Stroke-17"></line>
                            </g>
                        </g>
                        <text id="管理費" font-family="NotoSansTC-Regular, Noto Sans TC" font-size="54.0598778" font-weight="normal" fill="#000000">
                            <tspan x="185.290888" y="104.703334">管理費</tspan>
                        </text>
                    </g>
                    <g id="Group-27" transform="translate(0.000000, 315.091859)">
                        <g id="Group-31">
                            <rect id="Rectangle" fill="url(#linearGradient-1)" x="0" y="0" width="154.409073" height="154.456794" rx="77.2045367"></rect>
                            <g id="Group-17" transform="translate(37.058178, 29.346791)" stroke="#FFFFFF" stroke-linecap="round" stroke-linejoin="round" stroke-width="3.08913587">
                                <line x1="11.8252223" y1="31.0864861" x2="54.677557" y2="31.0864861" id="Stroke-1"></line>
                                <line x1="11.8252223" y1="43.426285" x2="42.8506681" y2="43.426285" id="Stroke-2"></line>
                                <line x1="11.8252223" y1="56.2349771" x2="42.8506681" y2="56.2349771" id="Stroke-3"></line>
                                <line x1="11.8252223" y1="68.1064478" x2="42.8506681" y2="68.1064478" id="Stroke-4"></line>
                                <polyline id="Stroke-5" points="54.218147 0.00225972603 54.218147 19.0573995 72.650095 19.0573995"></polyline>
                                <line x1="36.324492" y1="85.2882747" x2="54.678668" y2="85.2882747" id="Stroke-7"></line>
                                <path d="M54.6792235,73.1043968 L57.9067587,59.9810379 L85.288034,33.0733502 C87.8378423,30.5650543 91.8819828,30.5481064 94.4484566,33.033805 L94.4484566,33.033805 C97.1482536,35.6494379 97.1982499,40.0107091 94.5540042,42.6828351 L67.5838091,69.9803256 L54.6792235,73.1043968 Z" id="Stroke-8"></path>
                                <line x1="80.1700853" y1="38.1029354" x2="90.1360029" y2="47.1531382" id="Stroke-10"></line>
                                <line x1="62.5952952" y1="55.3740215" x2="72.2001288" y2="65.3055174" id="Stroke-12"></line>
                                <polyline id="Stroke-14" points="72.650095 65.3060823 72.650095 96.5354961 0 96.5354961 0 0 54.218147 0 72.650095 18.7444274 72.650095 45.4939343"></polyline>
                            </g>
                        </g>
                        <text id="預約公設" font-family="NotoSansTC-Regular, Noto Sans TC" font-size="54.0598778" font-weight="normal" fill="#000000">
                            <tspan x="185.290888" y="104.703334">預約公設</tspan>
                        </text>
                    </g>
                    <g id="Group-27" transform="translate(0.000000, 665.708781)">
                        <g id="Group-31">
                            <rect id="Rectangle" fill="url(#linearGradient-1)" x="0" y="0" width="154.409073" height="154.456794" rx="77.2045367"></rect>
                            <g id="Reg.-icon" transform="translate(29.337724, 29.346791)">
                                <polygon id="Fill-11" points="0 96.5354961 96.5056708 96.5354961 96.5056708 0 0 0"></polygon>
                                <g id="Group-29" transform="translate(0.000000, 7.240162)">
                                    <path d="M49.8280475,81.5950249 L10.2457948,81.5950249 C4.58676091,81.5950249 0,76.774993 0,70.8295895 L0,50.7740251 L60.0749488,50.7740251 L60.0749488,70.8295895 C60.0749488,76.774993 55.4870814,81.5950249 49.8280475,81.5950249 Z" id="Stroke-13" stroke="#FFFFFF" stroke-width="3.08913587" stroke-linecap="round" stroke-linejoin="round"></path>
                                    <path d="M90.4627655,30.9923632 C90.4627655,36.1251275 86.5023271,40.2848173 81.617897,40.2848173 C76.7334669,40.2848173 72.7730285,36.1251275 72.7730285,30.9923632 C72.7730285,25.8607615 76.7334669,21.6999091 81.617897,21.6999091 C86.5023271,21.6999091 90.4627655,25.8607615 90.4627655,30.9923632 Z" id="Stroke-14" stroke="#FFFFFF" stroke-width="3.08913587" stroke-linecap="round" stroke-linejoin="round"></path>
                                    <path d="M73.3859614,59.1459531 L67.0806867,59.1459531 L67.0806867,50.3499181 C67.0806867,44.7916517 71.3697784,40.2855148 76.6614288,40.2855148 L86.9249287,40.2855148 C92.2154725,40.2855148 96.5056708,44.7916517 96.5056708,50.3499181 L96.5056708,59.1459531 L90.2003961,59.1459531" id="Stroke-15" stroke="#FFFFFF" stroke-width="3.08913587" stroke-linecap="round" stroke-linejoin="round"></path>
                                    <polyline id="Stroke-16" stroke="#FFFFFF" stroke-width="3.08913587" stroke-linecap="round" stroke-linejoin="round" points="90.2000642 47.5533463 90.2000642 82.0550554 73.3856294 82.0550554 73.3856294 47.5533463"></polyline>
                                    <line x1="81.7930681" y1="61.5380654" x2="81.7930681" y2="82.0551716" id="Stroke-17" stroke="#FFFFFF" stroke-width="3.08913587" stroke-linecap="round" stroke-linejoin="round"></line>
                                    <polyline id="Stroke-18" stroke="#FFFFFF" stroke-width="3.08913587" stroke-linecap="round" stroke-linejoin="round" points="77.4143436 40.2850498 81.618229 49.7158502 85.6461686 40.2850498"></polyline>
                                    <path d="M37.7742169,19.798868 C37.7742169,24.9316323 33.8137785,29.0913221 28.9293484,29.0913221 C24.0449183,29.0913221 20.0844799,24.9316323 20.0844799,19.798868 C20.0844799,14.6672663 24.0449183,10.5064139 28.9293484,10.5064139 C33.8137785,10.5064139 37.7742169,14.6672663 37.7742169,19.798868 Z" id="Stroke-19" stroke="#FFFFFF" stroke-width="3.08913587" stroke-linecap="round" stroke-linejoin="round"></path>
                                    <path d="M14.2170776,50.7734438 L14.2170776,39.1570042 C14.2170776,33.5975753 18.5061694,29.0914384 23.7978197,29.0914384 L34.0613197,29.0914384 C39.3518635,29.0914384 43.6420618,33.5975753 43.6420618,39.1570042 L43.6420618,43.5050311 L52.194794,43.5050311 L52.194794,50.7734438 L14.2170776,50.7734438 Z" id="Stroke-20" stroke="#FFFFFF" stroke-width="3.08913587" stroke-linecap="round" stroke-linejoin="round"></path>
                                    <polyline id="Stroke-21" stroke="#FFFFFF" stroke-width="3.08913587" stroke-linecap="round" stroke-linejoin="round" points="37.3362338 41.1436107 37.3362338 50.7732113 20.5217991 50.7732113 20.5217991 41.1436107"></polyline>
                                    <path d="M30.6516246,35.8686636 C30.6516246,36.8684773 29.8803405,37.6776288 28.929791,37.6776288 C27.978135,37.6776288 27.2068509,36.8684773 27.2068509,35.8686636 C27.2068509,34.8700125 27.978135,34.0596985 28.929791,34.0596985 C29.8803405,34.0596985 30.6516246,34.8700125 30.6516246,35.8686636" id="Fill-22" fill="#FFFFFF"></path>
                                    <path d="M30.6516246,43.8343883 C30.6516246,44.8342019 29.8803405,45.6433534 28.929791,45.6433534 C27.978135,45.6433534 27.2068509,44.8342019 27.2068509,43.8343883 C27.2068509,42.8345746 27.978135,42.0254231 28.929791,42.0254231 C29.8803405,42.0254231 30.6516246,42.8345746 30.6516246,43.8343883" id="Fill-23" fill="#FFFFFF"></path>
                                    <path d="M48.5807141,15.597093 L48.5807141,6.1430411 C48.5807141,2.75065012 51.1988749,0 54.427866,0 L67.2232138,0 C70.4533115,0 73.0703657,2.75065012 73.0703657,6.1430411 L73.0703657,18.2024214 C73.0703657,21.5959749 70.4533115,24.3454625 67.2232138,24.3454625 L45.6538184,24.3454625 C44.5372824,24.3454625 43.9463704,22.9573491 44.6922032,22.0830934 L47.3590533,18.9546068 C48.1458294,18.031523 48.5807141,16.8363969 48.5807141,15.597093 Z" id="Stroke-24" stroke="#FFFFFF" stroke-width="3.08913587" stroke-linecap="round" stroke-linejoin="round"></path>
                                    <line x1="54.3123394" y1="8.66815187" x2="67.5126943" y2="8.66815187" id="Stroke-25" stroke="#FFFFFF" stroke-width="3.08913587" stroke-linecap="round" stroke-linejoin="round"></line>
                                    <line x1="54.3123394" y1="15.283198" x2="57.1783734" y2="15.283198" id="Stroke-26" stroke="#FFFFFF" stroke-width="3.08913587" stroke-linecap="round" stroke-linejoin="round"></line>
                                    <line x1="60.7387843" y1="15.283198" x2="67.512141" y2="15.283198" id="Stroke-27" stroke="#FFFFFF" stroke-width="3.08913587" stroke-linecap="round" stroke-linejoin="round"></line>
                                </g>
                            </g>
                        </g>
                        <text id="訪客預約" font-family="NotoSansTC-Regular, Noto Sans TC" font-size="54.0598778" font-weight="normal" fill="#000000">
                            <tspan x="185.290888" y="104.703334">訪客預約</tspan>
                        </text>
                    </g>
                    <g id="Group-27" transform="translate(135.879985, 980.800640)">
                        <g id="Group-31">
                            <rect id="Rectangle" fill="url(#linearGradient-1)" x="0" y="0" width="154.409073" height="154.456794" rx="77.2045367"></rect>
                            <g id="訊息管理" transform="translate(29.337724, 29.346791)">
                                <rect id="Rectangle" x="0" y="0" width="96.5056708" height="96.5354961"></rect>
                                <path d="M58.3055095,6.0334685 L18.0948133,6.0334685 C9.21227049,6.0334685 2.01053481,13.2374299 2.01053481,22.1227178 L2.01053481,38.2119672 C2.01053481,47.1012775 9.21227049,54.3012165 18.0948133,54.3012165 L22.1158829,54.3012165 L22.1158829,70.3904659 L40.2106962,54.3012165 L58.3055095,54.3012165 C67.1880522,54.3012165 74.3897879,47.1012775 74.3897879,38.2119672 L74.3897879,22.1227178 C74.3897879,13.2374299 67.1880522,6.0334685 58.3055095,6.0334685 Z" id="Stroke-1" stroke="#FFFFFF" stroke-width="3.08913587" stroke-linecap="round" stroke-linejoin="round"></path>
                                <path d="M46.2423006,68.3793097 C46.2423006,73.934123 50.7418775,78.4350905 56.2949747,78.4350905 L66.3476487,78.4350905 L78.4108576,90.5020276 L78.4108576,78.4350905 L84.442462,78.4350905 C89.9955591,78.4350905 94.495136,73.934123 94.495136,68.3793097 L94.495136,60.334685 C94.495136,54.7798717 89.9955591,50.2789042 84.442462,50.2789042" id="Stroke-3" stroke="#FFFFFF" stroke-width="3.08913587" stroke-linecap="round" stroke-linejoin="round"></path>
                            </g>
                        </g>
                        <text id="訊息服務" font-family="NotoSansTC-Regular, Noto Sans TC" font-size="54.0598778" font-weight="normal" fill="#000000">
                            <tspan x="185.290888" y="104.703334">訊息服務</tspan>
                        </text>
                    </g>
                </g>
            </g>
        </g>
    </g>
</svg>