<?xml version="1.0" encoding="UTF-8"?>
<svg width="496px" height="969px" viewBox="0 0 496 969" version="1.1" xmlns="http://www.w3.org/2000/svg" xmlns:xlink="http://www.w3.org/1999/xlink">
    <title>Group 3</title>
    <defs>
        <filter x="-2.5%" y="-1.3%" width="105.0%" height="102.5%" filterUnits="objectBoundingBox" id="filter-1">
            <feOffset dx="0" dy="0" in="SourceAlpha" result="shadowOffsetOuter1"></feOffset>
            <feGaussianBlur stdDeviation="3" in="shadowOffsetOuter1" result="shadowBlurOuter1"></feGaussianBlur>
            <feColorMatrix values="0 0 0 0 0   0 0 0 0 0   0 0 0 0 0  0 0 0 0.5 0" type="matrix" in="shadowBlurOuter1" result="shadowMatrixOuter1"></feColorMatrix>
            <feMerge>
                <feMergeNode in="shadowMatrixOuter1"></feMergeNode>
                <feMergeNode in="SourceGraphic"></feMergeNode>
            </feMerge>
        </filter>
        <polygon id="path-2" points="0 0 478 0 478 951 0 951"></polygon>
    </defs>
    <g id="Page-1" stroke="none" stroke-width="1" fill="none" fill-rule="evenodd">
        <g id="Group-3" filter="url(#filter-1)" transform="translate(9.000000, 9.000000)">
            <mask id="mask-3" fill="white">
                <use xlink:href="#path-2"></use>
            </mask>
            <g id="Clip-2"></g>
            <path d="M447.460476,877.483863 C447.460476,900.610389 430.339122,920.535605 407.155564,920.535605 L76.5369928,920.535605 C53.3534349,920.535605 33.1942578,900.610389 33.1942578,877.483863 L33.1942578,65.2027896 C33.1942578,42.0762642 53.3534349,25.1679885 76.5369928,25.1679885 L114.761804,25.1679885 C122.84026,25.1679885 125.827676,24.2461455 126.318298,34.4635175 C126.57033,39.7699808 128.522736,43.896485 131.651289,47.30898 C134.776483,50.6611361 139.074464,53.4132564 144.021006,54.9586003 C147.374708,56.0044731 151.108138,56.9531333 154.670186,56.9531333 L161.888375,56.9531333 L322.160386,56.9531333 L329.378575,56.9531333 C332.940623,56.9531333 336.674053,55.7899351 340.027755,54.7407102 C344.974298,53.1987184 349.272279,50.6209103 352.397472,47.3290929 C355.526026,43.9769367 357.478431,40.0280968 357.733824,34.7216336 C358.221085,24.5042616 361.208501,25.1679885 369.286958,25.1679885 L407.155564,25.1679885 C430.339122,25.1679885 447.460476,42.0762642 447.460476,65.2027896 L447.460476,877.483863 Z M216.132322,29.1402936 L267.916439,29.1402936 C270.114156,29.1402936 271.898541,30.501269 271.898541,32.4522238 C271.898541,34.4031787 270.114156,35.7641541 267.916439,35.7641541 L216.132322,35.7641541 C213.934605,35.7641541 212.150221,34.4031787 212.150221,32.4522238 C212.150221,30.501269 213.934605,29.1402936 216.132322,29.1402936 L216.132322,29.1402936 Z M295.135865,30.2800266 C295.135865,33.4813358 292.534898,36.0759047 289.325694,36.0759047 C286.11985,36.0759047 283.518883,33.4813358 283.518883,30.2800266 C283.518883,27.0820697 286.11985,24.4875008 289.325694,24.4875008 C292.534898,24.4875008 295.135865,27.0820697 295.135865,30.2800266 L295.135865,30.2800266 Z M472.687171,215.895618 L472.687171,67.8141192 C472.687171,30.3604784 442.251821,0 404.705815,0 L74.3997638,0 C35.6708895,0 3.98210118,31.6108326 3.98210118,70.2444325 L3.98210118,124.505784 C1.78102416,124.505784 0,126.282427 0,128.478089 L0,156.294281 C0,158.486591 1.78102416,160.266586 3.98210118,160.266586 L3.98210118,193.379185 C1.78102416,193.379185 0,195.15918 0,197.354842 L0,256.956179 C0,259.151841 1.78102416,260.928484 3.98210118,260.928484 L3.98210118,280.796713 C1.78102416,280.796713 0,282.576708 0,284.772371 L0,344.373707 C0,346.56937 1.78102416,348.349364 3.98210118,348.349364 L3.98210118,880.537677 C3.98210118,919.291955 35.7683417,951 74.6181913,951 L404.705815,951 C442.097241,951 472.687171,920.485322 472.687171,883.185881 L472.687171,325.829579 L474.014538,325.829579 C476.215615,325.829579 478,324.052937 478,321.857274 L478,219.871275 C478,217.675613 476.215615,215.895618 474.014538,215.895618 L472.687171,215.895618 Z" id="Fill-1" fill="#FFFFFF" mask="url(#mask-3)"></path>
            <rect id="Rectangle" fill="#F2F2F2" mask="url(#mask-3)" x="283" y="24" width="13" height="13" rx="6.5"></rect>
            <rect id="Rectangle" fill="#F2F2F2" mask="url(#mask-3)" x="211" y="25" width="62" height="11" rx="5.5"></rect>
        </g>
    </g>
</svg>