<?xml version="1.0" encoding="UTF-8"?>
<svg width="527px" height="418px" viewBox="0 0 527 418" version="1.1" xmlns="http://www.w3.org/2000/svg" xmlns:xlink="http://www.w3.org/1999/xlink">
    <title>Group 26</title>
    <defs>
        <polygon id="path-1" points="0 0 389.927 0 389.927 128.7514 0 128.7514"></polygon>
        <polygon id="path-3" points="0 0 12.417 0 12.417 21.6274 0 21.6274"></polygon>
    </defs>
    <g id="Page-1" stroke="none" stroke-width="1" fill="none" fill-rule="evenodd">
        <g id="Group-26" transform="translate(0.000000, 1.000000)">
            <path d="M273,278 C349.76758,278 412,215.76758 412,139 C412,62.2324198 349.76758,0 273,0 C196.23242,0 134,62.2324198 134,139 C134,215.76758 196.23242,278 273,278 Z" id="Oval" stroke="#3299F9" stroke-width="2" stroke-linecap="round" stroke-dasharray="6"></path>
            <g id="Group-19" transform="translate(366.000000, 39.000000)">
                <rect id="Rectangle" stroke="#FFFFFF" stroke-width="3" fill="#00A0F1" x="0" y="0" width="36" height="36" rx="18"></rect>
                <g id="Group-25" transform="translate(9.000000, 8.000000)" stroke="#FFFFFF" stroke-linecap="round" stroke-linejoin="round">
                    <polyline id="Stroke-1" points="8.05842159 19.5299342 0 19.5299342 0 2.54738272 3.53827512 2.54738272"></polyline>
                    <polyline id="Stroke-3" points="10.6150023 2.54738272 14.1532774 2.54738272 14.1532774 8.49127572"></polyline>
                    <path d="M8.84586471,1.69825514 C8.84586471,0.760818305 8.05417566,0 7.07672715,0 C6.10016322,0 5.30758959,0.760818305 5.30758959,1.69825514 L3.53845203,1.69825514 L3.53845203,5.09476543 L10.6150023,5.09476543 L10.6150023,1.69825514 L8.84586471,1.69825514 Z" id="Stroke-4"></path>
                    <polyline id="Stroke-6" points="12.3841398 11.0843415 12.3841398 4.24546804 10.6150023 4.24546804"></polyline>
                    <polyline id="Stroke-8" points="3.53845203 4.24563786 1.76931447 4.24563786 1.76931447 16.9825514 8.94316728 16.9825514"></polyline>
                    <line x1="4.14986597" y1="8.36602941" x2="8.72397114" y2="8.36602941" id="Stroke-10"></line>
                    <line x1="4.14986597" y1="10.6004237" x2="8.72397114" y2="10.6004237" id="Stroke-12"></line>
                    <path d="M10.3217677,18.1268358 C9.9767859,18.747548 10.2218115,19.519405 10.8684312,19.8497156 C11.5141664,20.1808754 12.3182395,19.9465162 12.6632213,19.3258039 L18.6995186,8.46206574 C19.0436159,7.84135348 18.7994749,7.06949652 18.1528551,6.73833676 C17.5062354,6.40717701 16.7021623,6.64238535 16.3580651,7.2630976 L10.3217677,18.1268358 Z" id="Stroke-14"></path>
                    <line x1="12.8713603" y1="18.950999" x2="10.5299068" y2="17.7520309" id="Stroke-16"></line>
                    <line x1="15.7852183" y1="13.7063625" x2="13.4437648" y2="12.5073944" id="Stroke-18"></line>
                    <path d="M16.7217998,15.6293817 L19.843443,10.0098555 C20.1884248,9.38999235 19.9442838,8.61813538 19.297664,8.28697563 L18.9075692,8.08743065" id="Stroke-20"></path>
                    <path d="M3.63557769,14.9054156 C3.63557769,14.9054156 3.63557769,13.2071604 4.74128866,13.2071604 C5.84699964,13.2071604 5.47813445,15.3299794 6.58384543,14.9054156 C7.6895564,14.4808518 7.6895564,14.056288 8.42728677,14.4808518 C9.16413256,14.9054156 10.2698435,14.4808518 10.2698435,14.4808518" id="Stroke-22" stroke-width="0.913"></path>
                </g>
                <text id="巡邏執行管理" font-family="NotoSansTC-Regular, Noto Sans TC" font-size="18" font-weight="normal" fill="#333333">
                    <tspan x="45" y="26">巡邏執行管理</tspan>
                </text>
            </g>
            <g id="Group-674" transform="translate(79.000100, 118.000000)">
                <g id="Group-3" transform="translate(0.000000, 169.747600)">
                    <mask id="mask-2" fill="white">
                        <use xlink:href="#path-1"></use>
                    </mask>
                    <g id="Clip-2"></g>
                    <path d="M0,1.052 L0,11.238 C0,15.785 2.423,19.987 6.358,22.266 L186.353,126.471 C191.619,129.512 198.108,129.512 203.374,126.47 L385.755,21.145 C388.306,19.672 389.88,16.953 389.889,14.007 L389.927,0 L203.372,113.023 C198.107,116.064 191.62,116.064 186.355,113.024 L0,1.052 Z" id="Fill-1" fill="#D3E5FB" mask="url(#mask-2)"></path>
                </g>
                <path d="M3.5798,177.2462 L186.4358,282.8182 C191.6508,285.8292 198.0768,285.8292 203.2908,282.8172 L386.1448,177.2302 C390.9178,174.4732 390.9178,167.5842 386.1438,164.8282 L194.8638,54.4182 L3.5798,164.8452 C-1.1932,167.6002 -1.1932,174.4902 3.5798,177.2462" id="Fill-4" fill="#FFFFFF"></path>
                <g id="Group-34" transform="translate(74.608500, 107.524800)" fill="#CBE1FA">
                    <polygon id="Fill-8" points="28.2839 0 42.7619 8.672 40.6539 9.891 25.9669 1.338"></polygon>
                    <polygon id="Fill-10" points="49.3593 12.3499 63.8373 21.0219 61.7293 22.2409 47.0423 13.6879"></polygon>
                    <polygon id="Fill-12" points="70.703 24.9682 85.181 33.6402 83.072 34.8592 68.386 26.3062"></polygon>
                    <polygon id="Fill-14" points="91.7784 37.3181 106.2564 45.9901 104.1474 47.2091 89.4614 38.6561"></polygon>
                    <polygon id="Fill-16" points="114.9818 50.6728 129.4598 59.3448 127.3518 60.5638 112.6648 52.0108"></polygon>
                    <polygon id="Fill-18" points="136.0571 63.0227 150.5351 71.6947 148.4271 72.9137 133.7401 64.3607"></polygon>
                    <polygon id="Fill-20" points="157.4009 75.641 171.8789 84.313 169.7709 85.532 155.0839 76.979"></polygon>
                    <polygon id="Fill-22" points="178.4762 87.9909 192.9542 96.6629 190.8452 97.8819 176.1592 89.3289"></polygon>
                    <polygon id="Fill-24" points="200.3463 101.0201 214.8243 109.6921 212.7163 110.9111 198.0293 102.3581"></polygon>
                    <polygon id="Fill-26" points="221.4216 113.37 228.5566 117.706 226.4476 118.925 219.1046 114.708"></polygon>
                    <polygon id="Fill-28" points="2.327 112.0712 16.861 103.6262 14.747 102.4252 0 110.7112"></polygon>
                    <polygon id="Fill-30" points="24.8106 99.5446 39.3446 91.0996 37.2306 89.8986 22.4836 98.1846"></polygon>
                    <polygon id="Fill-32" points="47.5084 86.8039 62.0424 78.3589 59.9284 77.1579 45.1814 85.4439"></polygon>
                    <polygon id="Fill-34" points="69.9921 74.2772 84.5261 65.8322 82.4121 64.6312 67.6651 72.9172"></polygon>
                    <polygon id="Fill-36" points="92.8091 61.2631 103.1411 55.2401 101.0271 54.0401 90.4821 59.9031"></polygon>
                    <polygon id="Fill-38" points="155.6299 63.3788 170.1639 54.9338 168.0499 53.7328 153.3029 62.0188"></polygon>
                    <polygon id="Fill-40" points="178.1135 50.8522 192.6475 42.4072 190.5335 41.2062 175.7865 49.4922"></polygon>
                    <polygon id="Fill-42" points="200.8113 38.1115 215.3453 29.6665 213.2313 28.4655 198.4843 36.7515"></polygon>
                    <polygon id="Fill-44" points="223.295 25.5848 237.829 17.1398 235.715 15.9388 220.967 24.2248"></polygon>
                    <polygon id="Fill-46" points="246.112 12.5707 256.444 6.5477 254.33 5.3477 243.785 11.2107"></polygon>
                </g>
                <polygon id="Fill-48" fill="#62CAEA" points="78.002 158.5282 106.998 175.4702 136.378 158.6272 107.37 141.6972"></polygon>
                <polygon id="Fill-50" fill="#FFFFFF" points="80.0865 157.9734 80.0865 159.7824 109.5125 142.9384 109.5125 141.1704"></polygon>
                <polygon id="Fill-52" fill="#EFEFEF" points="78.7709 158.986 80.0869 159.782 80.0869 157.973 78.7709 157.278"></polygon>
                <polygon id="Fill-54" fill="#EFEFEF" points="109.5127 141.1701 108.0997 140.3371 78.7707 157.2781 80.0867 157.9731"></polygon>
                <polygon id="Fill-56" fill="#DBDBDA" points="135.1604 157.5434 108.2434 141.8944 108.2944 143.6364 135.1604 159.3524"></polygon>
                <polygon id="Fill-58" fill="#EFEFEF" points="106.9796 141.1596 135.1606 157.5436 136.3776 156.8476 108.0996 140.3376"></polygon>
                <polygon id="Fill-60" fill="#FFFFFF" points="106.9518 173.6618 106.9518 175.4708 136.3778 158.6268 136.3778 156.8588"></polygon>
                <polygon id="Fill-62" fill="#EFEFEF" points="105.6362 174.6745 106.9522 175.4705 106.9522 173.6615 105.6362 172.9665"></polygon>
                <polygon id="Fill-64" fill="#EFEFEF" points="136.378 156.8585 134.965 156.0255 105.636 172.9665 106.952 173.6615"></polygon>
                <polygon id="Fill-66" fill="#DBDBDA" points="106.9518 173.6618 78.7708 157.2778 78.7708 158.9858 106.9518 175.4708"></polygon>
                <polygon id="Fill-68" fill="#EFEFEF" points="78.7709 157.2781 106.9519 173.6621 108.1689 172.9661 80.0869 156.5181"></polygon>
                <polygon id="Fill-70" fill="#59C3DC" points="108.2939 143.6364 108.2939 148.3414 87.2169 160.6944 82.9049 158.1684"></polygon>
                <polygon id="Fill-72" fill="#4BBBCD" points="132.0686 157.5434 108.2936 143.6364 108.2936 148.3414 128.0396 160.0254"></polygon>
                <polygon id="Fill-76" fill="#BADFFF" points="132.5346 98.1021 132.5346 24.2011 169.1356 45.3201 169.0976 119.2111"></polygon>
                <polygon id="Fill-78" fill="#3299F9" points="205.6389 98.0677 169.0979 119.2117 169.1359 45.3197 205.6889 24.2187"></polygon>
                <polygon id="Fill-80" fill="#EEF6FF" points="132.5346 24.2007 169.0976 3.1097 205.6896 24.2187 169.1356 45.3197"></polygon>
                <polygon id="Fill-82" fill="#EEF6FF" points="140.3723 20.3267 169.1003 3.7547 197.8513 20.3407 169.1303 36.9207"></polygon>
                <polygon id="Fill-84" fill="#BADFFF" points="140.3723 24.1974 140.3723 20.3264 169.1303 36.9204 169.1303 40.7914"></polygon>
                <polygon id="Fill-86" fill="#3299F9" points="197.8515 20.3409 197.8515 24.2119 169.1305 40.7909 169.1305 36.9209"></polygon>
                <polygon id="Fill-88" fill="#EEF6FF" points="149.2208 14.4353 169.1038 2.9653 189.0028 14.4453 169.1248 25.9203"></polygon>
                <polygon id="Fill-90" fill="#BADFFF" points="149.2208 20.4123 149.2208 14.4433 169.1248 25.9283 169.1248 31.8973"></polygon>
                <polygon id="Fill-92" fill="#3299F9" points="189.003 14.4528 189.003 20.4218 169.125 31.8968 169.125 25.9278"></polygon>
                <polygon id="Fill-94" fill="#BADFFF" points="156.7111 14.4532 169.1441 0.0002 169.1441 21.6272"></polygon>
                <g id="Group-98" transform="translate(169.143700, 0.000000)">
                    <mask id="mask-4" fill="white">
                        <use xlink:href="#path-3"></use>
                    </mask>
                    <g id="Clip-97"></g>
                    <polygon id="Fill-96" fill="#3299F9" mask="url(#mask-4)" points="12.417 14.4594 0 21.6274 0 -0.0006"></polygon>
                </g>
                <polygon id="Fill-99" fill="#82C5E1" points="178.2308 50.5925 178.2678 103.3805 182.8148 100.7375 182.8078 47.9675"></polygon>
                <polygon id="Fill-101" fill="#467988" points="182.819 100.7312 181.876 100.2142 181.876 48.5012 182.819 47.9682"></polygon>
                <polygon id="Fill-103" fill="#B2E1EF" points="178.2679 103.38 182.8189 100.731 181.8759 100.214 178.2679 102.311"></polygon>
                <polygon id="Fill-105" fill="#82C5E1" points="138.4376 45.9816 138.4216 37.3986 145.1316 41.2996 145.1216 49.7996"></polygon>
                <polygon id="Fill-107" fill="#467988" points="139.8289 38.1967 138.4379 37.3987 138.4379 45.9817 139.8289 45.1847"></polygon>
                <polygon id="Fill-109" fill="#B2E1EF" points="139.8289 45.1869 145.1379 48.3189 145.1209 49.8769 138.4209 45.9879"></polygon>
                <polygon id="Fill-111" fill="#82C5E1" points="147.9604 51.596 147.9444 43.013 154.6544 46.914 154.6444 55.414"></polygon>
                <polygon id="Fill-113" fill="#467988" points="149.3517 43.811 147.9607 43.013 147.9607 51.596 149.3517 50.799"></polygon>
                <polygon id="Fill-115" fill="#B2E1EF" points="149.3517 50.8013 154.6607 53.9333 154.6437 55.4903 147.9437 51.6023"></polygon>
                <polygon id="Fill-117" fill="#82C5E1" points="157.8177 57.4062 157.8017 48.8232 164.5117 52.7242 164.5017 61.2242"></polygon>
                <polygon id="Fill-119" fill="#467988" points="159.2091 49.6212 157.8181 48.8232 157.8181 57.4062 159.2091 56.6092"></polygon>
                <polygon id="Fill-121" fill="#B2E1EF" points="159.2091 56.6115 164.5181 59.7435 164.5011 61.3005 157.8011 57.4125"></polygon>
                <polygon id="Fill-123" fill="#82C5E1" points="138.4376 58.3819 138.4216 49.7989 145.1316 53.6999 145.1216 62.1989"></polygon>
                <polygon id="Fill-125" fill="#467988" points="139.8289 50.5969 138.4379 49.7989 138.4379 58.3819 139.8289 57.5849"></polygon>
                <polygon id="Fill-127" fill="#B2E1EF" points="139.8289 57.5872 145.1379 60.7192 145.1209 62.2762 138.4209 58.3882"></polygon>
                <polygon id="Fill-129" fill="#82C5E1" points="147.9604 63.9962 147.9444 55.4132 154.6544 59.3142 154.6444 67.8142"></polygon>
                <polygon id="Fill-131" fill="#467988" points="149.3517 56.2113 147.9607 55.4133 147.9607 63.9963 149.3517 63.1993"></polygon>
                <polygon id="Fill-133" fill="#B2E1EF" points="149.3517 63.2015 154.6607 66.3335 154.6437 67.8905 147.9437 64.0025"></polygon>
                <polygon id="Fill-135" fill="#82C5E1" points="157.8177 69.8064 157.8017 61.2234 164.5117 65.1244 164.5017 73.6244"></polygon>
                <polygon id="Fill-137" fill="#467988" points="159.2091 62.0215 157.8181 61.2235 157.8181 69.8065 159.2091 69.0095"></polygon>
                <polygon id="Fill-139" fill="#B2E1EF" points="159.2091 69.0117 164.5181 72.1437 164.5011 73.7017 157.8011 69.8127"></polygon>
                <polygon id="Fill-141" fill="#82C5E1" points="138.4376 70.7821 138.4216 62.1991 145.1316 66.1001 145.1216 74.6001"></polygon>
                <polygon id="Fill-143" fill="#467988" points="139.8289 62.9972 138.4379 62.1992 138.4379 70.7822 139.8289 69.9852"></polygon>
                <polygon id="Fill-145" fill="#B2E1EF" points="139.8289 69.9874 145.1379 73.1194 145.1209 74.6774 138.4209 70.7884"></polygon>
                <polygon id="Fill-147" fill="#82C5E1" points="147.9604 76.3965 147.9444 67.8135 154.6544 71.7145 154.6444 80.2145"></polygon>
                <polygon id="Fill-149" fill="#467988" points="149.3517 68.6115 147.9607 67.8135 147.9607 76.3965 149.3517 75.5995"></polygon>
                <polygon id="Fill-151" fill="#B2E1EF" points="149.3517 75.6018 154.6607 78.7338 154.6437 80.2908 147.9437 76.4028"></polygon>
                <polygon id="Fill-153" fill="#82C5E1" points="157.8177 82.2067 157.8017 73.6237 164.5117 77.5247 164.5017 86.0247"></polygon>
                <polygon id="Fill-155" fill="#467988" points="159.2091 74.4217 157.8181 73.6237 157.8181 82.2067 159.2091 81.4097"></polygon>
                <polygon id="Fill-157" fill="#B2E1EF" points="159.2091 81.412 164.5181 84.544 164.5011 86.101 157.8011 82.213"></polygon>
                <polygon id="Fill-159" fill="#82C5E1" points="138.4376 83.1824 138.4216 74.5994 145.1316 78.5004 145.1216 87.0004"></polygon>
                <polygon id="Fill-161" fill="#467988" points="139.8289 75.3974 138.4379 74.5994 138.4379 83.1824 139.8289 82.3854"></polygon>
                <polygon id="Fill-163" fill="#B2E1EF" points="139.8289 82.3877 145.1379 85.5197 145.1209 87.0767 138.4209 83.1887"></polygon>
                <polygon id="Fill-165" fill="#82C5E1" points="147.9604 88.7967 147.9444 80.2137 154.6544 84.1147 154.6444 92.6147"></polygon>
                <polygon id="Fill-167" fill="#467988" points="149.3517 81.0118 147.9607 80.2138 147.9607 88.7968 149.3517 87.9998"></polygon>
                <polygon id="Fill-169" fill="#B2E1EF" points="149.3517 88.002 154.6607 91.134 154.6437 92.692 147.9437 88.803"></polygon>
                <polygon id="Fill-171" fill="#82C5E1" points="157.8177 94.607 157.8017 86.024 164.5117 89.925 164.5017 98.424"></polygon>
                <polygon id="Fill-173" fill="#467988" points="159.2091 86.822 157.8181 86.024 157.8181 94.607 159.2091 93.81"></polygon>
                <polygon id="Fill-175" fill="#B2E1EF" points="159.2091 93.8123 164.5181 96.9443 164.5011 98.5013 157.8011 94.6133"></polygon>
                <polygon id="Fill-177" fill="#82C5E1" points="191.9432 42.6746 191.9802 95.4626 196.5272 92.8196 196.5202 40.0496"></polygon>
                <polygon id="Fill-179" fill="#467988" points="196.5314 92.8133 195.5884 92.2963 195.5884 40.5833 196.5314 40.0493"></polygon>
                <polygon id="Fill-181" fill="#B2E1EF" points="191.9803 95.4621 196.5313 92.8131 195.5883 92.2961 191.9803 94.3931"></polygon>
                <polygon id="Fill-183" fill="#A8AAA2" points="147.4801 106.7315 147.4961 94.1515 154.1901 98.0525 154.1801 110.6205"></polygon>
                <polygon id="Fill-185" fill="#919289" points="154.1904 98.0521 147.5014 94.1521 147.5014 106.6751 154.1854 103.0131"></polygon>
                <polygon id="Fill-189" fill="#EEF6FF" points="24.2797 173.0682 60.7677 152.0202 97.2847 173.0862 60.8057 194.1442"></polygon>
                <polygon id="Fill-191" fill="#BADFFF" points="24.2797 177.9844 24.2797 173.0684 60.8057 194.1444 60.8057 199.0604"></polygon>
                <polygon id="Fill-193" fill="#3299F9" points="97.2842 173.0862 97.2842 178.0022 60.8062 199.0602 60.8062 194.1442"></polygon>
                <polygon id="Fill-195" fill="#82C5E1" points="27.8906 173.2648 27.8906 136.1828 60.8036 155.1738 60.7686 192.2468"></polygon>
                <polygon id="Fill-197" fill="#82C5E1" points="93.628 173.2338 60.769 192.2468 60.804 155.1658 93.673 136.1908"></polygon>
                <polygon id="Fill-199" fill="#DFE0DE" points="27.8906 136.1872 60.7686 117.2212 93.6736 136.2032 60.8036 155.1782"></polygon>
                <polygon id="Fill-205" fill="#5EB4AE" points="93.663 144.6395 93.673 141.2875 60.806 160.2615 60.806 164.2145"></polygon>
                <polygon id="Fill-207" fill="#5EB4AE" points="27.9235 141.2879 60.8055 160.2609 60.8055 164.2149 27.8905 145.0359"></polygon>
                <polygon id="Fill-209" fill="#BAE2E2" points="54.6238 188.699 55.0008 188.916 55.0008 156.911 54.6238 156.694"></polygon>
                <polygon id="Fill-211" fill="#BAE2E2" points="47.0827 184.3518 47.4597 184.5688 47.4597 152.5638 47.0827 152.3468"></polygon>
                <polygon id="Fill-213" fill="#BAE2E2" points="40.3762 180.493 40.7532 180.71 40.7532 148.706 40.3762 148.488"></polygon>
                <polygon id="Fill-215" fill="#BAE2E2" points="33.9489 176.767 34.3259 176.984 34.3259 144.98 33.9489 144.762"></polygon>
                <polygon id="Fill-217" fill="#BAE2E2" points="60.7819 168.3418 60.7819 167.8978 27.8909 148.9178 27.8909 149.3618"></polygon>
                <polygon id="Fill-219" fill="#BAE2E2" points="60.7819 180.5116 60.7819 180.0676 27.8909 161.0876 27.8909 161.5316"></polygon>
                <polygon id="Fill-221" fill="#C4E6E6" points="66.9616 188.699 66.5846 188.916 66.5846 156.911 66.9616 156.694"></polygon>
                <polygon id="Fill-223" fill="#C4E6E6" points="74.5027 184.3518 74.1257 184.5688 74.1257 152.5638 74.5027 152.3468"></polygon>
                <polygon id="Fill-225" fill="#C4E6E6" points="81.2093 180.493 80.8323 180.71 80.8323 148.706 81.2093 148.488"></polygon>
                <polygon id="Fill-227" fill="#C4E6E6" points="87.6365 176.767 87.2595 176.984 87.2595 144.98 87.6365 144.762"></polygon>
                <polygon id="Fill-229" fill="#C4E6E6" points="60.8035 168.3418 60.8035 167.8978 93.6945 148.9178 93.6945 149.3618"></polygon>
                <polygon id="Fill-231" fill="#C4E6E6" points="60.8035 180.5116 60.8035 180.0676 93.6945 161.0876 93.6945 161.5316"></polygon>
                <polygon id="Fill-233" fill="#EEF6FF" points="24.2797 134.2703 60.7677 113.2223 97.2847 134.2883 60.8057 155.3463"></polygon>
                <polygon id="Fill-235" fill="#BADFFF" points="24.2797 139.1864 24.2797 134.2704 60.8057 155.3464 60.8057 160.2624"></polygon>
                <polygon id="Fill-237" fill="#3299F9" points="97.2842 134.2883 97.2842 139.2043 60.8062 160.2623 60.8062 155.3463"></polygon>
                <polygon id="Fill-239" fill="#82C5E1" points="27.8906 134.4669 27.8906 97.3849 60.8036 116.3759 60.7686 153.4489"></polygon>
                <polygon id="Fill-241" fill="#82C5E1" points="93.628 134.4359 60.769 153.4489 60.804 116.3669 93.673 97.3929"></polygon>
                <polygon id="Fill-243" fill="#DFE0DE" points="27.8906 97.3893 60.7686 78.4233 93.6736 97.4053 60.8036 116.3803"></polygon>
                <polygon id="Fill-249" fill="#5EB4AE" points="93.663 105.8415 93.673 102.4895 60.806 121.4635 60.806 125.4165"></polygon>
                <polygon id="Fill-251" fill="#5EB4AE" points="27.9235 102.49 60.8055 121.463 60.8055 125.417 27.8905 106.238"></polygon>
                <polygon id="Fill-253" fill="#BAE2E2" points="54.6238 149.9011 55.0008 150.1181 55.0008 118.1131 54.6238 117.8961"></polygon>
                <polygon id="Fill-255" fill="#BAE2E2" points="47.0827 145.5539 47.4597 145.7709 47.4597 113.7659 47.0827 113.5489"></polygon>
                <polygon id="Fill-257" fill="#BAE2E2" points="40.3762 141.6951 40.7532 141.9131 40.7532 109.9081 40.3762 109.6901"></polygon>
                <polygon id="Fill-259" fill="#ACDDDD" points="33.9489 137.9691 34.3259 138.1861 34.3259 106.1821 33.9489 105.9641"></polygon>
                <polygon id="Fill-261" fill="#BAE2E2" points="60.7819 129.5439 60.7819 129.0999 27.8909 110.1199 27.8909 110.5639"></polygon>
                <polygon id="Fill-263" fill="#BAE2E2" points="60.7819 141.7137 60.7819 141.2697 27.8909 122.2897 27.8909 122.7337"></polygon>
                <polygon id="Fill-265" fill="#C4E6E6" points="66.9616 149.9011 66.5846 150.1181 66.5846 118.1131 66.9616 117.8961"></polygon>
                <polygon id="Fill-267" fill="#C4E6E6" points="74.5027 145.5539 74.1257 145.7709 74.1257 113.7659 74.5027 113.5489"></polygon>
                <polygon id="Fill-269" fill="#C4E6E6" points="81.2093 141.6951 80.8323 141.9131 80.8323 109.9081 81.2093 109.6901"></polygon>
                <polygon id="Fill-271" fill="#C4E6E6" points="87.6365 137.9691 87.2595 138.1861 87.2595 106.1821 87.6365 105.9641"></polygon>
                <polygon id="Fill-273" fill="#C4E6E6" points="60.8035 129.5439 60.8035 129.0999 93.6945 110.1199 93.6945 110.5639"></polygon>
                <polygon id="Fill-275" fill="#C4E6E6" points="60.8035 141.7137 60.8035 141.2697 93.6945 122.2897 93.6945 122.7337"></polygon>
                <polygon id="Fill-277" fill="#EEF6FF" points="24.2797 95.2741 60.7677 74.2261 97.2847 95.2921 60.8057 116.3501"></polygon>
                <polygon id="Fill-279" fill="#BADFFF" points="24.2797 100.1903 24.2797 95.2743 60.8057 116.3503 60.8057 121.2663"></polygon>
                <polygon id="Fill-281" fill="#3299F9" points="97.2842 95.2922 97.2842 100.2082 60.8062 121.2662 60.8062 116.3502"></polygon>
                <polygon id="Fill-283" fill="#82C5E1" points="27.8906 95.4707 27.8906 58.3887 60.8036 77.3797 60.7686 114.4527"></polygon>
                <polygon id="Fill-285" fill="#82C5E1" points="93.628 95.4397 60.769 114.4527 60.804 77.3717 93.673 58.3967"></polygon>
                <polygon id="Fill-287" fill="#DFE0DE" points="27.8906 58.3931 60.7686 39.4271 93.6736 58.4091 60.8036 77.3841"></polygon>
                <polygon id="Fill-293" fill="#EEF6FF" points="24.2797 56.4751 60.7677 35.4271 97.2847 56.4931 60.8057 77.5511"></polygon>
                <polygon id="Fill-295" fill="#BADFFF" points="24.2797 61.3913 24.2797 56.4753 60.8057 77.5513 60.8057 82.4673"></polygon>
                <polygon id="Fill-297" fill="#3299F9" points="97.2842 56.4932 97.2842 61.4092 60.8062 82.4672 60.8062 77.5512"></polygon>
                <polygon id="Fill-299" fill="#EEF6FF" points="30.1556 56.4774 60.7696 38.8174 91.4086 56.4924 60.8016 74.1604"></polygon>
                <polygon id="Fill-301" fill="#3299F9" points="60.77 38.8176 60.769 41.9276 88.654 58.0826 91.408 56.4926"></polygon>
                <polygon id="Fill-303" fill="#3299F9" points="30.1556 56.4774 60.7696 38.8174 60.7686 41.9274 32.9376 58.0824"></polygon>
                <polygon id="Fill-305" fill="#5EB4AE" points="93.663 66.8454 93.673 63.4934 60.806 82.4674 60.806 86.4204"></polygon>
                <polygon id="Fill-307" fill="#5EB4AE" points="27.9235 63.4938 60.8055 82.4668 60.8055 86.4208 27.8905 67.2418"></polygon>
                <polygon id="Fill-309" fill="#BAE2E2" points="54.6238 110.9049 55.0008 111.1219 55.0008 79.1179 54.6238 78.8999"></polygon>
                <polygon id="Fill-311" fill="#BAE2E2" points="47.0827 106.5577 47.4597 106.7747 47.4597 74.7707 47.0827 74.5527"></polygon>
                <polygon id="Fill-313" fill="#BAE2E2" points="40.3762 102.699 40.7532 102.916 40.7532 70.911 40.3762 70.694"></polygon>
                <polygon id="Fill-315" fill="#BAE2E2" points="33.9489 98.973 34.3259 99.19 34.3259 67.185 33.9489 66.968"></polygon>
                <polygon id="Fill-317" fill="#BAE2E2" points="60.7819 90.5477 60.7819 90.1037 27.8909 71.1237 27.8909 71.5677"></polygon>
                <polygon id="Fill-319" fill="#BAE2E2" points="60.7819 102.7175 60.7819 102.2735 27.8909 83.2935 27.8909 83.7375"></polygon>
                <polygon id="Fill-321" fill="#C4E6E6" points="66.9616 110.9049 66.5846 111.1219 66.5846 79.1179 66.9616 78.8999"></polygon>
                <polygon id="Fill-323" fill="#C4E6E6" points="74.5027 106.5577 74.1257 106.7747 74.1257 74.7707 74.5027 74.5527"></polygon>
                <polygon id="Fill-325" fill="#C4E6E6" points="81.2093 102.699 80.8323 102.916 80.8323 70.911 81.2093 70.694"></polygon>
                <polygon id="Fill-327" fill="#C4E6E6" points="87.6365 98.973 87.2595 99.19 87.2595 67.185 87.6365 66.968"></polygon>
                <polygon id="Fill-329" fill="#C4E6E6" points="60.8035 90.5477 60.8035 90.1037 93.6945 71.1237 93.6945 71.5677"></polygon>
                <polygon id="Fill-331" fill="#C4E6E6" points="60.8035 102.7175 60.8035 102.2735 93.6945 83.2935 93.6945 83.7375"></polygon>
                <polygon id="Fill-333" fill="#3299F9" points="70.8247 55.7745 70.8257 60.4455 60.7567 66.2695 60.7567 61.6075"></polygon>
                <polygon id="Fill-335" fill="#BADFFF" points="50.7378 60.3968 60.7568 66.2698 60.7568 61.6068 50.7378 55.7748"></polygon>
                <polygon id="Fill-337" fill="#EEF6FF" points="70.8247 55.7745 60.7567 49.8945 50.7377 55.7745 60.7567 61.6075"></polygon>
                <polygon id="Fill-339" fill="#C1C0C0" points="61.9049 24.5018 60.7819 25.1658 60.7819 56.1728 61.9049 55.5098"></polygon>
                <polygon id="Fill-341" fill="#D2D5CF" points="59.6583 24.5018 60.7813 25.1658 60.7813 56.1728 59.6583 55.5098"></polygon>
                <polygon id="Fill-343" fill="#3F4040" opacity="0.304544631" points="60.7819 56.1731 65.4429 58.8791 66.7509 58.1461 61.9049 55.5091"></polygon>
                <polygon id="Fill-345" fill="#3F4040" opacity="0.304544631" points="75.4118 65.7306 72.6748 64.2776 75.1288 62.7556 70.8258 60.3966 60.8068 66.2696 65.3528 68.8176 71.4888 65.0126 74.1038 66.4626"></polygon>
                <polygon id="Fill-347" fill="#EAEAE9" points="80.8325 180.7105 82.5005 181.6205 82.5005 186.5365 80.8325 185.6915"></polygon>
                <polygon id="Fill-349" fill="#7FC5C2" points="80.8326 180.6388 80.8326 185.6918 82.4996 186.5368 80.8326 187.4998 74.5026 191.1548 74.5026 184.3008"></polygon>
                <path d="M224.3064,137.237 L241.4034,137.248 L275.4784,117.552 C275.4784,117.552 266.8114,112.548 266.7704,112.524 C266.7304,112.501 198.5794,112.524 198.5794,112.524 L190.2504,117.575 L224.3064,137.237 Z" id="Fill-357" fill="#D4E6FD" opacity="0.39797247"></path>
                <polygon id="Fill-359" fill="#BADFFF" points="198.9673 88.3321 224.3663 102.9881 224.3673 132.3631 198.9673 117.6981"></polygon>
                <polygon id="Fill-361" fill="#BADFFF" points="224.3509 132.364 241.3199 132.364 241.3199 103.016 224.3509 103.016"></polygon>
                <polygon id="Fill-363" fill="#3299F9" points="241.3198 103.0169 266.7708 88.3309 266.7238 117.6579 241.3198 132.3649"></polygon>
                <polygon id="Fill-364" fill="#EEF6FF" points="198.9673 88.3321 232.7813 68.7471 266.7713 88.3301 241.3203 103.0171 224.3513 103.0171"></polygon>
                <polygon id="Fill-365" fill="#C6C5C5" points="198.9673 88.3321 232.7813 68.7471 232.7943 67.7231 198.9673 87.2441"></polygon>
                <polygon id="Fill-366" fill="#B7B7B7" points="266.7708 88.3321 232.7818 68.7471 232.7938 67.7231 266.7708 87.2441"></polygon>
                <polygon id="Fill-367" fill="#DFE0DE" points="198.9673 88.3321 224.3603 103.0221 224.3603 102.0331 198.9673 87.2441"></polygon>
                <polygon id="Fill-368" fill="#EDECED" points="224.3599 103.017 241.3199 103.017 241.3199 102.033 224.3599 102.033"></polygon>
                <polygon id="Fill-369" fill="#DFE0DE" points="241.3198 102.0327 266.7708 87.2447 266.7708 88.3317 241.3198 103.0167"></polygon>
                <polygon id="Fill-370" fill="#D2D5CF" points="198.9673 118.6661 224.3603 133.3561 224.3603 132.3671 198.9673 117.5791"></polygon>
                <polygon id="Fill-371" fill="#D2D5CF" points="224.3599 133.351 241.3199 133.351 241.3199 132.367 224.3599 132.367"></polygon>
                <polygon id="Fill-372" fill="#A8AAA2" points="241.3198 132.3667 266.7708 117.5787 266.7708 118.6657 241.3198 133.3507"></polygon>
                <polygon id="Fill-373" fill="#FFFFFF" points="246.6445 109.3792 261.4465 100.8192 261.4455 115.7232 246.6445 124.3092 246.6445 115.9172"></polygon>
                <polygon id="Fill-374" fill="#96D4E7" points="247.4248 109.715 260.6658 102.058 260.6648 115.39 247.4248 123.071 247.4248 115.564"></polygon>
                <polygon id="Fill-375" fill="#82C5E1" points="260.6651 115.3903 247.4251 109.7153 247.4251 123.0703"></polygon>
                <path d="M250.7331,116.5293 L246.6441,114.2373 L246.6441,109.3793 C246.6441,109.3793 250.7331,110.3473 250.7331,116.5293" id="Fill-376" fill="#FFFFFF"></path>
                <path d="M265.5348,107.9698 L261.4458,105.6778 L261.4458,100.8198 C261.4458,100.8198 265.5348,101.7878 265.5348,107.9698" id="Fill-377" fill="#FFFFFF"></path>
                <polygon id="Fill-378" fill="#FFFFFF" points="250.7331 116.5293 265.5351 107.9693 261.4461 100.8193 246.6441 109.3793"></polygon>
                <path d="M246.6445,109.3792 C246.6445,109.3792 250.8055,110.3832 250.7335,116.5292 L251.1025,116.3202 C251.1025,116.3202 251.4655,110.7912 247.0145,109.1702 L246.6445,109.3792 Z" id="Fill-379" fill="#82C5E1"></path>
                <path d="M248.3543,108.3932 C248.3543,108.3932 252.5143,109.3972 252.4433,115.5432 L252.8133,115.3342 C252.8133,115.3342 253.1753,109.8052 248.7243,108.1842 L248.3543,108.3932 Z" id="Fill-380" fill="#82C5E1"></path>
                <path d="M250.0167,107.4271 C250.0167,107.4271 254.1767,108.4311 254.1057,114.5771 L254.4747,114.3681 C254.4747,114.3681 254.8377,108.8391 250.3867,107.2181 L250.0167,107.4271 Z" id="Fill-381" fill="#82C5E1"></path>
                <path d="M251.7266,106.4411 C251.7266,106.4411 255.8866,107.4451 255.8156,113.5911 L256.1846,113.3821 C256.1846,113.3821 256.5476,107.8531 252.0966,106.2321 L251.7266,106.4411 Z" id="Fill-382" fill="#82C5E1"></path>
                <path d="M253.389,105.4805 C253.389,105.4805 257.549,106.4845 257.478,112.6305 L257.847,112.4215 C257.847,112.4215 258.21,106.8925 253.759,105.2715 L253.389,105.4805 Z" id="Fill-383" fill="#82C5E1"></path>
                <path d="M255.0989,104.4946 C255.0989,104.4946 259.2589,105.4986 259.1879,111.6446 L259.5569,111.4356 C259.5569,111.4356 259.9199,105.9066 255.4689,104.2856 L255.0989,104.4946 Z" id="Fill-384" fill="#82C5E1"></path>
                <path d="M256.7612,103.5284 C256.7612,103.5284 260.9212,104.5324 260.8502,110.6784 L261.2192,110.4694 C261.2192,110.4694 261.5822,104.9404 257.1312,103.3194 L256.7612,103.5284 Z" id="Fill-385" fill="#82C5E1"></path>
                <path d="M260.2513,101.5224 C260.2513,101.5224 264.4113,102.5264 264.3403,108.6724 L264.7093,108.4634 C264.7093,108.4634 265.0723,102.9344 260.6213,101.3134 L260.2513,101.5224 Z" id="Fill-386" fill="#82C5E1"></path>
                <path d="M258.4711,102.5424 C258.4711,102.5424 262.6311,103.5464 262.5601,109.6924 L262.9291,109.4834 C262.9291,109.4834 263.2921,103.9544 258.8411,102.3334 L258.4711,102.5424 Z" id="Fill-387" fill="#82C5E1"></path>
                <polygon id="Fill-388" fill="#FFFFFF" points="219.0283 109.3792 204.2263 100.8192 204.2273 115.7232 219.0283 124.3092 219.0283 115.9172"></polygon>
                <polygon id="Fill-389" fill="#96D4E7" points="218.248 109.715 205.007 102.058 205.008 115.39 218.248 123.071 218.248 115.564"></polygon>
                <polygon id="Fill-390" fill="#82C5E1" points="205.0077 115.3903 218.2477 109.7153 218.2477 123.0703"></polygon>
                <path d="M214.9396,116.5293 L219.0286,114.2373 L219.0286,109.3793 C219.0286,109.3793 214.9396,110.3473 214.9396,116.5293" id="Fill-391" fill="#FFFFFF"></path>
                <path d="M200.138,107.9698 L204.227,105.6778 L204.227,100.8198 C204.227,100.8198 200.138,101.7878 200.138,107.9698" id="Fill-392" fill="#FFFFFF"></path>
                <polygon id="Fill-393" fill="#FFFFFF" points="214.9396 116.5293 200.1376 107.9693 204.2266 100.8193 219.0286 109.3793"></polygon>
                <path d="M219.0283,109.3792 C219.0283,109.3792 214.8673,110.3832 214.9393,116.5292 L214.5703,116.3202 C214.5703,116.3202 214.2073,110.7912 218.6583,109.1702 L219.0283,109.3792 Z" id="Fill-394" fill="#82C5E1"></path>
                <path d="M217.3184,108.3932 C217.3184,108.3932 213.1584,109.3972 213.2294,115.5432 L212.8604,115.3342 C212.8604,115.3342 212.4974,109.8052 216.9484,108.1842 L217.3184,108.3932 Z" id="Fill-395" fill="#82C5E1"></path>
                <path d="M215.656,107.4271 C215.656,107.4271 211.495,108.4311 211.567,114.5771 L211.198,114.3681 C211.198,114.3681 210.835,108.8391 215.286,107.2181 L215.656,107.4271 Z" id="Fill-396" fill="#82C5E1"></path>
                <path d="M213.9462,106.4411 C213.9462,106.4411 209.7862,107.4451 209.8572,113.5911 L209.4882,113.3821 C209.4882,113.3821 209.1252,107.8531 213.5762,106.2321 L213.9462,106.4411 Z" id="Fill-397" fill="#82C5E1"></path>
                <path d="M212.2838,105.4805 C212.2838,105.4805 208.1238,106.4845 208.1948,112.6305 L207.8258,112.4215 C207.8258,112.4215 207.4628,106.8925 211.9138,105.2715 L212.2838,105.4805 Z" id="Fill-398" fill="#82C5E1"></path>
                <path d="M210.5739,104.4946 C210.5739,104.4946 206.4129,105.4986 206.4849,111.6446 L206.1149,111.4356 C206.1149,111.4356 205.7529,105.9066 210.2039,104.2856 L210.5739,104.4946 Z" id="Fill-399" fill="#82C5E1"></path>
                <path d="M208.9115,103.5284 C208.9115,103.5284 204.7515,104.5324 204.8225,110.6784 L204.4535,110.4694 C204.4535,110.4694 204.0905,104.9404 208.5415,103.3194 L208.9115,103.5284 Z" id="Fill-400" fill="#82C5E1"></path>
                <path d="M205.4215,101.5224 C205.4215,101.5224 201.2605,102.5264 201.3325,108.6724 L200.9625,108.4634 C200.9625,108.4634 200.6005,102.9344 205.0515,101.3134 L205.4215,101.5224 Z" id="Fill-401" fill="#82C5E1"></path>
                <path d="M207.2017,102.5424 C207.2017,102.5424 203.0407,103.5464 203.1127,109.6924 L202.7437,109.4834 C202.7437,109.4834 202.3807,103.9544 206.8317,102.3334 L207.2017,102.5424 Z" id="Fill-402" fill="#82C5E1"></path>
                <polygon id="Fill-403" fill="#FFFFFF" points="228.4109 132.363 237.2589 132.363 237.2589 114.353 228.4109 114.353"></polygon>
                <polygon id="Fill-404" fill="#D1D1D1" points="234.3784 76.3863 228.4624 79.8013 228.4624 75.6293 234.3784 72.1833"></polygon>
                <polygon id="Fill-405" fill="#B4B4B5" points="226.6102 78.6929 228.4622 79.8019 228.4622 75.6299 226.6102 74.5949"></polygon>
                <polygon id="Fill-406" fill="#E8E7E7" points="234.3784 72.1837 228.4624 75.6297 226.6104 74.5947 232.5614 71.2477"></polygon>
                <polygon id="Fill-407" fill="#D1D1D1" points="225.2622 81.4315 219.3452 84.8465 219.3452 80.6745 225.2622 77.2285"></polygon>
                <polygon id="Fill-408" fill="#B4B4B5" points="217.494 83.7382 219.346 84.8462 219.346 80.6752 217.494 79.6392"></polygon>
                <polygon id="Fill-409" fill="#E8E7E7" points="225.2622 77.2289 219.3452 80.6749 217.4942 79.6399 223.4452 76.2929"></polygon>
                <polygon id="Fill-410" fill="#82C5E1" points="229.1049 122.996 232.4239 122.996 232.4239 115.167 229.1049 115.167"></polygon>
                <polygon id="Fill-411" fill="#82C5E1" points="233.1849 122.996 236.5669 122.996 236.5669 115.167 233.1849 115.167"></polygon>
                <polygon id="Fill-412" fill="#82C5E1" points="229.1049 131.549 232.4239 131.549 232.4239 123.72 229.1049 123.72"></polygon>
                <polygon id="Fill-413" fill="#82C5E1" points="233.1849 131.549 236.5669 131.549 236.5669 123.72 233.1849 123.72"></polygon>
                <polygon id="Fill-414" fill="#3F4040" opacity="0.304544631" points="219.3457 84.8573 223.0937 86.8963 229.0777 83.4933 225.2627 81.4313"></polygon>
                <polygon id="Fill-415" fill="#3F4040" opacity="0.304544631" points="228.462 79.8016 232.21 81.8406 238.194 78.4486 234.378 76.3866"></polygon>
                <g id="Group-17" transform="translate(173.999900, 105.000000)">
                    <path d="M10.1392,21.6719 L8.6712,21.6719 L8.6712,25.1819 C8.6712,25.1819 9.1672,25.5569 10.1252,25.5569 C10.1302,25.5569 10.1342,25.5559 10.1392,25.5559 L10.1392,21.6719 Z" id="Fill-440" fill="#C3D2E8"></path>
                    <path d="M10.1392,21.6719 L11.6072,21.6719 L11.6072,25.1819 C11.6072,25.1819 11.1112,25.5569 10.1532,25.5569 C10.1482,25.5569 10.1442,25.5559 10.1392,25.5559 L10.1392,21.6719 Z" id="Fill-441" fill="#C3D2E8"></path>
                    <path d="M20.092,14.3863 L17.746,16.0633 C15.903,15.1513 13.141,14.5703 10.05,14.5703 C7.094,14.5703 4.444,15.1043 2.605,15.9483 L0,14.2343 L0,18.7463 C0,21.0523 4.5,22.9213 10.05,22.9213 C15.601,22.9213 20.1,21.0523 20.1,18.7463 L20.092,14.3863 Z" id="Fill-442" fill="#429FF7"></path>
                    <path d="M20.1005,14.3102 C20.1005,16.6162 15.6005,18.4852 10.0505,18.4852 C4.5005,18.4852 0.0005,16.6162 0.0005,14.3102 C0.0005,12.0042 4.5005,10.1352 10.0505,10.1352 C15.6005,10.1352 20.1005,12.0042 20.1005,14.3102" id="Fill-443" fill="#8BC6FC"></path>
                    <path d="M17.8418,10.1938 L16.0218,11.4948 C14.5918,10.7868 12.4488,10.3368 10.0508,10.3368 C7.7568,10.3368 5.7008,10.7508 4.2738,11.4058 L2.2528,10.0758 L2.2528,13.5768 C2.2528,15.3658 5.7438,16.8168 10.0508,16.8168 C14.3568,16.8168 17.8488,15.3658 17.8488,13.5768 L17.8418,10.1938 Z" id="Fill-444" fill="#429FF7"></path>
                    <path d="M17.8484,10.1348 C17.8484,11.9238 14.3574,13.3748 10.0504,13.3748 C5.7434,13.3748 2.2524,11.9238 2.2524,10.1348 C2.2524,8.3458 5.7434,6.8948 10.0504,6.8948 C14.3574,6.8948 17.8484,8.3458 17.8484,10.1348" id="Fill-445" fill="#8BC6FC"></path>
                    <path d="M15.8143,6.3786 L14.4683,7.3406 C13.4093,6.8176 11.8243,6.4846 10.0503,6.4846 C8.3533,6.4846 6.8323,6.7906 5.7763,7.2756 L4.2813,6.2916 L4.2813,8.8806 C4.2813,10.2046 6.8643,11.2776 10.0503,11.2776 C13.2363,11.2776 15.8193,10.2046 15.8193,8.8806 L15.8143,6.3786 Z" id="Fill-446" fill="#429FF7"></path>
                    <path d="M15.8192,6.335 C15.8192,7.659 13.2362,8.732 10.0502,8.732 C6.8642,8.732 4.2812,7.659 4.2812,6.335 C4.2812,5.011 6.8642,3.938 10.0502,3.938 C13.2362,3.938 15.8192,5.011 15.8192,6.335" id="Fill-447" fill="#8BC6FC"></path>
                    <path d="M14.1426,3.4167 L13.1866,4.0997 C12.4356,3.7287 11.3096,3.4917 10.0506,3.4917 C8.8456,3.4917 7.7656,3.7097 7.0166,4.0537 L5.9546,3.3547 L5.9546,5.1937 C5.9546,6.1337 7.7886,6.8947 10.0506,6.8947 C12.3126,6.8947 14.1456,6.1337 14.1456,5.1937 L14.1426,3.4167 Z" id="Fill-448" fill="#429FF7"></path>
                    <path d="M14.1461,3.3857 C14.1461,4.3257 12.3121,5.0877 10.0501,5.0877 C7.7881,5.0877 5.9551,4.3257 5.9551,3.3857 C5.9551,2.4457 7.7881,1.6837 10.0501,1.6837 C12.3121,1.6837 14.1461,2.4457 14.1461,3.3857" id="Fill-449" fill="#8BC6FC"></path>
                    <path d="M12.6365,1.0945 L12.0325,1.3135 C11.5575,1.0785 10.8465,1.7075 10.0505,1.7075 C9.2895,1.7075 8.6065,1.0665 8.1335,1.2845 L7.4625,1.0555 L7.4625,2.7835 C7.4625,3.3775 8.6205,3.8585 10.0505,3.8585 C11.4795,3.8585 12.6385,3.3775 12.6385,2.7835 L12.6365,1.0945 Z" id="Fill-450" fill="#429FF7"></path>
                    <path d="M12.6387,1.075 C12.6387,1.669 11.4797,2.15 10.0507,2.15 C8.6207,2.15 7.4617,1.669 7.4617,1.075 C7.4617,0.481 8.6207,0 10.0507,0 C11.4797,0 12.6387,0.481 12.6387,1.075" id="Fill-451" fill="#8BC6FC"></path>
                </g>
                <g id="Group-17" transform="translate(193.999900, 117.000000)">
                    <path d="M10.1392,21.6719 L8.6712,21.6719 L8.6712,25.1819 C8.6712,25.1819 9.1672,25.5569 10.1252,25.5569 C10.1302,25.5569 10.1342,25.5559 10.1392,25.5559 L10.1392,21.6719 Z" id="Fill-440" fill="#C3D2E8"></path>
                    <path d="M10.1392,21.6719 L11.6072,21.6719 L11.6072,25.1819 C11.6072,25.1819 11.1112,25.5569 10.1532,25.5569 C10.1482,25.5569 10.1442,25.5559 10.1392,25.5559 L10.1392,21.6719 Z" id="Fill-441" fill="#C3D2E8"></path>
                    <path d="M20.092,14.3863 L17.746,16.0633 C15.903,15.1513 13.141,14.5703 10.05,14.5703 C7.094,14.5703 4.444,15.1043 2.605,15.9483 L0,14.2343 L0,18.7463 C0,21.0523 4.5,22.9213 10.05,22.9213 C15.601,22.9213 20.1,21.0523 20.1,18.7463 L20.092,14.3863 Z" id="Fill-442" fill="#429FF7"></path>
                    <path d="M20.1005,14.3102 C20.1005,16.6162 15.6005,18.4852 10.0505,18.4852 C4.5005,18.4852 0.0005,16.6162 0.0005,14.3102 C0.0005,12.0042 4.5005,10.1352 10.0505,10.1352 C15.6005,10.1352 20.1005,12.0042 20.1005,14.3102" id="Fill-443" fill="#8BC6FC"></path>
                    <path d="M17.8418,10.1938 L16.0218,11.4948 C14.5918,10.7868 12.4488,10.3368 10.0508,10.3368 C7.7568,10.3368 5.7008,10.7508 4.2738,11.4058 L2.2528,10.0758 L2.2528,13.5768 C2.2528,15.3658 5.7438,16.8168 10.0508,16.8168 C14.3568,16.8168 17.8488,15.3658 17.8488,13.5768 L17.8418,10.1938 Z" id="Fill-444" fill="#429FF7"></path>
                    <path d="M17.8484,10.1348 C17.8484,11.9238 14.3574,13.3748 10.0504,13.3748 C5.7434,13.3748 2.2524,11.9238 2.2524,10.1348 C2.2524,8.3458 5.7434,6.8948 10.0504,6.8948 C14.3574,6.8948 17.8484,8.3458 17.8484,10.1348" id="Fill-445" fill="#8BC6FC"></path>
                    <path d="M15.8143,6.3786 L14.4683,7.3406 C13.4093,6.8176 11.8243,6.4846 10.0503,6.4846 C8.3533,6.4846 6.8323,6.7906 5.7763,7.2756 L4.2813,6.2916 L4.2813,8.8806 C4.2813,10.2046 6.8643,11.2776 10.0503,11.2776 C13.2363,11.2776 15.8193,10.2046 15.8193,8.8806 L15.8143,6.3786 Z" id="Fill-446" fill="#429FF7"></path>
                    <path d="M15.8192,6.335 C15.8192,7.659 13.2362,8.732 10.0502,8.732 C6.8642,8.732 4.2812,7.659 4.2812,6.335 C4.2812,5.011 6.8642,3.938 10.0502,3.938 C13.2362,3.938 15.8192,5.011 15.8192,6.335" id="Fill-447" fill="#8BC6FC"></path>
                    <path d="M14.1426,3.4167 L13.1866,4.0997 C12.4356,3.7287 11.3096,3.4917 10.0506,3.4917 C8.8456,3.4917 7.7656,3.7097 7.0166,4.0537 L5.9546,3.3547 L5.9546,5.1937 C5.9546,6.1337 7.7886,6.8947 10.0506,6.8947 C12.3126,6.8947 14.1456,6.1337 14.1456,5.1937 L14.1426,3.4167 Z" id="Fill-448" fill="#429FF7"></path>
                    <path d="M14.1461,3.3857 C14.1461,4.3257 12.3121,5.0877 10.0501,5.0877 C7.7881,5.0877 5.9551,4.3257 5.9551,3.3857 C5.9551,2.4457 7.7881,1.6837 10.0501,1.6837 C12.3121,1.6837 14.1461,2.4457 14.1461,3.3857" id="Fill-449" fill="#8BC6FC"></path>
                    <path d="M12.6365,1.0945 L12.0325,1.3135 C11.5575,1.0785 10.8465,1.7075 10.0505,1.7075 C9.2895,1.7075 8.6065,1.0665 8.1335,1.2845 L7.4625,1.0555 L7.4625,2.7835 C7.4625,3.3775 8.6205,3.8585 10.0505,3.8585 C11.4795,3.8585 12.6385,3.3775 12.6385,2.7835 L12.6365,1.0945 Z" id="Fill-450" fill="#429FF7"></path>
                    <path d="M12.6387,1.075 C12.6387,1.669 11.4797,2.15 10.0507,2.15 C8.6207,2.15 7.4617,1.669 7.4617,1.075 C7.4617,0.481 8.6207,0 10.0507,0 C11.4797,0 12.6387,0.481 12.6387,1.075" id="Fill-451" fill="#8BC6FC"></path>
                </g>
                <g id="Group-17" transform="translate(198.999900, 184.000000)">
                    <path d="M10.1392,21.6719 L8.6712,21.6719 L8.6712,25.1819 C8.6712,25.1819 9.1672,25.5569 10.1252,25.5569 C10.1302,25.5569 10.1342,25.5559 10.1392,25.5559 L10.1392,21.6719 Z" id="Fill-440" fill="#C3D2E8"></path>
                    <path d="M10.1392,21.6719 L11.6072,21.6719 L11.6072,25.1819 C11.6072,25.1819 11.1112,25.5569 10.1532,25.5569 C10.1482,25.5569 10.1442,25.5559 10.1392,25.5559 L10.1392,21.6719 Z" id="Fill-441" fill="#C3D2E8"></path>
                    <path d="M20.092,14.3863 L17.746,16.0633 C15.903,15.1513 13.141,14.5703 10.05,14.5703 C7.094,14.5703 4.444,15.1043 2.605,15.9483 L0,14.2343 L0,18.7463 C0,21.0523 4.5,22.9213 10.05,22.9213 C15.601,22.9213 20.1,21.0523 20.1,18.7463 L20.092,14.3863 Z" id="Fill-442" fill="#429FF7"></path>
                    <path d="M20.1005,14.3102 C20.1005,16.6162 15.6005,18.4852 10.0505,18.4852 C4.5005,18.4852 0.0005,16.6162 0.0005,14.3102 C0.0005,12.0042 4.5005,10.1352 10.0505,10.1352 C15.6005,10.1352 20.1005,12.0042 20.1005,14.3102" id="Fill-443" fill="#8BC6FC"></path>
                    <path d="M17.8418,10.1938 L16.0218,11.4948 C14.5918,10.7868 12.4488,10.3368 10.0508,10.3368 C7.7568,10.3368 5.7008,10.7508 4.2738,11.4058 L2.2528,10.0758 L2.2528,13.5768 C2.2528,15.3658 5.7438,16.8168 10.0508,16.8168 C14.3568,16.8168 17.8488,15.3658 17.8488,13.5768 L17.8418,10.1938 Z" id="Fill-444" fill="#429FF7"></path>
                    <path d="M17.8484,10.1348 C17.8484,11.9238 14.3574,13.3748 10.0504,13.3748 C5.7434,13.3748 2.2524,11.9238 2.2524,10.1348 C2.2524,8.3458 5.7434,6.8948 10.0504,6.8948 C14.3574,6.8948 17.8484,8.3458 17.8484,10.1348" id="Fill-445" fill="#8BC6FC"></path>
                    <path d="M15.8143,6.3786 L14.4683,7.3406 C13.4093,6.8176 11.8243,6.4846 10.0503,6.4846 C8.3533,6.4846 6.8323,6.7906 5.7763,7.2756 L4.2813,6.2916 L4.2813,8.8806 C4.2813,10.2046 6.8643,11.2776 10.0503,11.2776 C13.2363,11.2776 15.8193,10.2046 15.8193,8.8806 L15.8143,6.3786 Z" id="Fill-446" fill="#429FF7"></path>
                    <path d="M15.8192,6.335 C15.8192,7.659 13.2362,8.732 10.0502,8.732 C6.8642,8.732 4.2812,7.659 4.2812,6.335 C4.2812,5.011 6.8642,3.938 10.0502,3.938 C13.2362,3.938 15.8192,5.011 15.8192,6.335" id="Fill-447" fill="#8BC6FC"></path>
                    <path d="M14.1426,3.4167 L13.1866,4.0997 C12.4356,3.7287 11.3096,3.4917 10.0506,3.4917 C8.8456,3.4917 7.7656,3.7097 7.0166,4.0537 L5.9546,3.3547 L5.9546,5.1937 C5.9546,6.1337 7.7886,6.8947 10.0506,6.8947 C12.3126,6.8947 14.1456,6.1337 14.1456,5.1937 L14.1426,3.4167 Z" id="Fill-448" fill="#429FF7"></path>
                    <path d="M14.1461,3.3857 C14.1461,4.3257 12.3121,5.0877 10.0501,5.0877 C7.7881,5.0877 5.9551,4.3257 5.9551,3.3857 C5.9551,2.4457 7.7881,1.6837 10.0501,1.6837 C12.3121,1.6837 14.1461,2.4457 14.1461,3.3857" id="Fill-449" fill="#8BC6FC"></path>
                    <path d="M12.6365,1.0945 L12.0325,1.3135 C11.5575,1.0785 10.8465,1.7075 10.0505,1.7075 C9.2895,1.7075 8.6065,1.0665 8.1335,1.2845 L7.4625,1.0555 L7.4625,2.7835 C7.4625,3.3775 8.6205,3.8585 10.0505,3.8585 C11.4795,3.8585 12.6385,3.3775 12.6385,2.7835 L12.6365,1.0945 Z" id="Fill-450" fill="#429FF7"></path>
                    <path d="M12.6387,1.075 C12.6387,1.669 11.4797,2.15 10.0507,2.15 C8.6207,2.15 7.4617,1.669 7.4617,1.075 C7.4617,0.481 8.6207,0 10.0507,0 C11.4797,0 12.6387,0.481 12.6387,1.075" id="Fill-451" fill="#8BC6FC"></path>
                </g>
                <g id="Group-17" transform="translate(179.999900, 195.000000)">
                    <path d="M10.1392,21.6719 L8.6712,21.6719 L8.6712,25.1819 C8.6712,25.1819 9.1672,25.5569 10.1252,25.5569 C10.1302,25.5569 10.1342,25.5559 10.1392,25.5559 L10.1392,21.6719 Z" id="Fill-440" fill="#C3D2E8"></path>
                    <path d="M10.1392,21.6719 L11.6072,21.6719 L11.6072,25.1819 C11.6072,25.1819 11.1112,25.5569 10.1532,25.5569 C10.1482,25.5569 10.1442,25.5559 10.1392,25.5559 L10.1392,21.6719 Z" id="Fill-441" fill="#C3D2E8"></path>
                    <path d="M20.092,14.3863 L17.746,16.0633 C15.903,15.1513 13.141,14.5703 10.05,14.5703 C7.094,14.5703 4.444,15.1043 2.605,15.9483 L0,14.2343 L0,18.7463 C0,21.0523 4.5,22.9213 10.05,22.9213 C15.601,22.9213 20.1,21.0523 20.1,18.7463 L20.092,14.3863 Z" id="Fill-442" fill="#429FF7"></path>
                    <path d="M20.1005,14.3102 C20.1005,16.6162 15.6005,18.4852 10.0505,18.4852 C4.5005,18.4852 0.0005,16.6162 0.0005,14.3102 C0.0005,12.0042 4.5005,10.1352 10.0505,10.1352 C15.6005,10.1352 20.1005,12.0042 20.1005,14.3102" id="Fill-443" fill="#8BC6FC"></path>
                    <path d="M17.8418,10.1938 L16.0218,11.4948 C14.5918,10.7868 12.4488,10.3368 10.0508,10.3368 C7.7568,10.3368 5.7008,10.7508 4.2738,11.4058 L2.2528,10.0758 L2.2528,13.5768 C2.2528,15.3658 5.7438,16.8168 10.0508,16.8168 C14.3568,16.8168 17.8488,15.3658 17.8488,13.5768 L17.8418,10.1938 Z" id="Fill-444" fill="#429FF7"></path>
                    <path d="M17.8484,10.1348 C17.8484,11.9238 14.3574,13.3748 10.0504,13.3748 C5.7434,13.3748 2.2524,11.9238 2.2524,10.1348 C2.2524,8.3458 5.7434,6.8948 10.0504,6.8948 C14.3574,6.8948 17.8484,8.3458 17.8484,10.1348" id="Fill-445" fill="#8BC6FC"></path>
                    <path d="M15.8143,6.3786 L14.4683,7.3406 C13.4093,6.8176 11.8243,6.4846 10.0503,6.4846 C8.3533,6.4846 6.8323,6.7906 5.7763,7.2756 L4.2813,6.2916 L4.2813,8.8806 C4.2813,10.2046 6.8643,11.2776 10.0503,11.2776 C13.2363,11.2776 15.8193,10.2046 15.8193,8.8806 L15.8143,6.3786 Z" id="Fill-446" fill="#429FF7"></path>
                    <path d="M15.8192,6.335 C15.8192,7.659 13.2362,8.732 10.0502,8.732 C6.8642,8.732 4.2812,7.659 4.2812,6.335 C4.2812,5.011 6.8642,3.938 10.0502,3.938 C13.2362,3.938 15.8192,5.011 15.8192,6.335" id="Fill-447" fill="#8BC6FC"></path>
                    <path d="M14.1426,3.4167 L13.1866,4.0997 C12.4356,3.7287 11.3096,3.4917 10.0506,3.4917 C8.8456,3.4917 7.7656,3.7097 7.0166,4.0537 L5.9546,3.3547 L5.9546,5.1937 C5.9546,6.1337 7.7886,6.8947 10.0506,6.8947 C12.3126,6.8947 14.1456,6.1337 14.1456,5.1937 L14.1426,3.4167 Z" id="Fill-448" fill="#429FF7"></path>
                    <path d="M14.1461,3.3857 C14.1461,4.3257 12.3121,5.0877 10.0501,5.0877 C7.7881,5.0877 5.9551,4.3257 5.9551,3.3857 C5.9551,2.4457 7.7881,1.6837 10.0501,1.6837 C12.3121,1.6837 14.1461,2.4457 14.1461,3.3857" id="Fill-449" fill="#8BC6FC"></path>
                    <path d="M12.6365,1.0945 L12.0325,1.3135 C11.5575,1.0785 10.8465,1.7075 10.0505,1.7075 C9.2895,1.7075 8.6065,1.0665 8.1335,1.2845 L7.4625,1.0555 L7.4625,2.7835 C7.4625,3.3775 8.6205,3.8585 10.0505,3.8585 C11.4795,3.8585 12.6385,3.3775 12.6385,2.7835 L12.6365,1.0945 Z" id="Fill-450" fill="#429FF7"></path>
                    <path d="M12.6387,1.075 C12.6387,1.669 11.4797,2.15 10.0507,2.15 C8.6207,2.15 7.4617,1.669 7.4617,1.075 C7.4617,0.481 8.6207,0 10.0507,0 C11.4797,0 12.6387,0.481 12.6387,1.075" id="Fill-451" fill="#8BC6FC"></path>
                </g>
                <g id="Group-17" transform="translate(3.985900, 149.345600)">
                    <path d="M10.1392,21.6719 L8.6712,21.6719 L8.6712,25.1819 C8.6712,25.1819 9.1672,25.5569 10.1252,25.5569 C10.1302,25.5569 10.1342,25.5559 10.1392,25.5559 L10.1392,21.6719 Z" id="Fill-440" fill="#C3D2E8"></path>
                    <path d="M10.1392,21.6719 L11.6072,21.6719 L11.6072,25.1819 C11.6072,25.1819 11.1112,25.5569 10.1532,25.5569 C10.1482,25.5569 10.1442,25.5559 10.1392,25.5559 L10.1392,21.6719 Z" id="Fill-441" fill="#C3D2E8"></path>
                    <path d="M20.092,14.3863 L17.746,16.0633 C15.903,15.1513 13.141,14.5703 10.05,14.5703 C7.094,14.5703 4.444,15.1043 2.605,15.9483 L0,14.2343 L0,18.7463 C0,21.0523 4.5,22.9213 10.05,22.9213 C15.601,22.9213 20.1,21.0523 20.1,18.7463 L20.092,14.3863 Z" id="Fill-442" fill="#429FF7"></path>
                    <path d="M20.1005,14.3102 C20.1005,16.6162 15.6005,18.4852 10.0505,18.4852 C4.5005,18.4852 0.0005,16.6162 0.0005,14.3102 C0.0005,12.0042 4.5005,10.1352 10.0505,10.1352 C15.6005,10.1352 20.1005,12.0042 20.1005,14.3102" id="Fill-443" fill="#8BC6FC"></path>
                    <path d="M17.8418,10.1938 L16.0218,11.4948 C14.5918,10.7868 12.4488,10.3368 10.0508,10.3368 C7.7568,10.3368 5.7008,10.7508 4.2738,11.4058 L2.2528,10.0758 L2.2528,13.5768 C2.2528,15.3658 5.7438,16.8168 10.0508,16.8168 C14.3568,16.8168 17.8488,15.3658 17.8488,13.5768 L17.8418,10.1938 Z" id="Fill-444" fill="#429FF7"></path>
                    <path d="M17.8484,10.1348 C17.8484,11.9238 14.3574,13.3748 10.0504,13.3748 C5.7434,13.3748 2.2524,11.9238 2.2524,10.1348 C2.2524,8.3458 5.7434,6.8948 10.0504,6.8948 C14.3574,6.8948 17.8484,8.3458 17.8484,10.1348" id="Fill-445" fill="#8BC6FC"></path>
                    <path d="M15.8143,6.3786 L14.4683,7.3406 C13.4093,6.8176 11.8243,6.4846 10.0503,6.4846 C8.3533,6.4846 6.8323,6.7906 5.7763,7.2756 L4.2813,6.2916 L4.2813,8.8806 C4.2813,10.2046 6.8643,11.2776 10.0503,11.2776 C13.2363,11.2776 15.8193,10.2046 15.8193,8.8806 L15.8143,6.3786 Z" id="Fill-446" fill="#429FF7"></path>
                    <path d="M15.8192,6.335 C15.8192,7.659 13.2362,8.732 10.0502,8.732 C6.8642,8.732 4.2812,7.659 4.2812,6.335 C4.2812,5.011 6.8642,3.938 10.0502,3.938 C13.2362,3.938 15.8192,5.011 15.8192,6.335" id="Fill-447" fill="#8BC6FC"></path>
                    <path d="M14.1426,3.4167 L13.1866,4.0997 C12.4356,3.7287 11.3096,3.4917 10.0506,3.4917 C8.8456,3.4917 7.7656,3.7097 7.0166,4.0537 L5.9546,3.3547 L5.9546,5.1937 C5.9546,6.1337 7.7886,6.8947 10.0506,6.8947 C12.3126,6.8947 14.1456,6.1337 14.1456,5.1937 L14.1426,3.4167 Z" id="Fill-448" fill="#429FF7"></path>
                    <path d="M14.1461,3.3857 C14.1461,4.3257 12.3121,5.0877 10.0501,5.0877 C7.7881,5.0877 5.9551,4.3257 5.9551,3.3857 C5.9551,2.4457 7.7881,1.6837 10.0501,1.6837 C12.3121,1.6837 14.1461,2.4457 14.1461,3.3857" id="Fill-449" fill="#8BC6FC"></path>
                    <path d="M12.6365,1.0945 L12.0325,1.3135 C11.5575,1.0785 10.8465,1.7075 10.0505,1.7075 C9.2895,1.7075 8.6065,1.0665 8.1335,1.2845 L7.4625,1.0555 L7.4625,2.7835 C7.4625,3.3775 8.6205,3.8585 10.0505,3.8585 C11.4795,3.8585 12.6385,3.3775 12.6385,2.7835 L12.6365,1.0945 Z" id="Fill-450" fill="#429FF7"></path>
                    <path d="M12.6387,1.075 C12.6387,1.669 11.4797,2.15 10.0507,2.15 C8.6207,2.15 7.4617,1.669 7.4617,1.075 C7.4617,0.481 8.6207,0 10.0507,0 C11.4797,0 12.6387,0.481 12.6387,1.075" id="Fill-451" fill="#8BC6FC"></path>
                </g>
                <polygon id="Fill-477" fill="#BADFFF" points="112.7744 227.9237 112.7744 154.0217 149.3754 175.1417 149.3374 249.0327"></polygon>
                <polygon id="Fill-478" fill="#3299F9" points="185.8787 227.8893 149.3377 249.0333 149.3757 175.1413 185.9287 154.0403"></polygon>
                <polygon id="Fill-479" fill="#EEF6FF" points="112.7744 154.0222 149.3374 132.9312 185.9294 154.0402 149.3754 175.1412"></polygon>
                <polygon id="Fill-480" fill="#EEF6FF" points="120.6121 150.1482 149.3401 133.5762 178.0911 150.1622 149.3701 166.7422"></polygon>
                <polygon id="Fill-481" fill="#BADFFF" points="120.6121 154.0189 120.6121 150.1479 149.3701 166.7419 149.3701 170.6129"></polygon>
                <polygon id="Fill-482" fill="#3299F9" points="178.0913 150.1625 178.0913 154.0335 149.3703 170.6125 149.3703 166.7425"></polygon>
                <polygon id="Fill-483" fill="#87D0CE" points="173.4027 172.1317 173.4397 224.9197 177.9867 222.2767 177.9797 169.5067"></polygon>
                <polygon id="Fill-484" fill="#C38C69" points="177.9908 222.2704 177.0478 221.7534 177.0478 170.0404 177.9908 169.5074"></polygon>
                <polygon id="Fill-485" fill="#E0AA80" points="173.4398 224.9192 177.9908 222.2702 177.0478 221.7532 173.4398 223.8502"></polygon>
                <polygon id="Fill-486" fill="#87D0CE" points="160.223 180.4357 160.26 233.2237 164.807 230.5807 164.8 177.8107"></polygon>
                <polygon id="Fill-487" fill="#C38C69" points="164.8111 230.5744 163.8681 230.0574 163.8681 178.3444 164.8111 177.8104"></polygon>
                <polygon id="Fill-488" fill="#E0AA80" points="160.2601 233.2232 164.8111 230.5742 163.8681 230.0572 160.2601 232.1542"></polygon>
                <polygon id="Fill-489" fill="#87D0CE" points="126.0464 172.1317 126.0094 224.9197 121.4624 222.2767 121.4694 169.5067"></polygon>
                <polygon id="Fill-490" fill="#C38C69" points="121.4582 222.2704 122.4012 221.7534 122.4012 170.0404 121.4582 169.5074"></polygon>
                <polygon id="Fill-491" fill="#E0AA80" points="126.0093 224.9192 121.4583 222.2702 122.4013 221.7532 126.0093 223.8502"></polygon>
                <polygon id="Fill-492" fill="#87D0CE" points="139.2261 180.4357 139.1891 233.2237 134.6421 230.5807 134.6491 177.8107"></polygon>
                <polygon id="Fill-493" fill="#C38C69" points="134.638 230.5744 135.581 230.0574 135.581 178.3444 134.638 177.8104"></polygon>
                <polygon id="Fill-494" fill="#E0AA80" points="139.189 233.2232 134.638 230.5742 135.581 230.0572 139.189 232.1542"></polygon>
                <path d="M214.9206,262.4239 C214.9206,269.7279 205.6266,275.6489 194.1616,275.6489 C182.6966,275.6489 173.4026,269.7279 173.4026,262.4239 C173.4026,255.1199 182.6966,249.1989 194.1616,249.1989 C205.6266,249.1989 214.9206,255.1199 214.9206,262.4239" id="Fill-496" fill="#EFEFEF"></path>
                <path d="M211.8478,262.4239 C211.8478,268.6469 203.9298,273.6919 194.1618,273.6919 C184.3938,273.6919 176.4758,268.6469 176.4758,262.4239 C176.4758,256.2009 184.3938,251.1559 194.1618,251.1559 C203.9298,251.1559 211.8478,256.2009 211.8478,262.4239" id="Fill-497" fill="#62CAEA"></path>
                <path d="M194.1617,253.4152 C203.3307,253.4152 210.8697,257.8612 211.7597,263.5532 C211.8177,263.1822 211.8477,262.8052 211.8477,262.4242 C211.8477,256.2012 203.9297,251.1562 194.1617,251.1562 C184.3937,251.1562 176.4757,256.2012 176.4757,262.4242 C176.4757,262.8052 176.5057,263.1822 176.5647,263.5532 C177.4537,257.8612 184.9927,253.4152 194.1617,253.4152" id="Fill-498" fill="#4BBBCD"></path>
                <g id="Group-501" transform="translate(184.668600, 257.568100)" fill="#FFFFFF">
                    <path d="M17.8573,4.505 C17.3813,4.505 16.8833,4.263 16.3743,3.782 C16.2763,3.691 16.1813,3.594 16.0853,3.498 C15.7883,3.199 15.5083,2.916 15.1593,2.748 C14.5913,2.473 13.9393,2.541 13.2503,2.612 C12.8663,2.652 12.4673,2.692 12.0783,2.673 C11.8863,2.663 11.6383,2.634 11.4173,2.511 C11.2073,2.392 11.0583,2.207 10.9263,2.045 L10.8653,1.969 C10.1853,1.144 9.1883,0.58 8.1313,0.423 L8.1933,0 C9.3553,0.173 10.4483,0.791 11.1953,1.697 L11.2593,1.776 C11.3763,1.922 11.4883,2.06 11.6273,2.138 C11.7713,2.218 11.9553,2.238 12.1013,2.246 C12.4593,2.265 12.8393,2.225 13.2063,2.187 C13.9263,2.112 14.6683,2.034 15.3463,2.364 C15.7603,2.564 16.0803,2.885 16.3893,3.196 C16.4813,3.29 16.5733,3.383 16.6683,3.472 C17.1393,3.915 17.5683,4.112 17.9713,4.071 L18.0213,4.495 C17.9663,4.502 17.9123,4.505 17.8573,4.505" id="Fill-499"></path>
                    <path d="M11.243,9.7115 C10.553,9.7115 9.838,9.3455 9.153,8.9255 C8.043,8.2455 6.857,7.5915 5.641,7.7585 C5.536,7.7735 5.429,7.7925 5.321,7.8125 C4.914,7.8875 4.45,7.9735 4.038,7.7545 C3.646,7.5465 3.465,7.1625 3.29,6.7905 C3.213,6.6245 3.139,6.4685 3.049,6.3305 C2.474,5.4515 1.243,5.3285 0,5.3265 L0.001,4.8995 C1.298,4.9005 2.718,5.0445 3.406,6.0965 C3.513,6.2595 3.597,6.4365 3.677,6.6085 C3.829,6.9315 3.972,7.2365 4.239,7.3775 C4.519,7.5255 4.871,7.4595 5.244,7.3925 C5.359,7.3705 5.472,7.3495 5.585,7.3345 C6.937,7.1545 8.2,7.8415 9.376,8.5615 C10.208,9.0705 11.076,9.4985 11.802,9.1635 L11.981,9.5525 C11.739,9.6635 11.493,9.7115 11.243,9.7115" id="Fill-500"></path>
                </g>
                <polygon id="Fill-505" fill="#E8E7E7" points="233.8219 195.8353 232.7609 196.4623 231.6979 195.8353 232.7719 195.2573"></polygon>
                <polygon id="Fill-506" fill="#BADFFF" points="196.5005 237.9866 228.1565 256.2636 228.1895 225.6386 196.5315 207.3616"></polygon>
                <polygon id="Fill-507" fill="#3299F9" points="267.762 233.397 228.156 256.264 228.189 225.639 267.761 202.794"></polygon>
                <polygon id="Fill-508" fill="#EEF6FF" points="196.5316 207.3617 236.1036 184.5167 267.7616 202.7947 228.1896 225.6387"></polygon>
                <polygon id="Fill-509" fill="#FFFFFF" points="264.0089 235.6129 264.1769 212.8569 233.8729 230.0699 233.7639 253.0409"></polygon>
                <polygon id="Fill-510" fill="#96D4E7" points="263.1403 235.9254 263.3083 214.3014 234.8633 230.5734 234.7543 252.4134"></polygon>
                <polygon id="Fill-511" fill="#EEF6FF" points="201.9292 207.0156 235.5042 187.6326 262.3642 203.1406 228.7892 222.5226"></polygon>
                <polygon id="Fill-512" fill="#BADFFF" points="235.5039 187.6329 235.5039 190.6069 204.3999 208.4419 201.9289 207.0159"></polygon>
                <path d="M262.3638,203.1406 C260.9608,202.3306 235.5038,187.6326 235.5038,187.6326 L235.5038,190.6076 L259.9908,204.5106 L262.3638,203.1406 Z" id="Fill-513" fill="#3299F9"></path>
                <polygon id="Fill-514" fill="#77ADBA" points="244.4083 225.1132 263.1403 235.9252 263.3083 214.3012"></polygon>
                <g id="Group-519" transform="translate(244.108502, 223.337769)" fill="#FFFFFF">
                    <path d="M8.64689815,4.42153101 C8.58289815,4.42153101 8.51989815,4.40553101 8.46089815,4.37053101 C8.28889815,4.26753101 8.23189815,4.04353101 8.33489815,3.87253101 L10.5408982,0.178531012 C10.6428982,0.00453101207 10.8648982,-0.0514689879 11.0388982,0.0515310121 C11.2108982,0.154531012 11.2668982,0.378531012 11.1648982,0.549531012 L8.95889815,4.24453101 C8.89189815,4.35853101 8.77089815,4.42153101 8.64689815,4.42153101" id="Fill-515"></path>
                    <path d="M1.08629815,9.36493101 C1.02229815,9.36493101 0.958298152,9.34893101 0.900298152,9.31393101 C0.727298152,9.21093101 0.671298152,8.98693101 0.774298152,8.81493101 L2.98029815,5.12193101 C3.08229815,4.94993101 3.30529815,4.89293101 3.47829815,4.99593101 C3.65129815,5.09893101 3.70729815,5.32193101 3.60429815,5.49393101 L1.39829815,9.18793101 C1.33029815,9.30193101 1.21029815,9.36493101 1.08629815,9.36493101" id="Fill-516"></path>
                    <path d="M7.86819815,13.495531 C7.80419815,13.495531 7.74119815,13.479531 7.68219815,13.444531 C7.51019815,13.341531 7.45319815,13.117531 7.55619815,12.946531 L9.76219815,9.25253101 C9.86419815,9.07853101 10.0871982,9.02253101 10.2601982,9.12553101 C10.4331982,9.22853101 10.4891982,9.45253101 10.3861982,9.62453101 L8.18019815,13.318531 C8.11319815,13.432531 7.99219815,13.495531 7.86819815,13.495531" id="Fill-517"></path>
                    <path d="M0.362898152,16.949731 C0.299898152,16.949731 0.235898152,16.933731 0.176898152,16.898731 C0.00489815232,16.795731 -0.0511018477,16.571731 0.0508981523,16.400731 L2.25689815,12.706731 C2.35889815,12.532731 2.58189815,12.476731 2.75489815,12.579731 C2.92689815,12.682731 2.98289815,12.906731 2.88089815,13.077731 L0.674898152,16.771731 C0.607898152,16.886731 0.486898152,16.949731 0.362898152,16.949731" id="Fill-518"></path>
                </g>
                <polygon id="Fill-520" fill="#545554" opacity="0.304544631" points="253.8581 204.8245 245.0471 209.9545 226.4711 199.0595 235.3611 193.9975"></polygon>
                <path d="M245.645,208.9693 C245.645,209.1623 245.954,209.3173 246.336,209.3173 C246.718,209.3173 247.027,209.1623 247.027,208.9693 C247.027,208.7773 246.718,208.6213 246.336,208.6213 C245.954,208.6213 245.645,208.7773 245.645,208.9693" id="Fill-521" fill="#959595"></path>
                <path d="M231.367,200.5889 C231.367,200.7809 231.676,200.9369 232.058,200.9369 C232.44,200.9369 232.749,200.7809 232.749,200.5889 C232.749,200.3969 232.44,200.2409 232.058,200.2409 C231.676,200.2409 231.367,200.3969 231.367,200.5889" id="Fill-522" fill="#959595"></path>
                <polygon id="Fill-523" fill="#E2E2E2" points="253.8581 204.8245 253.8581 192.4305 235.3611 181.7655 235.3611 193.9975"></polygon>
                <path d="M246.3741,209.0662 C246.3531,209.0662 246.3321,209.0622 246.3111,209.0552 C246.2141,209.0202 246.1631,208.9142 246.1981,208.8172 L251.4511,194.1292 C251.4861,194.0312 251.5951,193.9832 251.6891,194.0162 C251.7861,194.0512 251.8371,194.1572 251.8021,194.2542 L246.5501,208.9422 C246.5231,209.0192 246.4511,209.0662 246.3741,209.0662" id="Fill-524" fill="#5E5F5E"></path>
                <path d="M232.0579,200.683 C232.0369,200.683 232.0159,200.679 231.9949,200.672 C231.8979,200.637 231.8469,200.531 231.8819,200.434 L237.1349,185.746 C237.1699,185.648 237.2779,185.6 237.3729,185.633 C237.4699,185.667 237.5209,185.774 237.4859,185.871 L232.2339,200.559 C232.2069,200.636 232.1339,200.683 232.0579,200.683" id="Fill-525" fill="#5E5F5E"></path>
                <polygon id="Fill-545" fill="#3D3D3D" opacity="0.304544631" points="169.1441 21.6271 176.1191 21.8901 176.3941 27.5761 186.7971 26.7221 183.6481 23.1701 183.6481 17.5361 181.5611 14.4591"></polygon>
                <polygon id="Fill-546" fill="#3F4040" opacity="0.304544631" points="141.6092 153.6007 156.6892 162.5177 172.4672 153.4087 158.5812 144.8427"></polygon>
                <path d="M159.4108,142.3737 L157.0658,144.0507 C155.2218,143.1387 152.4598,144.5647 149.3698,144.5647 C146.4128,144.5647 143.7628,143.0917 141.9238,143.9357 L139.3198,142.2217 L139.3198,150.9487 C139.3198,153.2557 143.8188,155.1247 149.3698,155.1247 C154.9198,155.1247 159.4198,153.2557 159.4198,150.9487 L159.4108,142.3737 Z" id="Fill-547" fill="#BADFFF"></path>
                <path d="M159.4193,142.3839 C159.4193,144.6899 154.9193,146.5589 149.3693,146.5589 C143.8183,146.5589 139.3193,144.6899 139.3193,142.3839 C139.3193,140.0779 143.8183,138.2079 149.3693,138.2079 C154.9193,138.2079 159.4193,140.0779 159.4193,142.3839" id="Fill-548" fill="#EEF6FF"></path>
                <polygon id="Fill-551" fill="#BADFFF" points="285.4171 173.3438 322.6621 194.8478 322.7011 119.5598 285.4541 98.0548"></polygon>
                <polygon id="Fill-552" fill="#3299F9" points="369.261 167.9439 322.662 194.8479 322.701 119.5599 369.26 92.6819"></polygon>
                <polygon id="Fill-553" fill="#EEF6FF" points="285.4538 98.0551 332.0128 71.1761 369.2608 92.6811 322.7008 119.5601"></polygon>
                <polygon id="Fill-554" fill="#82C5E1" points="353.9572 119.3885 353.9732 111.0225 347.4322 114.8245 347.4422 123.1095"></polygon>
                <polygon id="Fill-555" fill="#467988" points="352.601 111.8001 353.957 111.0221 353.957 119.3881 352.601 118.6121"></polygon>
                <polygon id="Fill-556" fill="#B2E1EF" points="352.601 118.6139 347.426 121.6669 347.442 123.1849 353.973 119.3949"></polygon>
                <polygon id="Fill-557" fill="#82C5E1" points="363.3718 114.6006 363.3878 106.2346 356.8468 110.0366 356.8568 118.3216"></polygon>
                <polygon id="Fill-558" fill="#467988" points="362.0156 107.0122 363.3716 106.2342 363.3716 114.6002 362.0156 113.8242"></polygon>
                <polygon id="Fill-559" fill="#B2E1EF" points="362.0156 113.8259 356.8406 116.8789 356.8566 118.3969 363.3876 114.6059"></polygon>
                <polygon id="Fill-560" fill="#82C5E1" points="344.6748 124.8611 344.6908 116.4951 338.1498 120.2971 338.1598 128.5821"></polygon>
                <polygon id="Fill-561" fill="#467988" points="343.3186 117.2727 344.6746 116.4947 344.6746 124.8607 343.3186 124.0847"></polygon>
                <polygon id="Fill-562" fill="#B2E1EF" points="343.3186 124.0865 338.1436 127.1395 338.1596 128.6575 344.6906 124.8675"></polygon>
                <polygon id="Fill-563" fill="#82C5E1" points="335.0663 130.5246 335.0823 122.1586 328.5413 125.9606 328.5513 134.2456"></polygon>
                <polygon id="Fill-564" fill="#467988" points="333.7101 122.9362 335.0661 122.1582 335.0661 130.5242 333.7101 129.7482"></polygon>
                <polygon id="Fill-565" fill="#B2E1EF" points="333.7101 129.75 328.5361 132.803 328.5511 134.321 335.0821 130.531"></polygon>
                <polygon id="Fill-566" fill="#82C5E1" points="353.9572 131.0889 353.9732 122.7229 347.4322 126.5249 347.4422 134.8099"></polygon>
                <polygon id="Fill-567" fill="#467988" points="352.601 123.5005 353.957 122.7225 353.957 131.0885 352.601 130.3125"></polygon>
                <polygon id="Fill-568" fill="#B2E1EF" points="352.601 130.3143 347.426 133.3673 347.442 134.8853 353.973 131.0953"></polygon>
                <polygon id="Fill-569" fill="#82C5E1" points="363.3718 126.3009 363.3878 117.9349 356.8468 121.7369 356.8568 130.0219"></polygon>
                <polygon id="Fill-570" fill="#467988" points="362.0156 118.7126 363.3716 117.9346 363.3716 126.3006 362.0156 125.5246"></polygon>
                <polygon id="Fill-571" fill="#B2E1EF" points="362.0156 125.5263 356.8406 128.5793 356.8566 130.0973 363.3876 126.3073"></polygon>
                <polygon id="Fill-572" fill="#82C5E1" points="344.6748 136.5615 344.6908 128.1955 338.1498 131.9975 338.1598 140.2825"></polygon>
                <polygon id="Fill-573" fill="#467988" points="343.3186 128.9731 344.6746 128.1951 344.6746 136.5611 343.3186 135.7851"></polygon>
                <polygon id="Fill-574" fill="#B2E1EF" points="343.3186 135.7869 338.1436 138.8399 338.1596 140.3579 344.6906 136.5669"></polygon>
                <polygon id="Fill-575" fill="#82C5E1" points="335.0663 142.225 335.0823 133.859 328.5413 137.661 328.5513 145.946"></polygon>
                <polygon id="Fill-576" fill="#467988" points="333.7101 134.6366 335.0661 133.8586 335.0661 142.2246 333.7101 141.4486"></polygon>
                <polygon id="Fill-577" fill="#B2E1EF" points="333.7101 141.4504 328.5361 144.5034 328.5511 146.0214 335.0821 142.2314"></polygon>
                <polygon id="Fill-578" fill="#82C5E1" points="353.9572 142.904 353.9732 134.538 347.4322 138.34 347.4422 146.625"></polygon>
                <polygon id="Fill-579" fill="#467988" points="352.601 135.3156 353.957 134.5376 353.957 142.9036 352.601 142.1276"></polygon>
                <polygon id="Fill-580" fill="#B2E1EF" points="352.601 142.1294 347.426 145.1824 347.442 146.7004 353.973 142.9094"></polygon>
                <polygon id="Fill-581" fill="#82C5E1" points="363.3718 138.116 363.3878 129.75 356.8468 133.552 356.8568 141.837"></polygon>
                <polygon id="Fill-582" fill="#467988" points="362.0156 130.5276 363.3716 129.7496 363.3716 138.1156 362.0156 137.3396"></polygon>
                <polygon id="Fill-583" fill="#B2E1EF" points="362.0156 137.3414 356.8406 140.3944 356.8566 141.9124 363.3876 138.1214"></polygon>
                <polygon id="Fill-584" fill="#82C5E1" points="344.6748 148.3766 344.6908 140.0106 338.1498 143.8126 338.1598 152.0976"></polygon>
                <polygon id="Fill-585" fill="#467988" points="343.3186 140.7882 344.6746 140.0102 344.6746 148.3762 343.3186 147.6002"></polygon>
                <polygon id="Fill-586" fill="#B2E1EF" points="343.3186 147.6019 338.1436 150.6549 338.1596 152.1729 344.6906 148.3829"></polygon>
                <polygon id="Fill-587" fill="#82C5E1" points="335.0663 154.0401 335.0823 145.6741 328.5413 149.4761 328.5513 157.7611"></polygon>
                <polygon id="Fill-588" fill="#467988" points="333.7101 146.4517 335.0661 145.6737 335.0661 154.0397 333.7101 153.2637"></polygon>
                <polygon id="Fill-589" fill="#B2E1EF" points="333.7101 153.2654 328.5361 156.3184 328.5511 157.8364 335.0821 154.0454"></polygon>
                <polygon id="Fill-590" fill="#82C5E1" points="353.9572 154.6044 353.9732 146.2384 347.4322 150.0404 347.4422 158.3254"></polygon>
                <polygon id="Fill-591" fill="#467988" points="352.601 147.016 353.957 146.238 353.957 154.604 352.601 153.828"></polygon>
                <polygon id="Fill-592" fill="#B2E1EF" points="352.601 153.8297 347.426 156.8827 347.442 158.4007 353.973 154.6097"></polygon>
                <polygon id="Fill-593" fill="#82C5E1" points="363.3718 149.8164 363.3878 141.4504 356.8468 145.2524 356.8568 153.5374"></polygon>
                <polygon id="Fill-594" fill="#467988" points="362.0156 142.228 363.3716 141.45 363.3716 149.816 362.0156 149.04"></polygon>
                <polygon id="Fill-595" fill="#B2E1EF" points="362.0156 149.0418 356.8406 152.0948 356.8566 153.6128 363.3876 149.8218"></polygon>
                <polygon id="Fill-596" fill="#82C5E1" points="344.6748 160.0769 344.6908 151.7109 338.1498 155.5129 338.1598 163.7979"></polygon>
                <polygon id="Fill-597" fill="#467988" points="343.3186 152.4886 344.6746 151.7106 344.6746 160.0766 343.3186 159.3006"></polygon>
                <polygon id="Fill-598" fill="#B2E1EF" points="343.3186 159.3023 338.1436 162.3553 338.1596 163.8733 344.6906 160.0833"></polygon>
                <polygon id="Fill-599" fill="#82C5E1" points="335.0663 165.7405 335.0823 157.3745 328.5413 161.1765 328.5513 169.4615"></polygon>
                <polygon id="Fill-600" fill="#467988" points="333.7101 158.1521 335.0661 157.3741 335.0661 165.7401 333.7101 164.9641"></polygon>
                <polygon id="Fill-601" fill="#B2E1EF" points="333.7101 164.9658 328.5361 168.0188 328.5511 169.5368 335.0821 165.7468"></polygon>
                <polygon id="Fill-602" fill="#82C5E1" points="353.9572 166.3621 353.9732 157.9961 347.4322 161.7981 347.4422 170.0831"></polygon>
                <polygon id="Fill-603" fill="#467988" points="352.601 158.7737 353.957 157.9957 353.957 166.3617 352.601 165.5857"></polygon>
                <polygon id="Fill-604" fill="#B2E1EF" points="352.601 165.5875 347.426 168.6405 347.442 170.1585 353.973 166.3675"></polygon>
                <polygon id="Fill-605" fill="#82C5E1" points="363.3718 161.5741 363.3878 153.2081 356.8468 157.0101 356.8568 165.2951"></polygon>
                <polygon id="Fill-606" fill="#467988" points="362.0156 153.9857 363.3716 153.2077 363.3716 161.5737 362.0156 160.7977"></polygon>
                <polygon id="Fill-607" fill="#B2E1EF" points="362.0156 160.7995 356.8406 163.8525 356.8566 165.3705 363.3876 161.5805"></polygon>
                <polygon id="Fill-608" fill="#82C5E1" points="344.6748 171.8347 344.6908 163.4687 338.1498 167.2707 338.1598 175.5557"></polygon>
                <polygon id="Fill-609" fill="#467988" points="343.3186 164.2463 344.6746 163.4683 344.6746 171.8343 343.3186 171.0583"></polygon>
                <polygon id="Fill-610" fill="#B2E1EF" points="343.3186 171.06 338.1436 174.113 338.1596 175.631 344.6906 171.841"></polygon>
                <polygon id="Fill-611" fill="#82C5E1" points="335.0663 177.4982 335.0823 169.1322 328.5413 172.9342 328.5513 181.2192"></polygon>
                <polygon id="Fill-612" fill="#467988" points="333.7101 169.9098 335.0661 169.1318 335.0661 177.4978 333.7101 176.7218"></polygon>
                <polygon id="Fill-613" fill="#B2E1EF" points="333.7101 176.7236 328.5361 179.7766 328.5511 181.2946 335.0821 177.5036"></polygon>
                <polygon id="Fill-615" fill="#FFFFFF" points="293.7402 178.1929 293.5432 155.5909 314.2972 167.2519 314.4262 190.1059"></polygon>
                <polygon id="Fill-616" fill="#82C5E1" points="294.683 178.7558 294.486 157.4368 313.269 167.9348 313.397 189.5078"></polygon>
                <polygon id="Fill-617" fill="#96D4E7" points="313.3973 189.5075 294.4853 157.4365 294.6833 178.7555"></polygon>
                <polygon id="Fill-621" fill="#EEF6FF" points="291.8045 97.6478 331.3075 74.8428 362.9095 93.0888 323.4065 115.8928"></polygon>
                <polygon id="Fill-622" fill="#BADFFF" points="331.3072 74.8428 331.3072 78.3418 294.7112 99.3258 291.8042 97.6478"></polygon>
                <path d="M362.9097,93.0886 C361.2587,92.1356 331.3067,74.8426 331.3067,74.8426 L331.3067,78.3426 L360.1177,94.7006 L362.9097,93.0886 Z" id="Fill-623" fill="#3299F9"></path>
                <g id="Group-17" transform="translate(330.999900, 174.000000)">
                    <path d="M10.1392,21.6719 L8.6712,21.6719 L8.6712,25.1819 C8.6712,25.1819 9.1672,25.5569 10.1252,25.5569 C10.1302,25.5569 10.1342,25.5559 10.1392,25.5559 L10.1392,21.6719 Z" id="Fill-440" fill="#C3D2E8"></path>
                    <path d="M10.1392,21.6719 L11.6072,21.6719 L11.6072,25.1819 C11.6072,25.1819 11.1112,25.5569 10.1532,25.5569 C10.1482,25.5569 10.1442,25.5559 10.1392,25.5559 L10.1392,21.6719 Z" id="Fill-441" fill="#C3D2E8"></path>
                    <path d="M20.092,14.3863 L17.746,16.0633 C15.903,15.1513 13.141,14.5703 10.05,14.5703 C7.094,14.5703 4.444,15.1043 2.605,15.9483 L0,14.2343 L0,18.7463 C0,21.0523 4.5,22.9213 10.05,22.9213 C15.601,22.9213 20.1,21.0523 20.1,18.7463 L20.092,14.3863 Z" id="Fill-442" fill="#429FF7"></path>
                    <path d="M20.1005,14.3102 C20.1005,16.6162 15.6005,18.4852 10.0505,18.4852 C4.5005,18.4852 0.0005,16.6162 0.0005,14.3102 C0.0005,12.0042 4.5005,10.1352 10.0505,10.1352 C15.6005,10.1352 20.1005,12.0042 20.1005,14.3102" id="Fill-443" fill="#8BC6FC"></path>
                    <path d="M17.8418,10.1938 L16.0218,11.4948 C14.5918,10.7868 12.4488,10.3368 10.0508,10.3368 C7.7568,10.3368 5.7008,10.7508 4.2738,11.4058 L2.2528,10.0758 L2.2528,13.5768 C2.2528,15.3658 5.7438,16.8168 10.0508,16.8168 C14.3568,16.8168 17.8488,15.3658 17.8488,13.5768 L17.8418,10.1938 Z" id="Fill-444" fill="#429FF7"></path>
                    <path d="M17.8484,10.1348 C17.8484,11.9238 14.3574,13.3748 10.0504,13.3748 C5.7434,13.3748 2.2524,11.9238 2.2524,10.1348 C2.2524,8.3458 5.7434,6.8948 10.0504,6.8948 C14.3574,6.8948 17.8484,8.3458 17.8484,10.1348" id="Fill-445" fill="#8BC6FC"></path>
                    <path d="M15.8143,6.3786 L14.4683,7.3406 C13.4093,6.8176 11.8243,6.4846 10.0503,6.4846 C8.3533,6.4846 6.8323,6.7906 5.7763,7.2756 L4.2813,6.2916 L4.2813,8.8806 C4.2813,10.2046 6.8643,11.2776 10.0503,11.2776 C13.2363,11.2776 15.8193,10.2046 15.8193,8.8806 L15.8143,6.3786 Z" id="Fill-446" fill="#429FF7"></path>
                    <path d="M15.8192,6.335 C15.8192,7.659 13.2362,8.732 10.0502,8.732 C6.8642,8.732 4.2812,7.659 4.2812,6.335 C4.2812,5.011 6.8642,3.938 10.0502,3.938 C13.2362,3.938 15.8192,5.011 15.8192,6.335" id="Fill-447" fill="#8BC6FC"></path>
                    <path d="M14.1426,3.4167 L13.1866,4.0997 C12.4356,3.7287 11.3096,3.4917 10.0506,3.4917 C8.8456,3.4917 7.7656,3.7097 7.0166,4.0537 L5.9546,3.3547 L5.9546,5.1937 C5.9546,6.1337 7.7886,6.8947 10.0506,6.8947 C12.3126,6.8947 14.1456,6.1337 14.1456,5.1937 L14.1426,3.4167 Z" id="Fill-448" fill="#429FF7"></path>
                    <path d="M14.1461,3.3857 C14.1461,4.3257 12.3121,5.0877 10.0501,5.0877 C7.7881,5.0877 5.9551,4.3257 5.9551,3.3857 C5.9551,2.4457 7.7881,1.6837 10.0501,1.6837 C12.3121,1.6837 14.1461,2.4457 14.1461,3.3857" id="Fill-449" fill="#8BC6FC"></path>
                    <path d="M12.6365,1.0945 L12.0325,1.3135 C11.5575,1.0785 10.8465,1.7075 10.0505,1.7075 C9.2895,1.7075 8.6065,1.0665 8.1335,1.2845 L7.4625,1.0555 L7.4625,2.7835 C7.4625,3.3775 8.6205,3.8585 10.0505,3.8585 C11.4795,3.8585 12.6385,3.3775 12.6385,2.7835 L12.6365,1.0945 Z" id="Fill-450" fill="#429FF7"></path>
                    <path d="M12.6387,1.075 C12.6387,1.669 11.4797,2.15 10.0507,2.15 C8.6207,2.15 7.4617,1.669 7.4617,1.075 C7.4617,0.481 8.6207,0 10.0507,0 C11.4797,0 12.6387,0.481 12.6387,1.075" id="Fill-451" fill="#8BC6FC"></path>
                </g>
                <g id="Group-17" transform="translate(352.999900, 161.000000)">
                    <path d="M10.1392,21.6719 L8.6712,21.6719 L8.6712,25.1819 C8.6712,25.1819 9.1672,25.5569 10.1252,25.5569 C10.1302,25.5569 10.1342,25.5559 10.1392,25.5559 L10.1392,21.6719 Z" id="Fill-440" fill="#C3D2E8"></path>
                    <path d="M10.1392,21.6719 L11.6072,21.6719 L11.6072,25.1819 C11.6072,25.1819 11.1112,25.5569 10.1532,25.5569 C10.1482,25.5569 10.1442,25.5559 10.1392,25.5559 L10.1392,21.6719 Z" id="Fill-441" fill="#C3D2E8"></path>
                    <path d="M20.092,14.3863 L17.746,16.0633 C15.903,15.1513 13.141,14.5703 10.05,14.5703 C7.094,14.5703 4.444,15.1043 2.605,15.9483 L0,14.2343 L0,18.7463 C0,21.0523 4.5,22.9213 10.05,22.9213 C15.601,22.9213 20.1,21.0523 20.1,18.7463 L20.092,14.3863 Z" id="Fill-442" fill="#429FF7"></path>
                    <path d="M20.1005,14.3102 C20.1005,16.6162 15.6005,18.4852 10.0505,18.4852 C4.5005,18.4852 0.0005,16.6162 0.0005,14.3102 C0.0005,12.0042 4.5005,10.1352 10.0505,10.1352 C15.6005,10.1352 20.1005,12.0042 20.1005,14.3102" id="Fill-443" fill="#8BC6FC"></path>
                    <path d="M17.8418,10.1938 L16.0218,11.4948 C14.5918,10.7868 12.4488,10.3368 10.0508,10.3368 C7.7568,10.3368 5.7008,10.7508 4.2738,11.4058 L2.2528,10.0758 L2.2528,13.5768 C2.2528,15.3658 5.7438,16.8168 10.0508,16.8168 C14.3568,16.8168 17.8488,15.3658 17.8488,13.5768 L17.8418,10.1938 Z" id="Fill-444" fill="#429FF7"></path>
                    <path d="M17.8484,10.1348 C17.8484,11.9238 14.3574,13.3748 10.0504,13.3748 C5.7434,13.3748 2.2524,11.9238 2.2524,10.1348 C2.2524,8.3458 5.7434,6.8948 10.0504,6.8948 C14.3574,6.8948 17.8484,8.3458 17.8484,10.1348" id="Fill-445" fill="#8BC6FC"></path>
                    <path d="M15.8143,6.3786 L14.4683,7.3406 C13.4093,6.8176 11.8243,6.4846 10.0503,6.4846 C8.3533,6.4846 6.8323,6.7906 5.7763,7.2756 L4.2813,6.2916 L4.2813,8.8806 C4.2813,10.2046 6.8643,11.2776 10.0503,11.2776 C13.2363,11.2776 15.8193,10.2046 15.8193,8.8806 L15.8143,6.3786 Z" id="Fill-446" fill="#429FF7"></path>
                    <path d="M15.8192,6.335 C15.8192,7.659 13.2362,8.732 10.0502,8.732 C6.8642,8.732 4.2812,7.659 4.2812,6.335 C4.2812,5.011 6.8642,3.938 10.0502,3.938 C13.2362,3.938 15.8192,5.011 15.8192,6.335" id="Fill-447" fill="#8BC6FC"></path>
                    <path d="M14.1426,3.4167 L13.1866,4.0997 C12.4356,3.7287 11.3096,3.4917 10.0506,3.4917 C8.8456,3.4917 7.7656,3.7097 7.0166,4.0537 L5.9546,3.3547 L5.9546,5.1937 C5.9546,6.1337 7.7886,6.8947 10.0506,6.8947 C12.3126,6.8947 14.1456,6.1337 14.1456,5.1937 L14.1426,3.4167 Z" id="Fill-448" fill="#429FF7"></path>
                    <path d="M14.1461,3.3857 C14.1461,4.3257 12.3121,5.0877 10.0501,5.0877 C7.7881,5.0877 5.9551,4.3257 5.9551,3.3857 C5.9551,2.4457 7.7881,1.6837 10.0501,1.6837 C12.3121,1.6837 14.1461,2.4457 14.1461,3.3857" id="Fill-449" fill="#8BC6FC"></path>
                    <path d="M12.6365,1.0945 L12.0325,1.3135 C11.5575,1.0785 10.8465,1.7075 10.0505,1.7075 C9.2895,1.7075 8.6065,1.0665 8.1335,1.2845 L7.4625,1.0555 L7.4625,2.7835 C7.4625,3.3775 8.6205,3.8585 10.0505,3.8585 C11.4795,3.8585 12.6385,3.3775 12.6385,2.7835 L12.6365,1.0945 Z" id="Fill-450" fill="#429FF7"></path>
                    <path d="M12.6387,1.075 C12.6387,1.669 11.4797,2.15 10.0507,2.15 C8.6207,2.15 7.4617,1.669 7.4617,1.075 C7.4617,0.481 8.6207,0 10.0507,0 C11.4797,0 12.6387,0.481 12.6387,1.075" id="Fill-451" fill="#8BC6FC"></path>
                </g>
                <g id="Group-17" transform="translate(372.999900, 149.000000)">
                    <path d="M10.1392,21.6719 L8.6712,21.6719 L8.6712,25.1819 C8.6712,25.1819 9.1672,25.5569 10.1252,25.5569 C10.1302,25.5569 10.1342,25.5559 10.1392,25.5559 L10.1392,21.6719 Z" id="Fill-440" fill="#C3D2E8"></path>
                    <path d="M10.1392,21.6719 L11.6072,21.6719 L11.6072,25.1819 C11.6072,25.1819 11.1112,25.5569 10.1532,25.5569 C10.1482,25.5569 10.1442,25.5559 10.1392,25.5559 L10.1392,21.6719 Z" id="Fill-441" fill="#C3D2E8"></path>
                    <path d="M20.092,14.3863 L17.746,16.0633 C15.903,15.1513 13.141,14.5703 10.05,14.5703 C7.094,14.5703 4.444,15.1043 2.605,15.9483 L0,14.2343 L0,18.7463 C0,21.0523 4.5,22.9213 10.05,22.9213 C15.601,22.9213 20.1,21.0523 20.1,18.7463 L20.092,14.3863 Z" id="Fill-442" fill="#429FF7"></path>
                    <path d="M20.1005,14.3102 C20.1005,16.6162 15.6005,18.4852 10.0505,18.4852 C4.5005,18.4852 0.0005,16.6162 0.0005,14.3102 C0.0005,12.0042 4.5005,10.1352 10.0505,10.1352 C15.6005,10.1352 20.1005,12.0042 20.1005,14.3102" id="Fill-443" fill="#8BC6FC"></path>
                    <path d="M17.8418,10.1938 L16.0218,11.4948 C14.5918,10.7868 12.4488,10.3368 10.0508,10.3368 C7.7568,10.3368 5.7008,10.7508 4.2738,11.4058 L2.2528,10.0758 L2.2528,13.5768 C2.2528,15.3658 5.7438,16.8168 10.0508,16.8168 C14.3568,16.8168 17.8488,15.3658 17.8488,13.5768 L17.8418,10.1938 Z" id="Fill-444" fill="#429FF7"></path>
                    <path d="M17.8484,10.1348 C17.8484,11.9238 14.3574,13.3748 10.0504,13.3748 C5.7434,13.3748 2.2524,11.9238 2.2524,10.1348 C2.2524,8.3458 5.7434,6.8948 10.0504,6.8948 C14.3574,6.8948 17.8484,8.3458 17.8484,10.1348" id="Fill-445" fill="#8BC6FC"></path>
                    <path d="M15.8143,6.3786 L14.4683,7.3406 C13.4093,6.8176 11.8243,6.4846 10.0503,6.4846 C8.3533,6.4846 6.8323,6.7906 5.7763,7.2756 L4.2813,6.2916 L4.2813,8.8806 C4.2813,10.2046 6.8643,11.2776 10.0503,11.2776 C13.2363,11.2776 15.8193,10.2046 15.8193,8.8806 L15.8143,6.3786 Z" id="Fill-446" fill="#429FF7"></path>
                    <path d="M15.8192,6.335 C15.8192,7.659 13.2362,8.732 10.0502,8.732 C6.8642,8.732 4.2812,7.659 4.2812,6.335 C4.2812,5.011 6.8642,3.938 10.0502,3.938 C13.2362,3.938 15.8192,5.011 15.8192,6.335" id="Fill-447" fill="#8BC6FC"></path>
                    <path d="M14.1426,3.4167 L13.1866,4.0997 C12.4356,3.7287 11.3096,3.4917 10.0506,3.4917 C8.8456,3.4917 7.7656,3.7097 7.0166,4.0537 L5.9546,3.3547 L5.9546,5.1937 C5.9546,6.1337 7.7886,6.8947 10.0506,6.8947 C12.3126,6.8947 14.1456,6.1337 14.1456,5.1937 L14.1426,3.4167 Z" id="Fill-448" fill="#429FF7"></path>
                    <path d="M14.1461,3.3857 C14.1461,4.3257 12.3121,5.0877 10.0501,5.0877 C7.7881,5.0877 5.9551,4.3257 5.9551,3.3857 C5.9551,2.4457 7.7881,1.6837 10.0501,1.6837 C12.3121,1.6837 14.1461,2.4457 14.1461,3.3857" id="Fill-449" fill="#8BC6FC"></path>
                    <path d="M12.6365,1.0945 L12.0325,1.3135 C11.5575,1.0785 10.8465,1.7075 10.0505,1.7075 C9.2895,1.7075 8.6065,1.0665 8.1335,1.2845 L7.4625,1.0555 L7.4625,2.7835 C7.4625,3.3775 8.6205,3.8585 10.0505,3.8585 C11.4795,3.8585 12.6385,3.3775 12.6385,2.7835 L12.6365,1.0945 Z" id="Fill-450" fill="#429FF7"></path>
                    <path d="M12.6387,1.075 C12.6387,1.669 11.4797,2.15 10.0507,2.15 C8.6207,2.15 7.4617,1.669 7.4617,1.075 C7.4617,0.481 8.6207,0 10.0507,0 C11.4797,0 12.6387,0.481 12.6387,1.075" id="Fill-451" fill="#8BC6FC"></path>
                </g>
                <g id="Group-17" transform="translate(152.999900, 235.000000)">
                    <path d="M10.1392,21.6719 L8.6712,21.6719 L8.6712,25.1819 C8.6712,25.1819 9.1672,25.5569 10.1252,25.5569 C10.1302,25.5569 10.1342,25.5559 10.1392,25.5559 L10.1392,21.6719 Z" id="Fill-440" fill="#C3D2E8"></path>
                    <path d="M10.1392,21.6719 L11.6072,21.6719 L11.6072,25.1819 C11.6072,25.1819 11.1112,25.5569 10.1532,25.5569 C10.1482,25.5569 10.1442,25.5559 10.1392,25.5559 L10.1392,21.6719 Z" id="Fill-441" fill="#C3D2E8"></path>
                    <path d="M20.092,14.3863 L17.746,16.0633 C15.903,15.1513 13.141,14.5703 10.05,14.5703 C7.094,14.5703 4.444,15.1043 2.605,15.9483 L0,14.2343 L0,18.7463 C0,21.0523 4.5,22.9213 10.05,22.9213 C15.601,22.9213 20.1,21.0523 20.1,18.7463 L20.092,14.3863 Z" id="Fill-442" fill="#429FF7"></path>
                    <path d="M20.1005,14.3102 C20.1005,16.6162 15.6005,18.4852 10.0505,18.4852 C4.5005,18.4852 0.0005,16.6162 0.0005,14.3102 C0.0005,12.0042 4.5005,10.1352 10.0505,10.1352 C15.6005,10.1352 20.1005,12.0042 20.1005,14.3102" id="Fill-443" fill="#8BC6FC"></path>
                    <path d="M17.8418,10.1938 L16.0218,11.4948 C14.5918,10.7868 12.4488,10.3368 10.0508,10.3368 C7.7568,10.3368 5.7008,10.7508 4.2738,11.4058 L2.2528,10.0758 L2.2528,13.5768 C2.2528,15.3658 5.7438,16.8168 10.0508,16.8168 C14.3568,16.8168 17.8488,15.3658 17.8488,13.5768 L17.8418,10.1938 Z" id="Fill-444" fill="#429FF7"></path>
                    <path d="M17.8484,10.1348 C17.8484,11.9238 14.3574,13.3748 10.0504,13.3748 C5.7434,13.3748 2.2524,11.9238 2.2524,10.1348 C2.2524,8.3458 5.7434,6.8948 10.0504,6.8948 C14.3574,6.8948 17.8484,8.3458 17.8484,10.1348" id="Fill-445" fill="#8BC6FC"></path>
                    <path d="M15.8143,6.3786 L14.4683,7.3406 C13.4093,6.8176 11.8243,6.4846 10.0503,6.4846 C8.3533,6.4846 6.8323,6.7906 5.7763,7.2756 L4.2813,6.2916 L4.2813,8.8806 C4.2813,10.2046 6.8643,11.2776 10.0503,11.2776 C13.2363,11.2776 15.8193,10.2046 15.8193,8.8806 L15.8143,6.3786 Z" id="Fill-446" fill="#429FF7"></path>
                    <path d="M15.8192,6.335 C15.8192,7.659 13.2362,8.732 10.0502,8.732 C6.8642,8.732 4.2812,7.659 4.2812,6.335 C4.2812,5.011 6.8642,3.938 10.0502,3.938 C13.2362,3.938 15.8192,5.011 15.8192,6.335" id="Fill-447" fill="#8BC6FC"></path>
                    <path d="M14.1426,3.4167 L13.1866,4.0997 C12.4356,3.7287 11.3096,3.4917 10.0506,3.4917 C8.8456,3.4917 7.7656,3.7097 7.0166,4.0537 L5.9546,3.3547 L5.9546,5.1937 C5.9546,6.1337 7.7886,6.8947 10.0506,6.8947 C12.3126,6.8947 14.1456,6.1337 14.1456,5.1937 L14.1426,3.4167 Z" id="Fill-448" fill="#429FF7"></path>
                    <path d="M14.1461,3.3857 C14.1461,4.3257 12.3121,5.0877 10.0501,5.0877 C7.7881,5.0877 5.9551,4.3257 5.9551,3.3857 C5.9551,2.4457 7.7881,1.6837 10.0501,1.6837 C12.3121,1.6837 14.1461,2.4457 14.1461,3.3857" id="Fill-449" fill="#8BC6FC"></path>
                    <path d="M12.6365,1.0945 L12.0325,1.3135 C11.5575,1.0785 10.8465,1.7075 10.0505,1.7075 C9.2895,1.7075 8.6065,1.0665 8.1335,1.2845 L7.4625,1.0555 L7.4625,2.7835 C7.4625,3.3775 8.6205,3.8585 10.0505,3.8585 C11.4795,3.8585 12.6385,3.3775 12.6385,2.7835 L12.6365,1.0945 Z" id="Fill-450" fill="#429FF7"></path>
                    <path d="M12.6387,1.075 C12.6387,1.669 11.4797,2.15 10.0507,2.15 C8.6207,2.15 7.4617,1.669 7.4617,1.075 C7.4617,0.481 8.6207,0 10.0507,0 C11.4797,0 12.6387,0.481 12.6387,1.075" id="Fill-451" fill="#8BC6FC"></path>
                </g>
                <polygon id="Fill-673" fill="#EDECED" points="60.7813 25.1655 61.9053 24.5015 60.7693 23.8485 59.6583 24.5015"></polygon>
            </g>
            <g id="Group-21" transform="translate(391.000000, 118.000000)">
                <rect id="Rectangle" stroke="#FFFFFF" stroke-width="3" fill="#00A0F1" x="0" y="0" width="36" height="36" rx="18"></rect>
                <g id="Group-7" transform="translate(8.000000, 8.000000)" stroke="#FFFFFF" stroke-linecap="round" stroke-linejoin="round">
                    <polygon id="Stroke-1" points="20 12.5026087 20 20 0 20 0 11.9017391 2.54434783 10.4826087 5.79043478 12.406087 8.79565217 9.83391304 12.9791304 12.5026087 16.2008696 10.2182609"></polygon>
                    <polygon id="Stroke-3" points="20 10.7715652 20 6.08721739 13.9130435 0.000260869565 0 0.000260869565 0 10.0002609 2.78521739 8.51156522 5.83826087 10.4106957 8.82 8.17504348 12.9791304 10.5793913 15.9843478 8.70373913"></polygon>
                    <polyline id="Stroke-5" points="13.9130435 0 13.9130435 6.08695652 20 6.08695652"></polyline>
                </g>
                <text id="無紙化管理" font-family="NotoSansTC-Regular, Noto Sans TC" font-size="18" font-weight="normal" fill="#333333">
                    <tspan x="46" y="26">無紙化管理</tspan>
                </text>
            </g>
            <g id="Group-24" transform="translate(40.000000, 21.000000)">
                <rect id="Rectangle" stroke="#FFFFFF" stroke-width="3" fill="#00A0F1" x="118" y="0" width="36" height="36" rx="18"></rect>
                <g id="Group-11" transform="translate(126.000000, 8.000000)" stroke="#FFFFFF" stroke-linejoin="round">
                    <polygon id="Stroke-1" points="20 20 19.9817558 2.74760661 13.9272838 0 6.15003692 2.72932985 0 0 0.0182442118 17.2532637 6.13613657 19.9817232 13.9272838 17.2532637"></polygon>
                    <polygon id="Stroke-3" points="1.73797837 2.98285466 1.73797837 16.0881636 6.13570218 17.8322889 13.9268494 15.2178416 18.2446462 16.9219321 18.2446462 4.2613577 13.9268494 2.1586597 6.14960254 4.76962576"></polygon>
                    <line x1="12.1632423" y1="7.3616188" x2="12.1632423" y2="2.75065274" id="Stroke-4" stroke-linecap="round"></line>
                    <polyline id="Stroke-5" stroke-linecap="round" points="1.73797837 12.0353351 6.21736675 13.678503 9.55692628 12.5288077 9.55692628 16.6845953"></polyline>
                    <polyline id="Stroke-6" stroke-linecap="round" points="12.1632423 15.8098346 12.1632423 11.7132289 13.8286782 10.9160139 18.2446462 12.6201044"></polyline>
                    <polyline id="Stroke-7" stroke-linecap="round" points="1.73797837 6.46327241 6.08183832 8.20478677 9.52999435 7.33446475"></polyline>
                    <line x1="3.47552235" y1="7.16022628" x2="3.47552235" y2="5.62062663" id="Stroke-8" stroke-linecap="round"></line>
                    <line x1="6.95061031" y1="7.98546562" x2="6.95061031" y2="6.49112272" id="Stroke-9" stroke-linecap="round"></line>
                    <line x1="5.21306633" y1="7.85630983" x2="5.21306633" y2="6.49164491" id="Stroke-10" stroke-linecap="round"></line>
                </g>
                <text id="應用場景廣泛" font-family="NotoSansTC-Regular, Noto Sans TC" font-size="18" font-weight="normal" fill="#333333">
                    <tspan x="0" y="26">應用場景廣泛</tspan>
                </text>
            </g>
            <g id="Group-23" transform="translate(0.000000, 97.000000)">
                <rect id="Rectangle" stroke="#FFFFFF" stroke-width="3" fill="#00A0F1" x="118" y="0" width="36" height="36" rx="18"></rect>
                <g id="Group-15" transform="translate(126.434783, 10.416667)" stroke="#FFFFFF" stroke-linejoin="round">
                    <polygon id="Stroke-1" points="0 2.5 19.1304348 2.5 19.1304348 0 0 0"></polygon>
                    <line x1="0.017826087" y1="14.1666667" x2="19.1126087" y2="14.1666667" id="Stroke-3" stroke-linecap="round"></line>
                    <polygon id="Stroke-5" points="1.73913043 14.1666667 17.3913043 14.1666667 17.3913043 2.5 1.73913043 2.5"></polygon>
                    <line x1="9.56521739" y1="14.1666667" x2="9.56521739" y2="16.6141667" id="Stroke-6"></line>
                    <path d="M10.8695652,17.9166667 C10.8695652,18.6066667 10.2852174,19.1666667 9.56521739,19.1666667 C8.84521739,19.1666667 8.26086957,18.6066667 8.26086957,17.9166667 C8.26086957,17.2258333 8.84521739,16.6666667 9.56521739,16.6666667 C10.2852174,16.6666667 10.8695652,17.2258333 10.8695652,17.9166667 Z" id="Stroke-7"></path>
                    <polygon id="Stroke-9" stroke-linecap="round" points="5.2173913 12.5 6.95652174 12.5 6.95652174 7.5 5.2173913 7.5"></polygon>
                    <polygon id="Stroke-11" stroke-linecap="round" points="8.69565217 12.5 10.4347826 12.5 10.4347826 9.16666667 8.69565217 9.16666667"></polygon>
                    <polygon id="Stroke-12" stroke-linecap="round" points="12.173913 12.5 13.9130435 12.5 13.9130435 4.16666667 12.173913 4.16666667"></polygon>
                    <polyline id="Stroke-13" stroke-linecap="round" points="3.47826087 4.16666667 3.47826087 12.5 15.6521739 12.5"></polyline>
                </g>
                <text id="線上數據管理" font-family="NotoSansTC-Regular, Noto Sans TC" font-size="18" font-weight="normal" fill="#333333">
                    <tspan x="0" y="26">線上數據管理</tspan>
                </text>
            </g>
        </g>
    </g>
</svg>