<?xml version="1.0" encoding="UTF-8"?>
<svg width="961px" height="966px" viewBox="0 0 961 966" version="1.1" xmlns="http://www.w3.org/2000/svg" xmlns:xlink="http://www.w3.org/1999/xlink">
    <title>service-pattern-2</title>
    <g id="Page-1" stroke="none" stroke-width="1" fill="none" fill-rule="evenodd" opacity="0.085674">
        <g id="service-pattern-2" transform="translate(0.000000, -0.000832)" fill="#000000" fill-rule="nonzero">
            <path d="M631.311323,929.565188 C634.919044,944.265365 626.628884,959.270986 612.264,964.041832 C609.318905,965.021046 606.235618,965.520746 603.132,965.521839 C587.995595,965.532185 575.390423,953.913017 574.170584,938.825842 C572.950745,923.738667 583.525504,910.245339 598.466959,907.823815 C613.408415,905.402292 627.703601,914.865011 631.311323,929.565188 Z M18.791,914.092832 L50.338,942.816832 L13.928,965.058832 L18.791,914.092832 Z M805.38,907.873832 L781.624,955.905832 L761.48,916.053832 L805.38,907.873832 Z M357.339526,914.445979 C361.408679,928.64336 353.998444,943.604144 340.239,948.970832 C336.935317,950.263917 333.41873,950.927008 329.871,950.925843 C315.101997,950.938496 302.752291,939.703664 301.371708,924.999324 C299.991124,910.294984 310.033771,896.957746 324.547022,894.221114 C339.060274,891.484481 353.270373,900.248598 357.339526,914.445979 Z M704.790022,931.900378 C707.546896,934.52401 708.214531,938.664656 706.422,942.021832 C704.949184,944.780223 702.075964,946.50231 698.949,946.500833 C695.143241,946.499034 691.806311,943.958251 690.792159,940.290104 C689.778007,936.621958 691.335859,932.727888 694.600195,930.771383 C697.864532,928.814878 702.033148,929.276745 704.790022,931.900378 Z M459.524691,933.487863 C459.993683,937.340823 457.337955,940.877107 453.507,941.500832 C453.123503,941.563416 452.73557,941.594832 452.347,941.594832 C448.465602,941.596074 445.275142,938.533532 445.117643,934.655331 C444.960145,930.77713 447.891762,927.465964 451.760479,927.152464 C455.629195,926.838965 459.055699,929.634904 459.524691,933.487863 Z M120.943594,928.76815 C122.969843,930.964321 123.247173,934.255559 121.617,936.759832 C120.41376,938.615008 118.351208,939.732711 116.14,939.727848 C113.151882,939.726222 110.545962,937.696852 109.812386,934.800179 C109.078809,931.903506 110.404698,928.878414 113.031866,927.454744 C115.659035,926.031075 118.917345,926.571979 120.943594,928.76815 Z M959.894311,926.637304 C960.589472,930.662183 958.023462,934.530308 954.045,935.454832 C953.470964,935.5886 952.883415,935.65571 952.294,935.654841 C948.209531,935.65126 944.837354,932.461397 944.607004,928.383427 C944.376654,924.305456 947.368158,920.756132 951.426243,920.292616 C955.484328,919.8291 959.19915,922.612424 959.894311,926.637304 Z M206.63,910.822832 C210.721646,910.824627 214.461621,913.136415 216.292562,916.795544 C218.123502,920.454674 217.731582,924.833963 215.28,928.109832 C213.232986,930.832534 210.027364,932.437381 206.621,932.444832 C202.530015,932.441529 198.791175,930.129729 196.960192,926.471359 C195.129208,922.81299 195.519628,918.434529 197.969,915.157832 C200.016746,912.434939 203.223043,910.830124 206.63,910.822832 Z M886.582,888.331832 L908.07,928.153832 L854.369,920.110832 L886.582,888.331832 Z M461.639204,825.025477 L557.059617,891.317227 L548.413413,903.762582 L452.993,837.470832 L461.639204,825.025477 Z M37.888,845.754812 C43.1622123,845.759154 47.505433,849.9007 47.7603343,855.168751 C48.0152357,860.436802 44.0921564,864.978323 38.843,865.491832 C38.517,865.523832 38.192,865.538832 37.873,865.538832 C32.5987877,865.53451 28.255567,861.392964 28.0006657,856.124913 C27.7457643,850.856862 31.6688436,846.315341 36.918,845.801832 C37.2446667,845.769832 37.568,845.754165 37.888,845.754812 Z M599.738,826.245829 C600.139089,826.245501 600.539828,826.269546 600.938,826.317832 C606.19464,826.947278 610.051932,831.561438 609.739555,836.846406 C609.427178,842.131374 605.053189,846.25901 599.759,846.264832 L599.755,846.265832 C599.356619,846.265537 598.958599,846.24183 598.563,846.194832 C593.306577,845.565467 589.449065,840.952057 589.760342,835.66725 C590.071618,830.382443 594.44404,826.253777 599.738,826.245829 Z M724.680495,776.531988 C736.921464,791.387623 737.321827,812.71627 725.647,828.020832 C717.839717,838.349208 705.620002,844.392361 692.673,844.328344 C673.423816,844.316466 656.71658,831.052239 652.340563,812.307061 C647.964547,793.561883 657.071941,774.271294 674.326449,765.738229 C691.580956,757.205165 712.439526,761.676352 724.680495,776.531988 Z M137.595,826.413832 C139.488957,826.417679 141.300089,827.190786 142.613,828.555832 C144.541494,830.565868 145.083997,833.53296 143.991524,836.095349 C142.899051,838.657738 140.382558,840.320629 137.597,840.320832 C135.702491,840.316837 133.890793,839.543797 132.577,838.178832 C130.648254,836.168534 130.105884,833.200961 131.198868,830.638395 C132.291852,828.075829 134.809079,826.413233 137.595,826.413832 Z M865.87272,800.638982 L869.434145,815.369642 L789.234425,834.759492 L785.673,820.028832 L865.87272,800.638982 Z M356.471878,803.892979 C360.603737,806.884689 362.34001,812.19624 360.773,817.050832 C359.19809,821.907365 354.678501,825.200209 349.573,825.210835 C344.471768,825.214531 339.948,821.933869 338.366655,817.083927 C336.785311,812.233985 338.505887,806.917328 342.62889,803.913426 C346.751893,800.909523 352.340019,800.90127 356.471878,803.892979 Z M249.249,808.584832 C251.738105,808.590501 253.9991,810.035978 255.049,812.292832 C255.962718,814.271691 255.805281,816.57972 254.631312,818.416173 C253.457342,820.252626 251.428624,821.364421 249.249,821.365832 C246.759822,821.36041 244.498706,819.914855 243.449,817.657832 C242.534709,815.679002 242.691883,813.370664 243.865968,811.534031 C245.040053,809.697398 247.069162,808.585711 249.249,808.584832 Z M950.0243,799.11495 C952.362493,802.144752 952.283813,806.391717 949.835,809.332832 C948.281112,811.196285 945.980319,812.273969 943.554,812.274832 C939.726881,812.273343 936.413807,809.615065 935.58299,805.879213 C934.752174,802.143361 936.626351,798.33149 940.092121,796.708135 C943.557891,795.084779 947.686106,796.085149 950.0243,799.11495 Z M431.921,749.920832 L465.395,769.352832 L422.637,787.495832 L431.921,749.920832 Z M0,735.320832 L44.653,747.055832 L14.5,770.956832 L0,735.320832 Z M561.844153,748.163731 C562.298017,753.082321 558.763207,757.472123 553.861,758.077832 C553.48678,758.124042 553.110062,758.147086 552.733,758.146834 C547.793516,758.143141 543.750012,754.216906 543.600993,749.279669 C543.451974,744.342432 547.251325,740.179478 552.181595,739.877892 C557.111866,739.576307 561.390289,743.245141 561.844153,748.163731 Z M121.737,668.186832 L159.919,741.123832 L79.207,757.354832 L121.737,668.186832 Z M805.795743,720.395837 C807.614187,722.855877 807.468483,726.251599 805.446,728.546832 C804.215381,729.945176 802.442737,730.746618 800.58,730.746834 C797.520828,730.7491 794.875179,728.615396 794.229456,725.625148 C793.583734,722.634901 795.113178,719.599616 797.900691,718.339334 C800.688204,717.079053 803.977299,717.935796 805.795743,720.395837 Z M274.682287,662.416661 L284.250234,674.169466 L220.263946,726.260637 L210.696,714.507832 L274.682287,662.416661 Z M914.503,710.012832 C918.066661,710.022419 921.016536,712.785416 921.259,716.340832 C921.379424,718.134315 920.781973,719.90211 919.598243,721.254836 C918.414514,722.607562 916.741606,723.434258 914.948,723.552832 C914.797,723.567832 914.645,723.567832 914.494,723.567832 C910.930866,723.558355 907.980967,720.796617 907.737,717.241832 C907.616835,715.448207 908.214321,713.680339 909.397947,712.327357 C910.581572,710.974374 912.25432,710.147174 914.048,710.027832 C914.199333,710.017832 914.351,710.012832 914.503,710.012832 Z M683.426288,692.993483 C686.769575,697.265293 686.705909,703.283705 683.273,707.483832 C681.066363,710.177791 677.768335,711.740749 674.286,711.742832 C668.861433,711.740322 664.162954,707.978724 662.973612,702.686144 C661.784271,697.393565 664.421695,691.983451 669.32366,689.660377 C674.225625,687.337303 680.083001,688.721673 683.426288,692.993483 Z M356.123,692.568832 C356.35,692.568832 356.579,692.575832 356.808,692.593832 C361.660487,692.962215 365.354732,697.098998 365.174079,701.962093 C364.993427,706.825189 361.002445,710.676484 356.136,710.683832 C355.909,710.683832 355.68,710.675832 355.452,710.658832 C353.056157,710.479379 350.829785,709.355343 349.262844,707.53409 C347.695902,705.712837 346.916802,703.343619 347.097,700.947832 C347.467447,696.23189 351.39257,692.588127 356.123,692.568832 Z M450.752,656.939832 C453.966329,656.940254 456.905953,658.75235 458.350462,661.623814 C459.79497,664.495278 459.497675,667.935728 457.582,670.516832 C455.971485,672.676524 453.437069,673.950587 450.743,673.954832 C447.529031,673.953655 444.590098,672.141269 443.146089,669.269957 C441.702079,666.398645 441.999539,662.958647 443.915,660.377832 C445.524781,658.218331 448.058523,656.944233 450.752,656.939832 Z M629.794639,542.689324 L644.634707,545.762825 L621.071068,659.537333 L606.231,656.463832 L629.794639,542.689324 Z M816.66,608.972832 L865.945,613.350832 L826.257,657.512832 L816.66,608.972832 Z M541.450307,633.335246 C542.26349,638.074284 539.236281,642.624146 534.551,643.704832 C533.881498,643.858337 533.196874,643.936158 532.51,643.936832 C527.701701,643.935279 523.730553,640.180919 523.459363,635.380273 C523.188172,630.579627 526.711232,626.401915 531.488766,625.858854 C536.2663,625.315793 540.637124,628.596209 541.450307,633.335246 Z M42.648,626.171832 C43.3618684,628.579876 42.8976526,631.183582 41.3955614,633.196542 C39.8934702,635.209501 37.5296296,636.395688 35.018,636.396832 C30.9186348,636.39663 27.4899496,633.28273 27.0961924,629.20232 C26.7024352,625.121909 29.4724185,621.409841 33.4961018,620.62577 C37.5197852,619.841699 41.4808733,622.242123 42.648,626.171832 Z M935.854,612.746831 C936.095,612.746831 936.334,612.754832 936.576,612.770832 C942.60688,613.149607 947.246964,618.249254 947.056195,624.289004 C946.868504,630.23134 942.071287,634.970355 936.161526,635.119227 L935.871,635.122833 C935.63,635.122833 935.391,635.115832 935.147,635.100832 C929.115383,634.722032 924.474799,629.621639 924.665844,623.58116 C924.856889,617.54068 929.810501,612.743727 935.854,612.746831 Z M753.717509,582.356692 C762.782557,591.287302 764.737153,605.185316 758.487,616.269832 C753.48442,625.129356 744.098329,630.607832 733.924,630.607832 C721.198795,630.599678 710.058178,622.063761 706.739302,609.778975 C703.420426,597.494189 708.746996,584.509472 719.736895,578.094409 C730.726795,571.679347 744.65246,573.426082 753.717509,582.356692 Z M176.236569,545.787171 L190.708392,550.28273 L166.230823,629.079391 L151.759,624.583832 L176.236569,545.787171 Z M323.563917,596.623009 C324.124884,600.602978 321.457839,604.320784 317.508,605.064832 C317.052671,605.150732 316.590361,605.194252 316.127,605.194841 C312.107697,605.200956 308.793703,602.046174 308.602091,598.031436 C308.410479,594.016698 311.408957,590.560639 315.410574,590.183948 C319.412191,589.807257 323.002949,592.64304 323.563917,596.623009 Z M416.992,556.549832 C421.264486,556.567268 425.092429,559.193775 426.646,563.173832 C427.869098,566.355012 427.448,569.934395 425.520011,572.744864 C423.592022,575.555332 420.404205,577.236739 416.996,577.240832 L416.995,577.240832 C412.723245,577.222577 408.896303,574.596213 407.343,570.616832 C406.116882,567.435813 406.536535,563.854946 408.464917,561.043614 C410.393299,558.232281 413.582858,556.55138 416.992,556.549832 Z M103.997976,509.609234 L107.612437,524.3269 L27.4834608,544.005498 L23.869,529.287832 L103.997976,509.609234 Z M269.491,521.962832 C270.750948,527.750993 267.083798,533.465642 261.297,534.731832 C260.542209,534.894967 259.772219,534.97743 259,534.977832 C253.371629,534.974747 248.702017,530.623612 248.302016,525.009471 C247.902015,519.395331 251.907562,514.426101 257.478641,513.625069 C263.04972,512.824036 268.293049,516.463424 269.491,521.962832 Z M526.175,476.141832 L536.632,534.314832 L477.856,528.066832 L526.175,476.141832 Z M854.091446,512.506969 C857.438362,516.15732 857.878162,521.614621 855.159,525.753832 C853.162338,528.803534 849.760173,530.63816 846.115,530.630854 C841.162535,530.628565 836.844402,527.262666 835.633312,522.460565 C834.422221,517.658464 836.627664,512.647319 840.986726,510.296683 C845.345788,507.946048 850.74453,508.856617 854.091446,512.506969 Z M947.291003,510.796731 C950.335189,513.807145 950.982417,518.484941 948.87,522.208832 C947.185338,525.176103 944.036152,527.009245 940.624,527.008832 C936.342684,527.006735 932.594686,524.1339 931.480263,520.000169 C930.365839,515.866438 932.161903,511.498964 935.861997,509.345137 C939.562092,507.191311 944.246816,507.786316 947.291003,510.796731 Z M350.232688,495.485927 C352.414548,499.369328 351.482875,504.25968 348.026,507.068832 C346.397187,508.395929 344.360003,509.119735 342.259,509.117836 C337.804641,509.119521 333.996274,505.913293 333.238801,501.523811 C332.481327,497.134329 334.994864,492.837157 339.192169,491.345866 C343.389474,489.854574 348.050828,491.602526 350.232688,495.485927 Z M635.404,385.416832 L650.896,492.316832 L571.886,449.193832 L635.404,385.416832 Z M743.358174,471.270473 C746.018051,474.970482 745.723475,480.027669 742.652,483.393832 C740.826451,485.398038 738.239989,486.538943 735.529,486.535838 C730.972136,486.534577 727.038708,483.342389 726.099578,478.883348 C725.160447,474.424307 727.472221,469.9168 731.641485,468.077711 C735.810749,466.238622 740.698296,467.570464 743.358174,471.270473 Z M181.81006,449.882711 C184.641923,454.153054 184.059278,459.829773 180.419,463.435832 C178.414986,465.432699 175.699044,466.55052 172.87,466.542871 C167.746009,466.543951 163.336239,462.921998 162.341708,457.89545 C161.347178,452.868901 164.045445,447.840584 168.783799,445.890383 C173.522153,443.940182 178.978196,445.612367 181.81006,449.882711 Z M15.415,444.330828 C18.698659,444.348896 21.4842409,446.746462 21.991,449.990832 C22.2556464,451.735956 21.8157533,453.514707 20.7682063,454.935319 C19.7206593,456.355932 18.1513805,457.301884 16.406,457.564832 C16.0753156,457.614415 15.7413808,457.639151 15.407,457.638835 C12.1244315,457.617856 9.3404764,455.22169 8.831,451.978832 C8.54062409,450.061364 9.10149206,448.112651 10.3667541,446.642917 C11.6320161,445.173184 13.4756703,444.328795 15.415,444.330828 Z M362.539681,341.78724 L398.692758,452.208428 L384.290077,456.92402 L348.137,346.502832 L362.539681,341.78724 Z M265.22,427.609831 C269.334696,427.622705 273.012466,430.179389 274.458,434.031832 C275.583009,437.057854 275.155874,440.442898 273.314434,443.094604 C271.472993,445.746311 268.450381,447.328961 265.222,447.331832 L265.221,447.330832 C260.447237,447.334661 256.356701,443.917468 255.511014,439.21921 C254.665328,434.520951 257.307534,429.891864 261.783,428.230832 C262.88224,427.819701 264.046391,427.609362 265.22,427.609831 Z M812.27909,433.330232 C812.784909,437.607681 809.824569,441.521914 805.571,442.199832 C805.144415,442.268023 804.712998,442.301467 804.281,442.299889 C799.973771,442.285542 796.445565,438.874296 796.286132,434.569996 C796.126699,430.265695 799.392876,426.602783 803.687245,426.269886 C807.981613,425.936989 811.773271,429.052782 812.27909,433.330232 Z M938.243842,404.129007 L943.374179,418.389219 L897.425338,434.920045 L892.295,420.659832 L938.243842,404.129007 Z M93.4627939,415.846219 C95.4878108,420.512258 93.7567997,425.956899 89.409,428.596832 C87.8206934,429.565871 85.9955775,430.077347 84.135,430.074841 C79.0484889,430.078795 74.740143,426.32664 74.045436,421.287792 C73.350729,416.248944 76.4830213,411.470946 81.3808412,410.098368 C86.2786611,408.72579 91.4377771,411.18018 93.4627939,415.846219 Z M460.496,408.047832 C462.471668,408.047546 464.351223,408.900419 465.652007,410.387439 C466.95279,411.874459 467.548076,413.850757 467.285,415.808832 C466.818952,419.200927 463.925943,421.73183 460.502,421.742833 C458.525711,421.743856 456.645368,420.890904 455.344366,419.403251 C454.043364,417.915598 453.448609,415.938356 453.713,413.979832 C454.179955,410.588531 457.072719,408.058695 460.496,408.047832 Z M241.746,306.697832 L265.927,388.221832 L170.253,352.739832 L241.746,306.697832 Z M707.017806,363.88694 C710.161647,366.407537 711.293443,370.684087 709.808,374.429832 C708.433166,377.93625 705.04529,380.237733 701.279,380.223895 C697.249466,380.224573 693.690842,377.596638 692.505998,373.745237 C691.321154,369.893836 692.787307,365.72008 696.120475,363.455761 C699.453642,361.191443 703.873965,361.366343 707.017806,363.88694 Z M82.3979751,258.014785 L136.789101,360.685408 L123.398126,367.779455 L69.007,265.108832 L82.3979751,258.014785 Z M532.66649,348.203297 C536.193278,351.170496 537.353888,356.100999 535.521,360.329832 C533.882805,364.155293 530.11443,366.629077 525.953,366.610932 C521.34404,366.610932 517.28175,363.58514 515.961826,359.169224 C514.641903,354.753309 516.37745,349.994659 520.230392,347.46536 C524.083333,344.936062 529.139701,345.236098 532.66649,348.203297 Z M849.361634,317.806863 C857.211816,328.876692 856.220989,343.93506 846.988,353.880832 C841.570324,359.733048 833.952927,363.054102 825.978,363.040872 C812.407206,363.037119 800.699709,353.515002 797.931409,340.229559 C795.16311,326.944116 802.093132,313.538484 814.533036,308.114899 C826.972939,302.691314 841.511452,306.737034 849.361634,317.806863 Z M28.7074551,336.632627 C31.699403,341.059842 31.1527228,346.983024 27.401,350.787832 C25.2974875,352.932031 22.4177134,354.136655 19.414,354.12887 C14.0705939,354.12856 9.46930858,350.358796 8.41785978,345.119861 C7.36641098,339.880925 10.1567847,334.627664 15.0862879,332.565629 C20.0157911,330.503594 25.7155072,332.205411 28.7074551,336.632627 Z M947.89878,300.773251 C951.982101,303.541249 953.843096,308.606658 952.523,313.359832 C951.161865,318.344351 946.624987,321.795085 941.458,321.775912 C936.524917,321.778804 932.140351,318.632814 930.563185,313.958644 C928.986019,309.284474 930.568202,304.125174 934.494608,301.138763 C938.421015,298.152352 943.815459,298.005254 947.89878,300.773251 Z M646.567628,281.258129 L652.307027,295.284295 L607.111399,313.777998 L601.372,299.751832 L646.567628,281.258129 Z M432.907,254.918832 L447.942,308.091832 L404.975,291.528832 L432.907,254.918832 Z M324.026128,280.655353 C327.37084,284.104746 327.968896,289.375779 325.482,293.486832 C323.568895,296.65624 320.135039,298.591555 316.433,298.586841 C311.628273,298.585325 307.428803,295.344042 306.21007,290.696451 C304.991337,286.048861 307.059875,281.163924 311.245592,278.804861 C315.43131,276.445798 320.681416,277.205961 324.026128,280.655353 Z M737.10598,284.637349 C739.063832,287.569733 738.67738,291.47682 736.183,293.968832 C734.800451,295.357885 732.919816,296.136352 730.96,296.130861 C727.434088,296.130861 724.399268,293.639958 723.711794,290.181716 C723.02432,286.723474 724.875701,283.261241 728.133536,281.912698 C731.391372,280.564155 735.148129,281.704965 737.10598,284.637349 Z M226.57,243.691832 C226.865,243.691832 227.158,243.703832 227.456,243.726832 C233.227982,244.21153 237.594262,249.156205 237.360883,254.943798 C237.127504,260.731392 232.377268,265.308452 226.585,265.326832 L226.58,265.329832 C226.288667,265.329832 225.994,265.318165 225.696,265.294832 C219.74335,264.8061 215.31233,259.586896 215.796,253.633832 C216.278167,248.033404 220.948943,243.72332 226.57,243.691832 Z M529.337,247.296832 C533.881751,247.299593 537.563761,250.986081 537.561002,255.530832 C537.558239,260.075583 533.871751,263.757593 529.327,263.754834 C525.139602,263.749585 521.623872,260.600642 521.159146,256.439108 C520.694421,252.277574 523.428911,248.430658 527.512,247.501832 C528.11094,247.366573 528.722978,247.297824 529.337,247.296832 Z M877.58632,197.913787 L918.558046,224.479483 L910.313726,237.194528 L869.342,210.628832 L877.58632,197.913787 Z M111.513,196.688832 L160.513,205.925832 L129.857,233.977832 L111.513,196.688832 Z M693.958,126.513832 L802.579,128.328832 L770.422,232.094832 L693.958,126.513832 Z M600.228,163.666832 L647.148,205.812832 L595.592,216.019832 L600.228,163.666832 Z M25.3445381,200.64692 C26.5857204,204.446215 24.7589599,208.569565 21.111,210.202832 C20.1070969,210.651938 19.0197807,210.884326 17.92,210.884832 C13.9231048,210.88547 10.5704009,207.869107 10.1500708,203.894375 C9.72974068,199.919643 12.3773773,196.268739 16.2859987,195.433365 C20.1946201,194.597991 24.1033559,196.847626 25.3445381,200.64692 Z M358.088841,195.064212 C360.943159,198.193729 361.305034,202.862892 358.967,206.394832 C357.259942,208.987731 354.360366,210.544876 351.256,210.535871 C347.020318,210.534142 343.327817,207.653609 342.295437,203.545665 C341.263058,199.437722 343.155023,195.15374 346.886655,193.149761 C350.618286,191.145781 355.234524,191.934695 358.088841,195.064212 Z M248.329,111.883832 L279.078,192.294832 L210.096,172.583832 L248.329,111.883832 Z M442.849392,172.670468 L491.502124,176.850888 L490.204732,191.950252 L441.552,187.769832 L442.849392,172.670468 Z M641.117274,78.4941601 L656.02881,81.1915721 L647.336536,129.243244 L632.425,126.545832 L641.117274,78.4941601 Z M161.348282,88.1758298 L165.946579,102.616387 L87.3262967,127.651389 L82.728,113.210832 L161.348282,88.1758298 Z M876.763416,104.116207 C878.053746,109.677001 874.842084,115.293007 869.395,117.000832 C868.340105,117.332405 867.240778,117.500834 866.135,117.500834 C860.426465,117.503992 855.679321,113.108661 855.243779,107.416765 C854.808236,101.724868 858.831369,96.6584383 864.473924,95.7930157 C870.116479,94.9275932 875.473085,98.5554126 876.763416,104.116207 Z M958.50308,102.870398 C959.938965,107.889046 957.317201,113.175593 952.453,115.069832 C951.285994,115.5259 950.043957,115.759587 948.791,115.758834 C943.570983,115.761924 939.207194,111.789699 938.720959,106.592376 C938.234724,101.395053 941.785993,96.6823341 946.916,95.7171307 C952.046007,94.7519273 957.067195,97.8517504 958.50308,102.870398 Z M447.139396,90.7634882 C452.384408,91.9173909 455.917729,96.8373813 455.335481,102.176167 C454.753233,107.514952 450.24244,111.557651 444.872,111.553843 C443.352282,111.555983 441.850498,111.22559 440.472,110.585832 C435.595816,108.335394 433.198179,102.77284 434.91031,97.6826291 C436.622441,92.592418 441.894384,89.6095856 447.139396,90.7634882 Z M558.877099,95.0306692 C560.715289,99.5242867 558.933402,104.684128 554.714,107.085832 C553.259279,107.912553 551.615223,108.348373 549.942,108.350835 C545.086949,108.354657 540.983043,104.755069 540.353865,99.9409565 C539.724687,95.1268445 542.765658,90.5934604 547.45862,89.3494126 C552.151581,88.1053648 557.038909,90.5370517 558.877099,95.0306692 Z M336.608,83.9988321 C336.941333,83.9988321 337.272,84.0128321 337.6,84.0408321 C340.599211,84.3013815 343.372075,85.7427048 345.308581,88.0477207 C347.245087,90.3527366 348.186602,93.3326256 347.926,96.3318321 C347.388002,102.180551 342.500301,106.66682 336.627,106.702832 C336.299,106.702832 335.967,106.689832 335.635,106.658832 C332.635675,106.399291 329.862398,104.958571 327.92558,102.653783 C325.988763,100.348994 325.047152,97.3690437 325.308,94.3698321 C325.847827,88.5216216 330.735046,84.0361925 336.608,83.9988321 Z M77.7396181,49.2671368 C79.1085373,54.5937391 76.1669492,60.0806497 70.973,61.8888321 C69.8589206,62.2768785 68.6877252,62.4756268 67.508,62.4768396 C62.00831,62.4833279 57.4212993,58.2739977 56.9563697,52.793991 C56.4914401,47.3139844 60.3037445,42.3920474 65.7259211,41.4719205 C71.1480976,40.5517936 76.3706989,43.9405344 77.7396181,49.2671368 Z M571.077183,2.30926389e-14 L683.507239,29.3109825 L679.684057,43.9758146 L567.254,14.6648321 L571.077183,2.30926389e-14 Z M767.209461,20.0704959 C771.812106,21.1663637 774.865338,25.5345012 774.313161,30.2334762 C773.760983,34.9324513 769.778307,38.4737982 765.047,38.4728323 C763.588328,38.4702803 762.150312,38.1278957 760.847,37.4728321 C756.622909,35.3415605 754.663444,30.3854181 756.288077,25.9417896 C757.91271,21.4981612 762.606816,18.9746281 767.209461,20.0704959 Z M229.585,13.8258321 C232.438133,14.2292171 235.014138,15.7495573 236.746251,18.0523532 C238.478365,20.3551491 239.224682,23.2517412 238.821,26.1048321 C238.045671,31.450842 233.474886,35.4245502 228.073,35.4488321 C227.560773,35.4485679 227.049192,35.4124798 226.542,35.3408321 C223.688867,34.9374471 221.112862,33.4171068 219.380749,31.1143109 C217.648635,28.8115151 216.902318,25.914923 217.306,23.0618321 C217.708128,20.2081107 219.228154,17.6312825 221.531275,15.8989242 C223.834396,14.1665659 226.731692,13.4207791 229.585,13.8258321 Z M14.301,18.7938321 C16.9759637,18.794209 19.4213882,20.3050849 20.6186843,22.697137 C21.8159805,25.089189 21.5598583,27.9522727 19.957,30.0938321 C18.6184787,31.8739579 16.5222115,32.9228319 14.295,32.9268321 C11.6205944,32.9268321 9.17548726,31.416539 7.97801753,29.0251981 C6.7805478,26.6338572 7.03600646,23.7713413 8.638,21.6298321 C9.97610755,19.8482955 12.07291,18.7982281 14.301,18.7938321 Z M483.657,16.3158321 C486.607449,16.3181775 489.302627,17.9895012 490.616257,20.6313815 C491.929888,23.2732619 491.635843,26.4309258 489.857,28.7848321 C488.381832,30.7253249 486.086538,31.8674255 483.649,31.8738321 C480.698568,31.8719616 478.003203,30.2008816 476.689496,27.5590592 C475.375789,24.9172368 475.669939,21.7595515 477.449,19.4058321 C478.924063,17.4650847 481.219324,16.3226303 483.657,16.3158321 Z M898.020647,10.6503067 C901.450927,13.2666465 902.789736,17.8044837 901.329,21.8638321 C899.928138,25.7946306 896.201948,28.4157853 892.029,28.4058603 C887.714831,28.4087879 883.89642,25.6152046 882.593259,21.5025616 C881.290098,17.3899186 882.802848,12.9070664 886.33144,10.4249105 C889.860032,7.94275457 894.590366,8.03396686 898.020647,10.6503067 Z M375.004,11.3908321 C375.478136,11.3908321 375.951332,11.4330133 376.418,11.5168321 C380.43315,12.2434092 383.23048,15.9135473 382.866731,19.9776622 C382.502982,24.0417771 379.09836,27.1568243 375.018,27.1588321 L375.021,27.1638321 C374.545707,27.1624779 374.071486,27.1186368 373.604,27.0328321 C369.58885,26.306255 366.79152,22.6361168 367.155269,18.5720019 C367.519018,14.507887 370.92364,11.3928398 375.004,11.3908321 Z" id="Combined-Shape"></path>
        </g>
    </g>
</svg>